<?xml version="1.0" encoding="UTF-8"?>
<svg id="Layer_1" data-name="Layer 1" xmlns="http://www.w3.org/2000/svg" xmlns:xlink="http://www.w3.org/1999/xlink" viewBox="0 0 906.86 1068.82">
  <defs>
    <style>
      .cls-1 {
        fill: #939393;
      }

      .cls-2 {
        fill: #0098a0;
      }

      .cls-3 {
        fill: url(#linear-gradient-2);
      }

      .cls-4 {
        fill: #663b17;
      }

      .cls-5, .cls-6, .cls-7, .cls-8 {
        fill: #fff;
      }

      .cls-9 {
        fill: #e2af9b;
      }

      .cls-10 {
        fill: url(#linear-gradient-17);
      }

      .cls-11 {
        fill: #ee6c4d;
      }

      .cls-12 {
        fill: #fac2b0;
      }

      .cls-13 {
        fill: #d1d1d1;
      }

      .cls-14 {
        fill: url(#linear-gradient-15);
      }

      .cls-15 {
        fill: url(#linear-gradient-14);
      }

      .cls-16 {
        fill: url(#linear-gradient-6);
      }

      .cls-17 {
        fill: #707482;
      }

      .cls-18 {
        fill: #b2b2b2;
      }

      .cls-19 {
        isolation: isolate;
      }

      .cls-6, .cls-20 {
        opacity: .1;
      }

      .cls-21 {
        fill: #ad8a72;
      }

      .cls-22 {
        fill: #007f82;
      }

      .cls-23 {
        fill: #feffff;
      }

      .cls-24 {
        fill: url(#linear-gradient-11);
      }

      .cls-25 {
        fill: #4edadd;
      }

      .cls-7 {
        opacity: .42;
      }

      .cls-26 {
        fill: #f9f9fb;
      }

      .cls-8 {
        font-family: OpenSansRoman-SemiBold, 'Open Sans';
        font-size: 29.17px;
        font-variation-settings: 'wght' 600, 'wdth' 100;
        font-weight: 600;
      }

      .cls-27 {
        fill: #008389;
      }

      .cls-28 {
        fill: url(#linear-gradient-10);
      }

      .cls-29 {
        fill: #826b57;
      }

      .cls-30 {
        fill: #f7cbb0;
      }

      .cls-31 {
        fill: #00a4b3;
      }

      .cls-32 {
        fill: url(#linear-gradient-16);
      }

      .cls-33 {
        fill: #bfbebb;
      }

      .cls-34 {
        fill: #00a5b2;
      }

      .cls-35 {
        fill: #00c4ce;
      }

      .cls-36 {
        fill: #a0846b;
      }

      .cls-37 {
        fill: #f9f9f9;
      }

      .cls-38 {
        fill: #f2f2f1;
      }

      .cls-39 {
        fill: #e5e5e5;
      }

      .cls-40 {
        fill: url(#linear-gradient-5);
      }

      .cls-41 {
        fill: #c5c9d7;
      }

      .cls-42 {
        fill: #4f312b;
      }

      .cls-43 {
        fill: #85c0ec;
      }

      .cls-44 {
        fill: #474747;
      }

      .cls-45 {
        fill: url(#linear-gradient-7);
      }

      .cls-46 {
        fill: #515151;
      }

      .cls-47 {
        fill: #383838;
      }

      .cls-48 {
        fill: #dbd9ee;
      }

      .cls-49 {
        fill: #c1d1aa;
      }

      .cls-50 {
        fill: #f7f7f7;
      }

      .cls-51 {
        fill: #aec693;
      }

      .cls-52 {
        fill: url(#linear-gradient-9);
      }

      .cls-53 {
        fill: #5f3d37;
      }

      .cls-54 {
        fill: url(#linear-gradient-3);
      }

      .cls-55 {
        fill: #ffbdbd;
      }

      .cls-56 {
        fill: url(#linear-gradient);
      }

      .cls-57 {
        fill: #606475;
      }

      .cls-58 {
        font-family: OpenSansRoman-Light, 'Open Sans';
        font-size: 62.41px;
        font-variation-settings: 'wght' 300, 'wdth' 100;
        font-weight: 300;
      }

      .cls-58, .cls-59 {
        fill: #231f20;
      }

      .cls-60 {
        fill: #323332;
      }

      .cls-61 {
        fill: #00a3a3;
      }

      .cls-62 {
        fill: #4a4d5a;
      }

      .cls-63 {
        fill: #daebc8;
      }

      .cls-64 {
        fill: #c6c6c6;
      }

      .cls-65 {
        fill: #2fbaba;
      }

      .cls-66 {
        fill: url(#linear-gradient-4);
      }

      .cls-67 {
        fill: #b2b4da;
      }

      .cls-68 {
        fill: #f2f2f2;
      }

      .cls-69 {
        fill: url(#linear-gradient-8);
      }

      .cls-70 {
        fill: url(#linear-gradient-12);
      }

      .cls-71 {
        fill: url(#linear-gradient-13);
      }

      .cls-72 {
        fill: #e0e0df;
      }
    </style>
    <linearGradient id="linear-gradient" x1="229.14" y1="864.16" x2="453.18" y2="81.74" gradientUnits="userSpaceOnUse">
      <stop offset="0" stop-color="#00a3b2"/>
      <stop offset="1" stop-color="#fff" stop-opacity="0"/>
    </linearGradient>
    <linearGradient id="linear-gradient-2" x1="475.34" y1="934.66" x2="699.39" y2="152.24" xlink:href="#linear-gradient"/>
    <linearGradient id="linear-gradient-3" x1="221.94" y1="862.1" x2="445.98" y2="79.68" xlink:href="#linear-gradient"/>
    <linearGradient id="linear-gradient-4" x1="355.14" y1="767.8" x2="534.22" y2="142.38" xlink:href="#linear-gradient"/>
    <linearGradient id="linear-gradient-5" x1="483.47" y1="936.99" x2="707.51" y2="154.57" xlink:href="#linear-gradient"/>
    <linearGradient id="linear-gradient-6" x1="698.97" y1="998.7" x2="923.01" y2="216.28" xlink:href="#linear-gradient"/>
    <linearGradient id="linear-gradient-7" x1="601.69" y1="970.84" x2="825.73" y2="188.42" xlink:href="#linear-gradient"/>
    <linearGradient id="linear-gradient-8" x1="739.01" y1="1010.16" x2="963.05" y2="227.74" xlink:href="#linear-gradient"/>
    <linearGradient id="linear-gradient-9" x1="103.96" y1="828.32" x2="328" y2="45.9" xlink:href="#linear-gradient"/>
    <linearGradient id="linear-gradient-10" x1="133.4" y1="836.75" x2="357.45" y2="54.33" xlink:href="#linear-gradient"/>
    <linearGradient id="linear-gradient-11" x1="568.64" y1="787.59" x2="605.61" y2="787.59" gradientUnits="userSpaceOnUse">
      <stop offset="0" stop-color="#000"/>
      <stop offset="1" stop-color="#646363"/>
    </linearGradient>
    <linearGradient id="linear-gradient-12" x1="604.38" y1="823.39" x2="614.59" y2="823.39" xlink:href="#linear-gradient-11"/>
    <linearGradient id="linear-gradient-13" x1="568.83" y1="806.83" x2="607.51" y2="806.83" xlink:href="#linear-gradient-11"/>
    <linearGradient id="linear-gradient-14" x1="598.53" y1="809.63" x2="614.59" y2="809.63" xlink:href="#linear-gradient-11"/>
    <linearGradient id="linear-gradient-15" x1="-8420.09" y1="1783.34" x2="-8382.09" y2="1783.34" gradientTransform="translate(-7979.32 640.08) rotate(168.66) scale(1 -1)" gradientUnits="userSpaceOnUse">
      <stop offset="0" stop-color="#000"/>
      <stop offset="1" stop-color="#535252"/>
    </linearGradient>
    <linearGradient id="linear-gradient-16" x1="698.46" y1="930.94" x2="778.85" y2="930.94" gradientUnits="userSpaceOnUse">
      <stop offset="0" stop-color="#9da6bf"/>
      <stop offset="1" stop-color="#5b6082"/>
    </linearGradient>
    <linearGradient id="linear-gradient-17" x1="730.97" y1="949.82" x2="811.36" y2="949.82" xlink:href="#linear-gradient-16"/>
  </defs>
  <g>
    <path class="cls-56" d="m435.94,348.53l-148.77-85.89c-5.16-2.98-9.39.21-9.39,7.1v167.23c0,6.88,4.22,14.95,9.39,17.93l148.77,85.89c5.16,2.98,9.39-.21,9.39-7.1v-167.23c0-6.88-4.22-14.95-9.39-17.93Z"/>
    <path class="cls-3" d="m742.53,385.93l-270.43-156.14c-5.16-2.98-9.39.21-9.39,7.1v306.83c0,6.88,4.22,14.95,9.39,17.93l270.43,156.14c5.16,2.98,9.39-.21,9.39-7.1v-306.83c0-6.88-4.22-14.95-9.39-17.93Z"/>
    <path class="cls-54" d="m355.65,174.93l80.3,46.36c5.16,2.98,9.39,11.05,9.39,17.93v88.65c0,6.88-4.22,10.08-9.39,7.1l-80.3-46.36c-5.16-2.98-9.39-11.05-9.39-17.93v-88.65c0-6.88,4.22-10.08,9.39-7.1Z"/>
    <path class="cls-66" d="m455.34,22.22l148.37,85.66c4.13,2.38,7.5,8.83,7.5,14.33v167.47c0,5.5-3.38,8.05-7.5,5.67l-148.37-85.66c-4.13-2.38-7.5-8.83-7.5-14.33V27.89c0-5.5,3.38-8.05,7.5-5.67Z"/>
    <path class="cls-40" d="m718.89,235.07l-89.68-51.78c-5.16-2.98-9.39.21-9.39,7.1v99.42c0,6.88,4.22,14.95,9.39,17.93l89.68,51.78c5.16,2.98,9.39-.21,9.39-7.1v-99.42c0-6.88-4.22-14.95-9.39-17.93Z"/>
    <path class="cls-16" d="m897.47,638.82l-123.66-71.39c-5.16-2.98-9.39-11.05-9.39-17.93v-138.41c0-6.88,4.22-10.08,9.39-7.1l123.66,71.39c5.16,2.98,9.39,11.05,9.39,17.93v138.41c0,6.88-4.22,10.08-9.39,7.1Z"/>
    <path class="cls-45" d="m803.71,328.71l-50.75-29.3c-5.16-2.98-9.39.21-9.39,7.1v54.75c0,6.88,4.22,14.95,9.39,17.93l50.75,29.3c5.16,2.98,9.39-.21,9.39-7.1v-54.75c0-6.88-4.22-14.95-9.39-17.93Z"/>
    <path class="cls-69" d="m885.74,800.47l-111.93-64.62c-5.16-2.98-9.39-11.05-9.39-17.93v-124.95c0-6.88,4.22-10.08,9.39-7.1l111.93,64.62c5.16,2.98,9.39,11.05,9.39,17.93v124.95c0,6.88-4.22,10.08-9.39,7.1Z"/>
    <path class="cls-52" d="m205.14,324.56l53.53,30.91c5.16,2.98,9.39,11.05,9.39,17.93v57.94c0,6.88-4.22,10.08-9.39,7.1l-53.53-30.91c-5.16-2.98-9.39-11.05-9.39-17.93v-57.94c0-6.88,4.22-10.08,9.39-7.1Z"/>
    <path class="cls-28" d="m287.17,179.27l42.06,24.28c5.16,2.98,9.39,11.05,9.39,17.93v44.78c0,6.88-4.22,10.08-9.39,7.1l-42.06-24.28c-5.16-2.98-9.39-11.05-9.39-17.93v-44.78c0-6.88,4.22-10.08,9.39-7.1Z"/>
  </g>
  <g>
    <g>
      <path class="cls-25" d="m416.3,763.13h.01c4.09-2.32,4.31-6.09.49-8.59-.16-.11-.33-.21-.5-.31-1.92-1.11-4.43-1.76-7.14-1.84-2.98-.09-5.83.51-8,1.68-4.33,2.34-4.52,6.3-.45,8.84,2,1.24,4.83,1.97,7.79,2,2.96.04,5.73-.6,7.79-1.79Z"/>
      <path class="cls-25" d="m324.36,716.87c-.48.46-.9.95-1.24,1.47-1.84,2.8-1.1,5.83,1.88,8.23-.65.65-1.17,1.34-1.52,2.09-.95,2.01-.63,4.07.81,5.9-1.3,1.14-2.13,2.44-2.38,3.82-.48,2.63,1.16,5.25,4.51,7.19,3.76,2.18,7.53,4.35,11.29,6.52-6.6.51-12.41,2.27-16.96,5.19-4.9,3.14-7.37,7.06-7.13,11.33,0,.05.01.1.02.15l60.05,34.67c-.22-1.15-.94-2.28-2.18-3.31-.51-.42-1.16-.81-1.9-1.23-12.08-6.98-24.18-13.96-36.26-20.94l-.97-.56c-1.58-.9-3.2-1.84-4.69-2.83-2.4-1.59-3.68-3.56-3.81-5.84-.15-2.61,1.29-4.9,4.27-6.81,3.26-2.09,7.42-3.18,12.35-3.22,3.56-.03,6.86.55,9.81,1.72.77.31,1.47.64,2.07.98,3.94,2.26,7.85,4.52,11.77,6.79,2.79,1.62,3.41,4.2,1.46,6.13-2.1,2.08-6.03,3.06-10.01,2.49-1.63-.24-3.08-.74-4.55-1.58-3.45-1.97-6.94-3.99-10.3-5.94l-.52-.3c-1.67-.97-1.76-2.34-.21-3.26.77-.46,1.75-.71,2.78-.72,1.09,0,2.17.28,3.06.79h0s8.57,4.95,8.57,4.95h0c.27.16.54.31.81.47.57.32,1.16.66,1.72,1.01.47.29,1.22.2,1.5.06.63-.32.4-.67.09-.92-.09-.07-.19-.13-.3-.2l-3.69-2.13c-2.34-1.35-4.68-2.7-7.02-4.06l-.03-.02c-2.13-1.23-4.51-1.78-7.27-1.69-2.77.09-5.26.88-6.84,2.17-1.59,1.3-2.06,2.93-1.29,4.48.44.89,1.33,1.69,2.79,2.54,5.53,3.18,11.04,6.36,16.56,9.54l5.6,3.23,35.86-20.71s-.09-.09-.13-.14c-.46-.48-.93-.97-1.31-1.49-2.36-3.22-2.12-6.38.71-9.39,3.84-4.1,11.43-6.24,19.32-5.47,7.25.71,12.38,3.21,14.82,7.21,2.71,4.44.13,9.32-6.41,12.14-6.04,2.6-14.16,2.84-20.7.6l-.63-.22s-.03-.01-.05-.02l-.07.04-35.8,20.67c.7.4,1.37.79,2.05,1.18.43.25.86.5,1.29.75,1.12.65,2.24,1.29,3.36,1.94,2.13,1.22,4.25,2.44,6.37,3.67,5.42,3.16,7.21,7.54,5.04,11.52l10.84,6.26c.56.02,1.12.04,1.69.03,10.36-.18,18.87-3.12,23.94-8.28,1.74-1.77,2.83-3.67,3.3-5.61l10.67,6.16.11.06c.11.06.24.14.4.23.27.16.61.34,1.01.54,5.16,2.58,12.65,2.84,18.18.72.58.15,1.17.28,1.77.39,4.21.75,8.52.43,12.06-.77,3.19,1.31,7.17,1.89,11.07,1.55,2.04-.18,3.97-.6,5.69-1.21,6.11,3.04,14.95,2.95,20.64-.32,2.91-1.67,4.5-3.87,4.49-6.19,0-2.34-1.65-4.58-4.63-6.3-2.87-1.66-5.75-3.32-8.63-4.98l-14.76-8.52-4.26-2.46-8.29-4.77c-1.04-.6-2.09-1.2-3.13-1.8-5.31-3.06-10.62-6.11-15.93-9.16-2.19-1.26-4.8-2.16-7.62-2.66.47-2.5,0-5.09-1.53-7.59-3.83-6.28-12.21-10.36-23.58-11.48-2.76-.27-5.5-.32-8.15-.16-.85-1.56-2.33-3.01-4.4-4.23-2.5-1.48-4.95-2.9-7.01-4.09-3.84-2.22-7.68-4.44-11.52-6.65h0s-12.18-7.04-12.18-7.04l-11.14-6.44c-4.42-2.55-8.83-5.11-13.27-7.65-2.05-1.18-4.72-2.04-7.52-2.44-6.78-.97-13.91.96-16.96,4.58-2.72,3.22-1.81,6.95,2.27,9.67Zm67.59,90.72c-1.36.02-2.57-.26-3.38-.73-.62-.36-1.01-.83-1.08-1.36-.08-.67.27-1.28,1-1.73.76-.47,1.89-.74,3.17-.74,1.55,0,2.97-.2,4.34-.6,4.11-1.2,5.93-4.38,3.91-6.81-.72-.86-1.87-1.53-3.1-2.24-2.12-1.24-4.26-2.47-6.39-3.69-1.09-.63-2.18-1.26-3.28-1.89h0c-.69-.4-1.04-.45-1.46-.39-.38.05-.67.21-.79.43-.05.1-.13.35.22.57.5.32,1.04.62,1.6.94.23.13.46.26.69.39l2.89,1.67c2.05,1.18,4.11,2.37,6.15,3.56,1.02.59,1.45,1.4,1.16,2.16-.29.75-1.25,1.36-2.57,1.64-1.44.3-2.9.11-4.01-.51-1.58-.89-3.13-1.79-4.69-2.7-.67-.39-1.35-.78-2.02-1.17l-.04-.02-1.02-.59c-.92-.54-1.88-1.09-2.83-1.62-2.61-1.45-3.71-2.98-3.37-4.69.42-2.1,2.41-3.58,5.77-4.29,3.4-.72,6.71-.32,9.31,1.14,1.41.78,2.8,1.59,4.15,2.38.61.36,1.21.7,1.84,1.07l1.75,1.01,3.85,2.22c5.33,3.08,6.5,7.84,2.84,11.57-3.17,3.23-8.08,4.92-14.58,5.03Zm47.13-5.3c-.14-.07-.28-.15-.41-.22-.09-.05-.18-.1-.26-.16l-.24-.14-15.93-9.2-4.11-2.38c-4.11-2.37-8.23-4.75-12.34-7.13-1.24-.72-1.6-1.62-.98-2.49.7-.97,2.22-1.51,3.87-1.4.94.06,1.87.3,2.48.64,1.99,1.09,3.95,2.22,5.86,3.33l.79.46c8.62,4.97,17.24,9.95,25.86,14.93.51.29,1.08.65,1.47,1.09.89.98.39,2.08-1.26,2.81-1.34.59-3.44.53-4.79-.14Zm15.89-.2c-.61-.11-1.22-.33-1.72-.61-2.49-1.43-4.97-2.87-7.45-4.3l-2.89-1.68c-1.43-.83-2.86-1.66-4.3-2.48l-1.93-1.09-4.42-2.56c-3.94-2.28-8.01-4.63-12.05-6.93h-.02c-1.03-.6-1.42-1.48-1.02-2.29.39-.79,1.47-1.38,2.89-1.56,1.36-.18,2.63.05,3.66.65h0c1.55.9,3.1,1.8,4.66,2.7,1.22.7,2.43,1.4,3.65,2.1l5.96,3.45c2.83,1.64,5.66,3.28,8.49,4.92,1.86,1.08,3.74,2.16,5.61,3.23,1.57.9,3.13,1.8,4.7,2.7h0c1.32.76,1.61,1.9.69,2.76-1,.94-2.73,1.33-4.53,1.01Zm18.15.57c-1.23.11-2.45-.13-3.35-.65-2.77-1.59-5.53-3.19-8.3-4.79l-9.56-5.52-.97-.55-5.07-2.93-13.53-7.81c-1.1-.64-1.58-1.45-1.3-2.23.25-.73,1.14-1.32,2.43-1.62,1.27-.29,2.57-.2,3.68.27.29.12.57.27.88.44,5.4,3.11,10.79,6.23,16.18,9.34l20.71,11.96c1.61.93,1.97,1.9,1.07,2.9-.59.65-1.63,1.08-2.86,1.18Zm-49.46-32.27c1.43-.66,2.88-1.44,4.45-2.41,1.34-.82,3.11-1.28,4.97-1.3,1.87-.01,3.67.42,5.08,1.23,5.31,3.05,10.62,6.1,15.92,9.15,2.63,1.52,5.26,3.03,7.89,4.55l2.55,1.47.97.54,4.26,2.46,14.6,8.43c2.93,1.69,5.86,3.38,8.78,5.07.84.49,1.3,1.06,1.32,1.67.03.61-.41,1.2-1.22,1.67-1.62.93-3.96.88-5.7-.13l-53.99-31.16c-.06-.05-.17-.1-.25-.15-.09.06-.18.12-.29.18-2.74,1.71-6.02,3.12-9.75,4.18-4.21,1.21-8.77,1.87-13.55,1.97-5.59.12-11.03-.57-16.18-2.04-.48-.14-.9-.31-1.24-.51-.99-.57-1.4-1.36-1.03-2.14.5-1.07,2.14-1.77,4-1.7.78.03,1.49.21,1.96.34,5.22,1.46,10.77,1.86,16.5,1.2,3.81-.44,7.15-1.31,9.94-2.6Zm-89.99-46.94h0c-1.24-.72-1.59-1.61-1-2.51.52-.79,1.69-1.31,3.21-1.42,1.26-.09,2.4.17,3.48.79h0c2.18,1.27,4.36,2.53,6.55,3.79l3.11,1.8,20.48,11.83,1.98,1.14c1.71.99,3.42,1.97,5.12,2.96,1.64.96,1.73,2.32.2,3.23-.77.46-1.77.71-2.82.71-1.05,0-2.06-.25-2.85-.7-2.61-1.5-5.22-3.01-7.82-4.51l-3.05-1.76-7.94-4.59-4.46-2.58c-4.73-2.73-9.46-5.46-14.2-8.19Zm.76,9.45c-1.08-.62-1.47-1.42-1.08-2.23.4-.86,1.47-1.43,3.01-1.62,1.35-.16,2.59.07,3.69.71h.01c2.35,1.37,4.71,2.73,7.06,4.09l8.13,4.7c5.9,3.41,11.81,6.82,17.71,10.23.97.56,1.41,1.29,1.22,2.02-.19.71-.96,1.31-2.11,1.65-1.57.47-3.31.28-4.66-.5-4.96-2.86-9.91-5.72-14.86-8.58l-5.65-3.26c-4.15-2.4-8.3-4.8-12.46-7.19h0Zm34.69,28.12c-1.03,0-1.96-.25-2.83-.75h0c-4.24-2.46-8.49-4.91-12.74-7.36l-8.07-4.66c-4.03-2.33-8.07-4.66-12.1-6.99-.94-.54-1.39-1.22-1.27-1.91.13-.68.8-1.28,1.91-1.69,1.49-.55,3.56-.38,4.91.4h0s32.85,18.97,32.85,18.97c1.64.95,1.48,1.9,1.06,2.54-.6.91-2,1.45-3.73,1.44Zm-33.63-51.85c.83.12,1.65.39,2.27.74,4.46,2.56,8.9,5.13,13.34,7.69l11.04,6.38,4.23,2.44h0s4.81,2.78,4.81,2.78c4.89,2.82,9.77,5.64,14.66,8.46,2.05,1.19,4.48,2.59,6.92,4.04,1.33.79,2.04,1.8,2,2.85-.04,1.04-.81,2.01-2.18,2.75-2.09,1.12-4.23,2.37-5.71,3.87-2.49,2.52-3.67,5.03-3.59,7.68.07,2.26.99,4.45,2.81,6.68.95,1.16.17,2.42-1.84,3-1.5.43-3.26.23-4.42-.44-.28-.16-.53-.35-.73-.57-1.7-1.83-2.82-3.85-3.36-6.02-.6-2.44-.4-4.89.58-7.29,1.48-3.61,4.66-6.8,9.43-9.47.21-.12.42-.23.63-.33l-40.13-23.18c-2.91-1.68-5.81-3.35-8.72-5.03l-5.4-3.11h0c-1.38-.8-1.72-1.81-.91-2.76.77-.91,2.56-1.4,4.25-1.16Z"/>
      <polygon class="cls-25" points="258.51 838.74 270.34 845.57 275.56 842.56 263.73 835.73 258.51 838.74"/>
      <polygon class="cls-25" points="279.39 826.69 284.61 823.67 272.77 816.84 267.56 819.85 262.34 822.87 274.17 829.7 279.39 826.69"/>
      <polygon class="cls-25" points="291.22 833.52 286 836.53 297.83 843.36 303.05 840.35 308.27 837.34 296.44 830.5 291.22 833.52"/>
      <polygon class="cls-25" points="332.98 809.41 321.14 802.58 309.31 795.75 297.48 788.91 292.26 791.93 287.04 794.94 281.82 797.96 276.6 800.97 271.38 803.98 266.16 807 277.99 813.83 283.21 810.81 295.05 817.65 300.27 814.63 312.1 821.46 317.32 818.45 305.49 811.62 293.65 804.79 298.87 801.77 310.71 808.61 315.92 805.59 327.76 812.42 322.54 815.44 317.32 818.45 329.15 825.28 323.93 828.3 312.1 821.46 306.88 824.48 318.71 831.31 313.49 834.32 325.33 841.15 330.54 838.14 335.76 835.13 340.98 832.11 346.2 829.1 351.42 826.09 356.64 823.07 344.81 816.24 332.98 809.41"/>
      <path class="cls-25" d="m314.53,792.73l11.83,6.83,5.22-3.01,5.22-3.01-11.83-6.83-11.83-6.83-9.58-5.53,9.89-5.71-45.67-26.37c-2.09-1.21-6.01-.9-8.75.68s-3.27,3.85-1.18,5.05l43.41,25.07-5.17,2.99-5.22,3.01-5.22,3.01,11.83,6.83,5.22-3.01,11.83,6.83Z"/>
      <path class="cls-25" d="m437.44,840.22l-45.67-26.37-9.89,5.71-9.58-5.53-5.22,3.01-11.83-6.83,5.22-3.01-11.83-6.83-5.22,3.01-5.22,3.01,11.83,6.83,11.83,6.83-5.22,3.01,11.83,6.83,5.22-3.01,5.22-3.01,5.17-2.99,43.41,25.07c2.09,1.21,6.01.9,8.75-.68,2.74-1.58,3.27-3.85,1.18-5.05Z"/>
    </g>
    <g>
      <path class="cls-25" d="m534.17,777.62l-14.64-8.45-11.67,6.74,14.64,8.45c9.52,5.5,9.57,14.42.11,19.88l-14.55,8.4,11.74,6.78,14.55-8.4c15.9-9.18,15.82-24.16-.18-33.4Z"/>
      <path class="cls-25" d="m317.94,686.07l-14.55,8.4,11.74,6.78,14.55-8.4c9.46-5.46,24.91-5.44,34.43.06l14.64,8.45,11.67-6.74-14.64-8.45c-16-9.24-41.95-9.28-57.85-.1Z"/>
      <path class="cls-25" d="m365.21,895.11c-9.46,5.46-24.91,5.44-34.43-.06l-14.64-8.45-11.67,6.74,14.64,8.45c16,9.24,41.95,9.28,57.85.1l14.55-8.4-11.74-6.78-14.55,8.4Z"/>
      <path class="cls-25" d="m172.29,783.72l14.55-8.4-11.74-6.78-14.55,8.4c-15.9,9.18-15.82,24.16.18,33.4l14.64,8.45,11.67-6.74-14.64-8.45c-9.52-5.5-9.57-14.42-.11-19.88Z"/>
    </g>
  </g>
  <path class="cls-2" d="m641.08,217.55v1.66c0,7.73,0,15.47,0,23.2,0,2.73-.94,3.99-2.85,3.74-2.03-.27-3.7-1.88-5.21-4.5-7.96-13.77-15.95-27.51-23.9-41.28-.92-1.59-1.81-2.59-3.15-3.36-16.43-9.43-142.16-82.04-158.59-91.52-8.81-5.09-14.46-14.85-14.46-24.97,0-23.31,0-46.61,0-69.92,0-10.1,5.67-13.31,14.5-8.21,29.3,16.91,167.9,96.94,197.2,113.85,8.75,5.05,14.44,14.82,14.44,24.82,0,23.58.01,47.16,0,70.72,0,7.53-4.04,11.45-10.21,9.49-2.43-.77-5.01-2.38-7.76-3.72Z"/>
  <g>
    <path class="cls-27" d="m723.61,501.28c-.22-10.73-3.96-22.13-11.02-33.4-5.6-10.41-12.61-18.3-20.93-24.3-12.12-8.76-24.28-14.85-36.41-21.87-101.26-58.57-202.53-117.01-303.79-175.42-9.64-5.56-18.9-8.99-26.71-6.25-1.24.44-2.65.6-3.32,2-9.21,5.23-11.32,17.2-11.3,31.5.11,82.73.03,165.35.08,248.05,0,12.17,2.64,24.92,10.29,38.38,6.72,12.94,15.57,22.03,25.63,28.87,1.17.79,2.35,1.4,3.52,2.08,111.62,64.45,223.24,128.89,334.87,193.33,10.92,6.3,20.65,8.54,28.15,3.16,8.45-3.98,11.2-13.76,11.19-26.46-.03-67.01,0-133.98-.02-200.98,0-19.53.17-38.95-.23-58.7Zm-150.24,46.95h0c.66,1.04,1.33,2.07,1.99,3.11-.66-1.04-1.34-2.07-1.99-3.11Z"/>
    <g>
      <path class="cls-61" d="m707.66,513.73c-.22-10.73-3.96-22.13-11.02-33.4-1.09.48-2.24.87-3.27,1.46-44.33,25.25-88.66,50.52-132.96,75.82-1.21.69-2.87.83-2.98,3.07-2.04-1.11-2.98.28-4.19.96-8.74,4.92-17.74,9.44-26.09,14.99-13.16,8.74-39.4-6.85-52.14-30-9.95-18.08-20.78-35.72-31.21-53.56-.76-1.45-1.47-2.94-2.29-4.36-44.45-76.69-88.92-153.38-133.39-230.07-.82-1.42-1.76-2.77-2.64-4.16-9.21,5.23-11.32,17.2-11.3,31.5.11,82.73.03,165.35.08,248.05,0,12.17,2.64,24.92,10.29,38.38,6.72,12.94,15.57,22.03,25.63,28.87,1.17.79,2.35,1.4,3.52,2.08,111.62,64.45,223.24,128.89,334.87,193.33,10.92,6.3,20.65,8.54,28.15,3.16,8.45-3.98,11.2-13.76,11.19-26.46-.03-67.01,0-133.98-.02-200.98,0-19.53.17-38.95-.23-58.7Z"/>
      <path class="cls-27" d="m695.71,479.11c-5.6-10.41-12.61-4.59-20.93-10.6-12.12-8.76-24.28-14.85-36.41-21.87-101.26-58.57-202.53-117.01-303.79-175.42-9.64-5.56-20.5-20-28.3-17.25-1.24.44.42-2.4,1.92,3.05.88,1.38,1.82,2.74,2.64,4.16,44.47,76.68,85.28,163.32,129.73,240.02.82,1.42,1.53,2.9,2.29,4.36,10.44,17.84,21.27,35.49,31.21,53.56,12.74,23.15,38.98,38.74,52.14,30,8.36-5.55,17.35-10.07,26.1-14.99,1.21-.68,3.54-1.87,3.54-1.87,0,0,2.42-1.47,3.63-2.16,44.31-25.3,88.63-64.27,132.96-89.53,1.03-.59,2.18-.98,3.27-1.46Z"/>
      <path class="cls-35" d="m696.64,480.33c-5.6-10.41-12.61-18.3-20.93-24.3-12.12-8.76-24.28-14.85-36.41-21.87-101.26-58.57-202.53-117.01-303.79-175.42-9.64-5.56-18.9-8.99-26.71-6.25-1.24.44-2.65.6-3.32,2,.88,1.38,1.82,2.74,2.64,4.16,44.47,76.68,88.93,153.37,133.39,230.07.82,1.42,1.53,2.9,2.29,4.36,10.44,17.84,21.27,35.49,31.21,53.56,12.74,23.15,38.98,38.74,52.14,30,8.36-5.55,17.35-10.07,26.1-14.99,1.21-.68,3.73-1.95,3.73-1.95,0,0,2.24-1.39,3.45-2.08,44.31-25.3,88.63-50.57,132.96-75.82,1.03-.59,2.18-.98,3.27-1.46Z"/>
    </g>
  </g>
  <g>
    <path class="cls-63" d="m609.08,401c3.62,3.62,7.34,7.12,11.45,10.2,4.01,3.01,8.2,5.79,12.88,7.56,3.94,1.5,8.09,2.69,12.43,1.39-.53,3-1.81,5.69-3.51,8.19-2.26,3.31-5.79,4.13-9.4,4.71-7.43,1.2-14.95,1.47-22.45,1.99-4.51.31-9.03.54-13.51,1.24-2.56.4-2.9.8-2.96,3.33-.14,5.94.39,11.84.75,17.77.55,9.02,1.34,18.03,1.33,27.07,0,5.75-.27,11.49-1.69,17.11-.78.94-1,2.21-1.95,3.07-3.4,3.09-8.98,5.74-14.53,2.06-3.32-2.88-3.44-6.96-3.94-10.85-.81-6.36-1.5-12.73-2.24-19.09-.01-.11,0-.21,0-.32.01-.84-.19-1.64-.46-2.43,0-3.91-.79-7.75-1.06-11.64-.02-.23-.27-.44-.42-.66.24-.78.26-1.57.19-2.39-.23-2.39-.42-4.79-.56-7.19-.36-5.76-.78-11.53-.55-17.31.11-2.86.31-5.61,2.04-8.12.8-1.17,1.66-2.36,2.26-3.69,2.99-3.41,5.92-6.87,9.38-9.82.37-.02.57-.24.65-.59,2.54-1.77,4.96-3.7,7.67-5.27,5.23-3.04,10.72-5.05,16.74-5.65.53-.05,1.25.13,1.48-.67Z"/>
    <path class="cls-49" d="m609.08,401c-.23.8-.95.62-1.48.67-6.02.6-11.51,2.62-16.74,5.65-2.71,1.57-5.12,3.5-7.67,5.27-.22-.03-.44-.07-.66-.1-2.38-.41-4.75-.86-7.14-1.21-2.07-.3-3.64,1.17-3.4,3.19.34,2.85.78,5.68,1.17,8.52-.6,1.32-1.46,2.51-2.26,3.69-1.72,2.5-1.92,5.26-2.04,8.12-.23,5.79.2,11.55.55,17.31.15,2.4.34,4.8.56,7.19.08.82.05,1.6-.19,2.39-1.56.56-3.12.57-4.74.14-1.94-.51-3.62-1.55-5.38-2.42-4.56-2.84-5.53-7.55-6.54-12.31-.97-4.59-1.71-9.2-2.27-13.85-1.06-8.83-1.7-17.7-1.73-26.6-.01-3.06-.08-6.16.51-9.21,0-.47.09-.79.17-1.28.12-.97.23-1.94.35-2.91.11-.52.24-1.16.39-1.89.21-.62.42-1.24.64-1.86-.04-.23-.02-.35.16-.62,2.72-2.91,6.45-3.24,10.03-3.77,6.4-.94,12.86-.88,19.31-.74,6.12.13,12.24.3,18.33.99.29.2.77.09.84.61.67,4.58,3.59,7.94,6.23,11.44.94,1.24,1.99,2.39,2.99,3.59Z"/>
    <path class="cls-34" d="m681.47,407.65c-1.82-11.01-4.78-21.84-4.44-33.18.17-5.9-.72-11.8-1.35-17.68-.94-8.72-1.92-17.43-2.88-26.15-.04-.4-.14-.74-.45-1,.15-.57-.1-1.03-.34-1.53-2.5-5.05-6.53-8.76-10.75-12.29-1.81,2.51-4.47,3.98-7.01,5.54-3.15,1.93-6.55,3.14-10.35,3-6.55-.24-12.32-6.78-11.09-13.31.45-2.37.86-4.76,1.78-7.01-.48-2.09-.65-4.19-.1-6.3-4.33-1.73-8.69-1.98-13.23-.67-3.79,1.1-6.77,2.94-8.14,6.81-.8,2.27-1.63,4.54-2.1,6.91.33.39.16.82.08,1.23-.54,2.55-.86,5.12-1.06,7.69.2-2.57.52-5.14,1.06-7.69.09-.41.26-.84-.08-1.23-.97,1.16-1.54,2.56-2.29,3.86-3.66,6.4-7.55,12.7-10.91,19.26-2.64,5.15-6.15,9.42-10.44,13.18-6.19,5.43-12.48,10.75-18.21,16.68-1.49,1.54-3.13,2.99-3.82,5.13-.02.11-.04.22-.06.33.67,2.68,2.16,4.8,4.39,6.4.28.2.45.44.42.8.63.15,1.25.3,1.8.69,1.23.87,2.36.56,3.55-.18,5.52-3.45,10.65-7.46,15.66-11.59,5.86-4.83,11.94-9.27,18.64-12.86-1.02,5.6-2.58,11.04-4.3,16.47-1.29,4.07-2.61,8.14-3.95,12.2-.5,1.53-.67,3.38-2.47,4.18.29.2.77.09.84.61.67,4.58,3.58,7.94,6.23,11.44.94,1.24,1.99,2.39,2.99,3.59,3.62,3.62,7.34,7.12,11.45,10.2,4.01,3.01,8.2,5.79,12.88,7.56,3.94,1.5,8.09,2.69,12.43,1.39,2.18-2.22,3.23-5.04,3.9-7.96,1.12-4.87,2.07-9.78,2.44-14.78.27-3.68.86-7.35,1.17-11.03.44-5.24.79-10.48,1.95-15.63,1.8,2.32,2.76,4.94,2.95,7.87.17,2.68.38,5.36.66,8.03,1.03,9.68,2.32,19.33,4.2,28.88.82,4.19,1.4,8.51,3.74,12.27,1.4.27,2.11,1.57,3.33,2.18,2.82,1.4,5.57,1.85,8.48.34.55-.28,1.14-.66,1.84-.43.1-.25.14-.59.32-.72,1.93-1.43,2.04-3.57,2.17-5.66.36-5.36-.65-10.6-1.52-15.85Z"/>
    <path class="cls-36" d="m577.92,506.69c5.55,3.68,11.13,1.03,14.53-2.06.94-.86,1.17-2.13,1.95-3.07,1.95,3.32,3.35,6.83,3.74,10.69-.4.35-.79.72-1.2,1.06-2.53,2.09-5.25,3.83-8.67,3.81-1.23,0-2.33.2-3.41.73-5,2.47-9.95,5.02-15.01,7.37-2.46,1.14-4.84,2.54-7.51,3.18-1.21-2.58.08-4.75,1.14-6.97,1.26-2.64,4.01-3.66,6.01-5.5,3.09-2.84,6.32-5.54,8.44-9.25Z"/>
    <path class="cls-30" d="m653.87,309.74c-2.39,2.2-5.3,2.92-8.62,2.13-3.69-.88-6.79-2.86-9.42-5.58-.5,1.3-1.12,2.56-1.48,3.9-1.26,4.57.14,7.63,4.46,9.74,3.62,1.76,7.42,1.65,11.02.4,3.17-1.1,5.96-3.14,8.36-5.57.26-.27.54-.52.81-.78-.92-1.52-2.64-2.23-3.88-3.67,0,0,0,0,0,0-.46-.08-.81-.3-1.26-.56,0,0,0,0,0,0Z"/>
    <path class="cls-30" d="m666.84,427.8c1.4.27,2.11,1.57,3.33,2.18,2.82,1.4,5.57,1.85,8.48.34.55-.28,1.14-.66,1.84-.43.01.05.04.1.04.16.13,4.17,2.7,6.85,5.65,9.33,1.81,1.52,3.46,3.23,5,5.03,1.01,1.17.88,2.27-.47,3.07-1.56.93-3.31,1.3-5.11,1.29-.99,0-1.81-.56-2.47-1.35-1.49-1.76-3.03-3.49-4.56-5.22-.38-.43-.73-.94-1.55-.94-.01,1.25.79,2.18,1.21,3.21.63,1.54,1.41,3.01,2.08,4.54.22.5.69,1.18,0,1.58-.55.33-1.2-.08-1.57-.54-1.12-1.37-2.23-2.73-3.17-4.26-2.31-3.76-4.11-7.8-6.33-11.61-.77-1.33-1.65-1.47-2.94-.82-1.01.51-2.26,1.42-3.21.18-1.03-1.35.33-2.25,1.12-3.13.82-.92,1.74-1.75,2.61-2.62Z"/>
    <path class="cls-36" d="m559.67,459.42c1.76.88,3.44,1.92,5.38,2.42,1.62.42,3.17.42,4.74-.14.14.22.4.43.42.66.27,3.89,1.06,7.73,1.06,11.64-.99-.05-1.88.42-2.82.6-1.26.25-2.53.6-3.82.34-2.64-.54-5.21-.18-7.8.36-4.74.97-9.19,2.78-13.66,4.54-.25-2.4.85-4.15,2.73-5.44,2.26-1.55,4.49-3.18,6.9-4.49,4.23-2.29,6.66-5.63,6.87-10.49Z"/>
    <path class="cls-30" d="m565.29,369.25c.67,2.68,2.16,4.8,4.39,6.4.28.2.45.44.42.8-3.32,1.57-6.93,1.9-10.48,2.49-1.9.32-3.82.47-5.73.71-.31.04-.52-.02-.7-.39.75-.73,1.77-.75,2.73-.95.65-.13,1.27-.35,1.43-1.12.16-.77-.57-.86-.96-1.11-2.09-1.33-4.2-2.62-6.33-3.88-1.08-.64-2.06-1.39-2.97-2.23-.5-.46-1.02-1.06-.68-1.85.33-.76.98-.83,1.76-.78,4.26.3,8.59-.71,12.81.66,1.32.43,2.61,1.05,4.03,1.14.1.04.19.07.3.1Z"/>
    <path class="cls-29" d="m562.34,528.41c2.68-.64,5.05-2.04,7.51-3.18,5.05-2.35,10.01-4.9,15.01-7.37,1.07-.53,2.17-.74,3.41-.73,3.42.01,6.14-1.72,8.67-3.81.41-.34.8-.71,1.2-1.06,1.66,4.33-1.25,8.27-6.29,7.8-4.44-.42-7.9,1.29-11.4,3.45-3.93,2.43-7.91,4.77-12.33,6.26-1.24.42-2.53.53-3.8.61-1.19.07-2.07-.56-1.99-1.96Z"/>
    <path class="cls-22" d="m659,313.97c-.27.26-.55.52-.81.78-2.41,2.43-5.19,4.47-8.36,5.57-3.6,1.25-7.4,1.37-11.02-.4-4.32-2.11-5.72-5.17-4.46-9.74.37-1.33.98-2.6,1.48-3.9-.42-.75-.83-1.49-1.25-2.24-.92,2.26-1.33,4.64-1.78,7.01-1.24,6.53,4.54,13.07,11.09,13.31,3.8.14,7.2-1.08,10.35-3,2.54-1.56,5.2-3.03,7.01-5.54-.66-.73-1.36-1.4-2.25-1.86Z"/>
    <path class="cls-29" d="m543.17,479.84c4.47-1.76,8.93-3.57,13.66-4.54,2.59-.53,5.16-.9,7.8-.36,1.29.26,2.56-.09,3.82-.34.94-.19,1.83-.65,2.82-.6.27.79.48,1.59.46,2.43-1.45-.16-2.85.42-4.29.36-5.62-.24-10.46,2.43-15.58,4.09-1.99.65-3.98,1.29-6.07,1.57-2.29.31-2.75-.15-2.63-2.6Z"/>
    <path class="cls-48" d="m565.29,369.25c-.1-.02-.2-.06-.3-.1.12-.08.24-.16.36-.23-.02.11-.04.22-.06.33Z"/>
    <path class="cls-21" d="m633.97,312.35c-1.21-1.78-2.13-3.67-2.38-5.83-.33-1.11.17-2.2.09-3.3.32-.04.66-.17.96-.1,3.93.91,7.98,1.39,11.67,3.16,1.99.95,3.73.71,5.37-.75,1.11-.99,1.75-2.32,2.69-3.43.99-1.17,1.08-2.27.11-3.46-.85-1.03-.96-2.2-.77-3.49.19-1.32.25-2.67,0-4.01-.17-.89-.71-1.32-1.6-1.24-3.62.33-7.2-.19-10.8-.39-2.47-.14-4.87-.94-7.37-.82-1.51-.54-1.85-1.57-1.65-3.14.47-3.67,2.57-6.27,5.24-8.54,5.27-4.46,11.26-6.01,17.96-4.19,4.17,1.13,5.96,4.64,7.62,8.18.34.72.65,1.42.91,2.18.13.43.28.56.2.99.37,2.14.88,4.27,1.25,6.41.16.45.2,1.06.19,1.58-.22,1.15-.6,5.79-3.21,7.95-.52-.81-.58-1.85-1.29-2.57-.65-.66-1.29-1.39-2.33-1.17-1.07.22-1.55,1.06-1.84,2.04-.47,1.61-.47,3.21.37,4.69.49.86.58,1.7.31,2.61-.37,1.24-.7,2.49-1.13,3.7-1.31,3.68-3.94,5.83-7.78,6.36-3.76.52-7.36-.2-10.8-1.78-.66-.54-1.32-1.09-1.98-1.63Z"/>
    <path class="cls-30" d="m631.93,288.7c2.5-.12,4.89.68,7.37.82,3.6.21,7.18.72,10.8.39.89-.08,1.42.34,1.6,1.24.26,1.34.2,2.68,0,4.01-.19,1.29-.08,2.46.77,3.49.98,1.19.89,2.29-.11,3.46-.94,1.11-1.58,2.44-2.69,3.43-1.64,1.46-3.38,1.7-5.37.75-3.69-1.77-7.74-2.25-11.67-3.16-.3-.07-.64.06-.96.1-1.06-2.11-.81-4.38-.72-6.61.11-2.66.23-5.33.98-7.91Z"/>
    <path class="cls-30" d="m659.17,297.44c-.65-.66-1.29-1.39-2.33-1.17-1.07.22-1.55,1.06-1.84,2.04-.47,1.61-.47,3.21.37,4.69.49.86.58,1.7.31,2.61-.37,1.24-.7,2.49-1.13,3.7-.15.43-.33.84-.52,1.23.52.08.92.16,1.38.06,1.56-1.64,2.17-3.78,3.62-5.25,1.17-1.19,1.38-2.46,1.35-3.93-.01-.48-.18-.95.08-1.41-.52-.81-.58-1.85-1.29-2.57Z"/>
  </g>
  <path class="cls-25" d="m635.37,222.89c0,.51,0,1.08,0,1.66,0,7.73,0,15.47,0,23.2,0,2.73-.94,3.99-2.85,3.74-2.03-.27-3.7-1.88-5.21-4.5-7.96-13.77-15.95-27.51-23.9-41.28-.92-1.59-1.81-2.59-3.15-3.36-16.43-9.43-142.16-82.04-158.59-91.52-8.81-5.09-14.46-14.85-14.46-24.97,0-23.31,0-46.61,0-69.92,0-10.1,5.67-13.31,14.5-8.21,29.3,16.91,167.9,96.94,197.2,113.85,8.75,5.05,14.44,14.82,14.44,24.82,0,23.58.01,47.16,0,70.72,0,7.53-4.04,11.45-10.21,9.49-2.43-.77-5.01-2.38-7.76-3.72Z"/>
  <text class="cls-8" transform="translate(446.18 54.75) rotate(30) scale(1.01 .87) skewX(26.42)"><tspan x="0" y="0">Como podemos</tspan><tspan x="0" y="35">ajudá-lo(a)?</tspan></text>
  <g>
    <g>
      <polygon class="cls-47" points="415.06 577.7 415.06 569.96 422.65 574.34 422.65 582.08 415.06 577.7"/>
      <polygon class="cls-47" points="401.27 589.02 423.63 601.93 423.63 594.13 409.5 585.98 409.5 577.44 409.5 574.49 409.5 566.75 409.5 564.79 409.5 556.96 423.63 565.12 423.63 557.38 401.27 544.47 401.27 589.02"/>
      <path class="cls-47" d="m361.2,521.33l-11.21-6.47v44.55s7.36,4.25,7.36,4.25v-20.72c0-1.52-.04-3.25-.11-5.18s-.15-3.76-.23-5.48c-.08-1.72-.14-3.01-.17-3.86l.24.14,9.35,40.35,6.78,3.92-9.07-38.85-2.95-12.64Z"/>
      <path class="cls-47" d="m374.1,550.42l3.12,13.38,6.76-19.65.24.14c-.04.81-.09,2.03-.16,3.64-.07,1.62-.13,3.32-.17,5.13-.04,1.8-.07,3.41-.07,4.81v21.09s7.67,4.43,7.67,4.43v-44.55s-11.21-6.47-11.21-6.47l-6.19,18.06Z"/>
      <path class="cls-47" d="m454.52,577.7c-2.99-3.38-6.52-6.25-10.6-8.6l-12.19-7.04v44.55s8.23,4.75,8.23,4.75v-7.8s0-2.45,0-2.45v-26.56s4.38,2.53,4.38,2.53c2.41,1.39,4.43,3.07,6.07,5.03,1.64,1.96,2.88,4.25,3.72,6.85.84,2.61,1.26,5.56,1.26,8.85,0,4.86-.98,7.95-2.93,9.28-1.42.96-3.39.95-5.89,0v7.85c2.85,1.29,5.39,1.99,7.61,2.09,3.17.13,5.59-1,7.26-3.39,1.67-2.4,2.51-6.1,2.51-11.12,0-4.77-.82-9.26-2.47-13.45-1.65-4.19-3.97-7.98-6.96-11.36Z"/>
      <polygon class="cls-47" points="471.99 629.86 480.22 634.61 480.22 590.06 471.99 585.3 471.99 629.86"/>
      <text class="cls-58" transform="translate(483.86 636.67) rotate(30) scale(1.01 .87) skewX(26.42)"><tspan x="0" y="0">CODE</tspan></text>
    </g>
    <path class="cls-59" d="m633.78,690.89c-.84-.49-1.62-1.1-2.33-1.84-.71-.74-1.33-1.56-1.85-2.46-.52-.9-.93-1.84-1.21-2.82-.29-.98-.43-1.95-.43-2.92,0-.92.15-1.71.44-2.34s.7-1.11,1.23-1.42c.53-.3,1.15-.43,1.85-.36.71.06,1.47.33,2.3.81s1.56,1.06,2.26,1.8c.7.73,1.32,1.56,1.85,2.46.53.91.95,1.85,1.25,2.84s.45,1.96.45,2.93-.14,1.77-.43,2.42c-.29.65-.69,1.12-1.21,1.42-.52.3-1.14.4-1.85.32s-1.48-.36-2.33-.85Zm0-1.16c.65.38,1.26.59,1.83.65.57.06,1.07-.03,1.5-.27s.77-.63,1.01-1.16.36-1.2.36-2.01c0-.76-.12-1.54-.36-2.34-.24-.81-.57-1.59-.99-2.34-.43-.75-.92-1.44-1.49-2.06-.57-.62-1.19-1.12-1.86-1.51s-1.3-.62-1.88-.67c-.58-.06-1.08.03-1.5.28-.43.25-.76.64-1,1.18-.24.54-.36,1.21-.36,2.01s.12,1.61.35,2.42c.23.81.56,1.58.98,2.31s.92,1.4,1.5,2.01c.58.6,1.21,1.1,1.9,1.5Zm-2.25-2.83v-8.03s2.11,1.22,2.11,1.22c.86.5,1.49,1.07,1.9,1.72s.6,1.37.6,2.16c0,.57-.13.95-.38,1.14s-.54.26-.86.22l1.84,4.59-1.44-.83-1.51-3.93-.98-.57v3.05s-1.28-.74-1.28-.74Zm1.28-3.53l.79.46c.41.24.72.3.93.18.21-.12.31-.37.31-.75,0-.43-.09-.8-.28-1.1-.19-.3-.51-.58-.97-.85l-.77-.45v2.51Z"/>
  </g>
  <g>
    <g>
      <path class="cls-27" d="m70.79,268.61l12.78,303.94c0,9.14,4.84,17.58,12.72,22.17l64.42,45.69,57.89,41.07c9.82,5.73,32.04-11.08,32.04-22.46v-298.56c0-4.65-1.34-9.12-3.76-12.91-2.03-3.19-4.81-5.9-8.19-7.87l-141.11-82.26c-6.21-3.63-26.79,3.99-26.79,11.19Z"/>
      <path class="cls-31" d="m160.71,393.86v246.55l57.89,41.07c9.82,5.73,32.04-11.08,32.04-22.46v-298.56c0-4.65-1.34-9.12-3.76-12.91l-86.17,46.32Z"/>
      <path class="cls-65" d="m214.51,679.45l-132.18-77.04c-7.88-4.6-12.73-13.04-12.73-22.16v-307.09c0-7.19,7.8-11.67,14.01-8.05l141.12,82.26c7.4,4.31,11.94,12.23,11.94,20.79v298.57c0,11.37-12.34,18.46-22.16,12.73Z"/>
      <path class="cls-5" d="m221.91,673.22c3.13,0,6.5-2.49,6.5-6.5v-298.57c0-5.6-3-10.83-7.84-13.65l-141.12-82.26c-.24-.14-.41-.16-.52-.16-.21,0-1.07.19-1.07,1.07v307.09c0,6.16,3.31,11.92,8.63,15.02l132.18,77.04c1.03.6,2.12.9,3.24.9h0Z"/>
      <g>
        <path class="cls-2" d="m245.35,396.48l-105.45-61.47c-4-2.33-9.03.55-9.03,5.19v54.32c0,3.64,1.93,7,5.07,8.83l108.74,63.38c3.85,2.24,8.68-.53,8.68-4.99v-51.33c0-5.74-3.05-11.04-8.01-13.93Z"/>
        <path class="cls-25" d="m241.07,398.12l-105.45-61.47c-4-2.33-9.03.55-9.03,5.19v54.32c0,3.64,1.93,7,5.07,8.83l108.74,63.38c3.85,2.24,8.68-.53,8.68-4.99v-51.33c0-5.74-3.05-11.04-8.01-13.93Z"/>
        <g>
          <g>
            <path class="cls-23" d="m141.86,368.92l44.37,25.56c1.23.71,2.23.28,2.23-.94v-.61c0-1.23-1-2.81-2.23-3.51l-44.37-25.56c-1.23-.71-2.23-.28-2.23.94v.61c0,1.23,1,2.81,2.23,3.51Z"/>
            <path class="cls-23" d="m141.86,380.49l44.37,25.56c1.23.71,2.23.28,2.23-.94v-.61c0-1.23-1-2.81-2.23-3.51l-44.37-25.56c-1.23-.71-2.23-.28-2.23.94v.61c0,1.23,1,2.81,2.23,3.51Z"/>
            <path class="cls-23" d="m141.86,392.06l44.37,25.56c1.23.71,2.23.28,2.23-.94v-.61c0-1.23-1-2.81-2.23-3.51l-44.37-25.56c-1.23-.71-2.23-.28-2.23.94v.61c0,1.23,1,2.81,2.23,3.51Z"/>
          </g>
          <ellipse class="cls-26" cx="218.88" cy="422.3" rx="13.4" ry="21.98" transform="translate(-213.53 224.14) rotate(-37.98)"/>
          <path class="cls-2" d="m209.27,424.93c-.14-.73-.22-1.45-.22-2.14,0-4.38,2.96-6.2,6.98-4.78-1.82-2.07-3.07-4.73-3.07-6.91,0-3.09,2.51-4.03,5.6-2.09,3.09,1.94,5.6,6.02,5.6,9.11,0,2.18-1.25,3.28-3.07,3.06,4.02,3.63,6.98,9.16,6.98,13.54,0,.69-.08,1.31-.22,1.87l-18.59-11.66Z"/>
        </g>
      </g>
      <g>
        <path class="cls-51" d="m167.99,441.71l-105.45-61.47c-4-2.33-9.03.55-9.03,5.19v54.32c0,3.64,1.93,7,5.07,8.83l108.74,63.38c3.85,2.24,8.68-.53,8.68-4.99v-51.33c0-5.74-3.05-11.04-8.01-13.93Z"/>
        <path class="cls-63" d="m163.71,443.36l-105.45-61.47c-4-2.33-9.03.55-9.03,5.19v54.32c0,3.64,1.93,7,5.07,8.83l108.74,63.38c3.85,2.24,8.68-.53,8.68-4.99v-51.33c0-5.74-3.05-11.04-8.01-13.93Z"/>
        <g>
          <g>
            <path class="cls-23" d="m64.49,414.16l44.37,25.56c1.23.71,2.23.28,2.23-.94v-.61c0-1.23-1-2.81-2.23-3.51l-44.37-25.56c-1.23-.71-2.23-.28-2.23.94v.61c0,1.23,1,2.81,2.23,3.51Z"/>
            <path class="cls-23" d="m64.49,425.73l44.37,25.56c1.23.71,2.23.28,2.23-.94v-.61c0-1.23-1-2.81-2.23-3.51l-44.37-25.56c-1.23-.71-2.23-.28-2.23.94v.61c0,1.23,1,2.81,2.23,3.51Z"/>
            <path class="cls-23" d="m64.49,437.3l44.37,25.56c1.23.71,2.23.28,2.23-.94v-.61c0-1.23-1-2.81-2.23-3.51l-44.37-25.56c-1.23-.71-2.23-.28-2.23.94v.61c0,1.23,1,2.81,2.23,3.51Z"/>
          </g>
          <ellipse class="cls-26" cx="141.52" cy="467.53" rx="13.4" ry="21.98" transform="translate(-257.75 186.11) rotate(-37.98)"/>
          <path class="cls-51" d="m131.91,470.17c-.14-.73-.22-1.45-.22-2.14,0-4.38,2.96-6.2,6.98-4.78-1.82-2.07-3.07-4.73-3.07-6.91,0-3.09,2.51-4.03,5.6-2.09,3.09,1.94,5.6,6.02,5.6,9.11,0,2.18-1.25,3.28-3.07,3.06,4.02,3.63,6.98,9.16,6.98,13.54,0,.69-.08,1.31-.22,1.87l-18.59-11.66Z"/>
        </g>
      </g>
      <g>
        <path class="cls-1" d="m243.83,576.88l-105.45-61.47c-4-2.33-9.03.55-9.03,5.19v54.32c0,3.64,1.93,7,5.07,8.83l108.74,63.38c3.85,2.24,8.68-.53,8.68-4.99v-51.33c0-5.74-3.05-11.04-8.01-13.93Z"/>
        <path class="cls-64" d="m239.55,578.52l-105.45-61.47c-4-2.33-9.03.55-9.03,5.19v54.32c0,3.64,1.93,7,5.07,8.83l108.74,63.38c3.85,2.24,8.68-.53,8.68-4.99v-51.33c0-5.74-3.05-11.04-8.01-13.93Z"/>
        <g>
          <g>
            <path class="cls-23" d="m140.33,549.32l44.37,25.56c1.23.71,2.23.28,2.23-.94v-.61c0-1.23-1-2.81-2.23-3.51l-44.37-25.56c-1.23-.71-2.23-.28-2.23.94v.61c0,1.23,1,2.81,2.23,3.51Z"/>
            <path class="cls-23" d="m140.33,560.89l44.37,25.56c1.23.71,2.23.28,2.23-.94v-.61c0-1.23-1-2.81-2.23-3.51l-44.37-25.56c-1.23-.71-2.23-.28-2.23.94v.61c0,1.23,1,2.81,2.23,3.51Z"/>
            <path class="cls-23" d="m140.33,572.46l44.37,25.56c1.23.71,2.23.28,2.23-.94v-.61c0-1.23-1-2.81-2.23-3.51l-44.37-25.56c-1.23-.71-2.23-.28-2.23.94v.61c0,1.23,1,2.81,2.23,3.51Z"/>
          </g>
          <ellipse class="cls-26" cx="217.35" cy="602.7" rx="13.4" ry="21.98" transform="translate(-324.87 261.41) rotate(-37.98)"/>
          <path class="cls-1" d="m207.74,605.33c-.14-.73-.22-1.45-.22-2.14,0-4.38,2.96-6.2,6.98-4.78-1.82-2.07-3.07-4.73-3.07-6.91,0-3.09,2.51-4.03,5.6-2.09,3.09,1.94,5.6,6.02,5.6,9.11,0,2.18-1.25,3.28-3.07,3.06,4.02,3.63,6.98,9.16,6.98,13.54,0,.69-.08,1.31-.22,1.87l-18.59-11.66Z"/>
        </g>
      </g>
    </g>
    <g>
      <g>
        <ellipse class="cls-20" cx="56.29" cy="736.57" rx="47.63" ry="22.57"/>
        <g>
          <g>
            <path class="cls-12" d="m46.02,486.82s.98,10.4,15.69,7.26c0,0,4.9-17.85,1.18-29.23,0,0-12.75-5.69-16.87,0-4.12,5.69,0,21.97,0,21.97Z"/>
            <path class="cls-12" d="m29.44,498.96l4.36-12.81,13.76-.56,8.02,5.5s-6.95,4.2-9.09,16.35l-17.04-8.48Z"/>
            <path class="cls-53" d="m32.57,490.17s10.01,2.83,14.67,0c4.66-2.83,6.73-12.84,10.51-10.16,0,0,1.49-1.91,0-6.19-1.49-4.28-.88-6.95,1.34-7.11,2.22-.15,6.65-.84,6.65-6.95,0,0-4.87,1.12-11.2-1.66-3.1-1.36-12.72-3.92-15.86-1.17-3.13,2.75-3.52,5.96-3.36,7.87,0,0-3.13.99-3.74,5.2-.61,4.2.08,14.06.99,20.17Z"/>
            <path class="cls-12" d="m54.39,485.71s-6.36-5.74-3.29-10.16c.29-.42.75-.71,1.26-.74,1.21-.09,3.54.51,5.55,5.55l-3.52,5.35Z"/>
          </g>
          <g>
            <path class="cls-11" d="m24.17,501.38c5.04,2.02,4.05,9.8,2.37,14.26-1.68,4.46-13.46,35.92-13.46,43.05s4.61,35.2,4.61,35.2c0,0-6.7,4.19-11.03,1.54,0,0-8.52-25.98-6.29-39.94,2.23-13.97,13.14-47.39,14.54-50.58,1.35-3.09,5.77-4.9,9.26-3.51Z"/>
            <path class="cls-12" d="m6.66,595.42s-.43,5.57.98,8.58c1.98,4.21,6.45,7.33,11.65,6.5s-1.6-16.62-1.6-16.62l-11.03,1.54Z"/>
          </g>
          <g>
            <path class="cls-42" d="m26.04,719.66s-2.3,11.74,5.96,11.92c0,0,4.76,2.07,13.37-4.19,0,0,8.01-.03,13.86-2.15,0,0,3.25-2.76-.98-3.9-4.23-1.14-16.6-4.46-16.6-4.46,0,0-1.26.52-15.62,2.78Z"/>
            <path class="cls-49" d="m19.66,585.37s13.87,8.72,27.56,7.01c0,0-1.93,50.48-2.35,57.76-.43,7.27-3,66.74-3.21,66.74s-7.26,6.91-15.62,2.78c-.2-1.5-1.91-22.67-3.84-27.59-1.93-4.92-3.85-23.32,1.5-31.45,0,0,1.28-29.31-1.28-35.72s-9.56-24.08-2.75-39.53Z"/>
          </g>
          <g>
            <path class="cls-34" d="m29.28,496.21c2.84.55,5.99,1.33,9.33,2.45,5.6,1.87,7.83,2.54,11.55,4.72-1.08,3.23-2.15,6.46-3.23,9.68l-19.25-12.17,1.6-4.69Z"/>
            <path class="cls-34" d="m33.75,500.78c3.49.51,6.85,1.67,9.93,3.41,8.39,4.74,19.44,13.39,20.61,15.57,1.42,2.66,4.68,11.35,4.44,18.6-.24,7.24-.97,45.64,2.41,55.54,0,0-23.3,6.64-38.76-.6,0,0-9.97-4.7-12.71-7.93,0,0-3.39-33.6-6.3-49.6-2.91-15.99-.36-33.08,6.62-34.73,4.81-1.14,10.05-.8,13.77-.26Z"/>
          </g>
          <g>
            <path class="cls-12" d="m132.63,527s7.03-3.31,8.28-8.09-.73-9.47-4.14-13.16c0,0,6.19-7.96,4.51-10.4-1.68-2.44-12.76,10.46-13.64,12.43-.88,1.98-3.66,10.42-3.66,10.42l4.6,7.37,4.05,1.44Z"/>
            <path class="cls-11" d="m53.93,526.85c1-6.84,5.56-9.25,10.36-7.08,4.8,2.16,31.95,20.21,36.27,17.82,4.33-2.39,23.42-19.39,23.42-19.39,0,0,7.76,2.24,8.65,8.8,0,0-18.05,25.21-28.04,26.25-9.99,1.04-44.01-10.74-46.09-13.28-2.09-2.54-5.39-7.46-4.56-13.13Z"/>
          </g>
          <g>
            <path class="cls-42" d="m51.29,733.99s-5.47,9.2,1.43,12.62c6.91,3.42,12.81-3.21,18.41-1.71,5.61,1.5,14.38,4.28,21.44-.21,0,0,.62-.42,1.32-1.14,1.1-1.14.58-3.05-.93-3.5-5.36-1.59-17.39-5.48-20.88-9.27,0,0-.22.57-20.79,3.21Z"/>
            <path class="cls-63" d="m71.14,593.9s3.47,52.38,2.83,64.79c-.64,12.41-3.64,23.74-3.85,33.8-.21,10.05,2,38.29,1.96,38.29s-11.16,7.49-20.79,3.21c0,0,1.07-25.46-1.07-35.51s-2.02-28.88,4.02-36.15c0,0-9.74-31.66-13.72-36.79-3.98-5.13-11.86-18.48-8.14-32.24,0,0,16.89,5.98,38.76.6Z"/>
          </g>
        </g>
      </g>
      <g>
        <path class="cls-13" d="m56.88,478.2l-3.08-.46s.05-1.56-.1-3.86l.86-.05s-.47-19.22-11.16-18.13c0,0,2.89-1.14,5.13,0,0,0,9.07,2.71,8.34,22.49Z"/>
        <path class="cls-18" d="m54.57,473.84l-.86.05c-.39-6.25-2.21-17.91-10.29-18.18,10.69-1.09,11.16,18.13,11.16,18.13Z"/>
        <path class="cls-59" d="m60,490.67c-3.21-4.64-4.73-11.26-4.79-11.54l.73-.17c.02.07,1.55,6.76,4.67,11.27l-.62.43Z"/>
        <g>
          <ellipse class="cls-60" cx="54.24" cy="478.5" rx="6.07" ry="7.75"/>
          <ellipse class="cls-5" cx="54.86" cy="478.2" rx="4.6" ry="5.88"/>
        </g>
        <path class="cls-60" d="m59.5,489.26h0c.36-.29.9-.23,1.2.13l.86,1.07c.29.36.23.9-.13,1.2h0c-.36.29-.9.23-1.2-.13l-.86-1.07c-.29-.36-.23-.9.13-1.2Z"/>
      </g>
    </g>
  </g>
  <g>
    <ellipse class="cls-20" cx="496.73" cy="1046.25" rx="47.63" ry="22.57"/>
    <ellipse class="cls-20" cx="616.45" cy="980.33" rx="47.63" ry="22.57"/>
    <g>
      <g>
        <path class="cls-57" d="m658.62,880.95c0,.31,0,.62.05.93.83,14.22,21.06,25.62,45.95,25.62s46-11.9,46-26.55c0-.81-.07-1.61-.2-2.4.12-.79.2-1.59.2-2.4s-.07-1.61-.2-2.4c.12-.79.2-1.59.2-2.4,0-14.65-20.61-26.55-46-26.55s-46,11.9-46,26.55v9.58Zm10.97-4.79c3.75-9.16,18-15.99,35.03-15.99s31.27,6.83,35.02,15.99c-3.75,9.16-18.02,15.99-35.02,15.99s-31.29-6.83-35.03-15.99Z"/>
        <path class="cls-34" d="m658.62,868.54c0,.31,0,.62.05.93.84,14.22,21.06,25.63,45.94,25.63s46-11.9,46-26.56-20.61-26.55-46-26.55-45.99,11.9-45.99,26.55Zm10,0c0-11.46,16.12-20.77,36-20.77s36.01,9.31,36.01,20.77c0,.58-.04,1.16-.12,1.73-1.53,10.66-17.02,19.05-35.88,19.05s-34.39-8.41-35.87-19.09c-.05-.31-.08-.64-.09-.96-.04-.24-.04-.49-.04-.73Z"/>
        <path class="cls-7" d="m668.75,870.24c1.47,10.68,16.96,19.09,35.87,19.09s34.35-8.39,35.88-19.05c-1.53-10.66-17.02-19.05-35.88-19.05s-34.32,8.37-35.87,19.01Z"/>
      </g>
      <g>
        <g>
          <path class="cls-17" d="m656.86,909.61c-.02-.11-.04-.22-.06-.33-.01-.08-.03-.15-.04-.23-.02-.07-.03-.14-.05-.21-.02-.1-.05-.2-.08-.3-.02-.06-.03-.11-.05-.17-.03-.11-.07-.22-.11-.33-.02-.05-.03-.09-.05-.14-.06-.15-.12-.31-.18-.46,0-.02-.01-.03-.02-.05-.06-.14-.12-.27-.19-.41-.02-.04-.04-.08-.06-.12-.06-.13-.13-.25-.2-.38-.01-.02-.03-.05-.04-.07-.08-.14-.17-.29-.26-.43-.03-.04-.05-.08-.08-.12-.07-.1-.14-.2-.21-.3-.04-.05-.08-.1-.12-.16-.06-.08-.12-.16-.19-.24-.05-.07-.11-.13-.16-.2-.05-.06-.1-.12-.16-.18-.09-.1-.18-.2-.28-.3-.05-.05-.09-.09-.14-.14-.19-.18-.38-.36-.58-.51-.04-.03-.07-.05-.11-.08-.21-.16-.43-.31-.65-.44-.18-.1-.35-.19-.52-.26-.05-.02-.11-.04-.16-.07-.1-.04-.2-.07-.29-.1-.06-.02-.12-.04-.18-.05-.06-.01-.11-.03-.17-.04-.07-.01-.15-.03-.22-.03-.04,0-.08,0-.12-.01-.09,0-.18,0-.27,0-.02,0-.04,0-.06,0-.11,0-.21.02-.31.04-.02,0-.05.01-.07.02-.08.02-.15.04-.23.07-.02,0-.05.02-.07.02-.09.04-.19.08-.27.13l21.7-12.61s.02,0,.02-.01c.07-.04.14-.07.21-.1.01,0,.03,0,.04-.01.02,0,.05-.02.07-.02.04-.01.07-.03.11-.04.04-.01.08-.02.12-.03.02,0,.05-.01.07-.02.01,0,.03,0,.04,0,.08-.01.17-.02.25-.03,0,0,.01,0,.02,0,.02,0,.04,0,.06,0,.07,0,.13,0,.2,0,.02,0,.05,0,.07,0,.04,0,.08,0,.12.01.04,0,.08,0,.12.01.03,0,.07.02.1.02.06.01.11.02.17.04.03,0,.06.01.09.02.03,0,.06.02.09.03.1.03.19.06.29.1.03.01.07.02.1.04.02,0,.04.02.06.03.17.07.35.16.52.26.22.13.44.28.65.44.04.03.07.05.11.08.2.16.4.33.58.51.02.02.03.03.05.04.03.03.06.06.09.09.09.1.19.19.28.3.03.03.06.06.09.09.02.03.05.06.07.08.06.06.11.13.16.2.03.04.07.08.11.13.03.04.05.07.08.11.04.05.08.1.12.16.03.04.05.07.08.11.04.06.08.13.13.19.03.04.05.08.08.12.01.02.02.03.03.05.07.12.15.23.21.35,0,0,0,.02.01.02.01.02.03.05.04.07.05.08.1.17.14.25.02.04.04.08.06.12.02.04.04.08.06.12.02.04.04.07.06.11.05.1.09.2.14.3,0,.02.02.03.02.05,0,0,0,0,0,.01.05.12.1.25.15.37,0,.02.02.05.02.07.02.05.03.09.05.14.02.06.05.12.07.19.02.05.03.1.04.15.02.06.04.11.05.17.01.04.02.07.03.11.02.06.03.13.05.19.02.07.04.14.05.21,0,.02.01.05.02.07.01.05.02.1.03.15.02.11.04.22.06.33,0,.03.01.06.02.09,0,.03,0,.06,0,.08.03.25.05.49.05.73,0,1.31-.47,2.23-1.21,2.67l-21.7,12.61c.75-.43,1.21-1.36,1.21-2.67,0-.24-.02-.48-.05-.73,0-.06-.01-.12-.02-.18Z"/>
          <path class="cls-62" d="m652.79,903.35c-2.3-1.33-4.16-.26-4.17,2.38,0,2.64,1.85,5.85,4.14,7.17,2.3,1.33,4.16.26,4.17-2.38,0-2.64-1.85-5.85-4.14-7.17Z"/>
        </g>
        <g>
          <path class="cls-34" d="m628.62,928.75c-.02-.16-.05-.33-.08-.49-.02-.11-.04-.22-.07-.34-.02-.1-.05-.21-.08-.31-.04-.15-.07-.29-.12-.44-.02-.08-.05-.17-.08-.25-.05-.16-.11-.33-.16-.49-.02-.07-.05-.14-.07-.2-.08-.23-.17-.45-.27-.67-.01-.02-.02-.05-.03-.07-.09-.2-.18-.4-.28-.6-.03-.06-.06-.12-.09-.18-.1-.19-.2-.37-.3-.55-.02-.04-.04-.07-.06-.11-.12-.21-.25-.42-.39-.63-.04-.06-.08-.12-.12-.18-.1-.15-.2-.29-.3-.44-.06-.08-.11-.15-.17-.23-.09-.12-.18-.24-.28-.35-.08-.1-.16-.2-.24-.29-.08-.09-.16-.18-.23-.26-.13-.15-.27-.29-.41-.44-.07-.07-.14-.14-.2-.2-.28-.27-.57-.53-.86-.76-.05-.04-.11-.08-.16-.12-.31-.24-.63-.46-.96-.65-.26-.15-.52-.27-.77-.38-.08-.04-.16-.07-.24-.1-.15-.06-.29-.11-.43-.15-.09-.03-.18-.05-.27-.08-.08-.02-.17-.04-.25-.05-.11-.02-.22-.04-.32-.05-.06,0-.12-.01-.18-.02-.13,0-.26-.01-.39,0-.03,0-.06,0-.09,0-.16,0-.31.03-.45.06-.04,0-.07.02-.11.02-.12.03-.23.06-.34.1-.03.01-.07.02-.1.04-.14.05-.27.12-.4.19l32.06-18.63s.02-.01.03-.02c.1-.06.2-.11.31-.15.02,0,.04-.01.06-.02.03-.01.07-.02.1-.04.05-.02.11-.04.16-.06.06-.02.12-.03.18-.04.04,0,.07-.02.11-.02.02,0,.04,0,.06-.01.12-.02.24-.04.37-.04,0,0,.02,0,.02,0,.03,0,.06,0,.09,0,.1,0,.19,0,.29,0,.03,0,.07,0,.1.01.06,0,.12.01.18.02.06,0,.11,0,.17.02.05,0,.1.02.15.03.08.02.17.03.25.05.05.01.09.02.13.03.04.01.09.03.14.05.14.04.29.09.43.15.05.02.1.03.15.05.03.01.06.03.09.04.25.11.51.23.77.38.33.19.65.41.96.65.05.04.11.08.16.12.3.23.58.49.86.76.02.02.05.04.07.06.05.04.09.09.13.14.14.14.28.29.41.44.04.05.09.09.13.14.04.04.07.08.1.12.08.1.16.19.24.29.05.06.11.13.16.19.04.05.08.11.12.16.06.08.11.15.17.23.04.05.08.1.12.16.06.09.12.18.19.28.04.06.08.12.12.18.02.02.03.05.05.07.11.17.21.34.32.52,0,.01.01.02.02.04.02.04.04.07.06.11.07.12.14.25.21.37.03.06.06.12.09.18.03.06.06.12.09.18.03.05.06.11.08.16.07.14.14.29.2.44.01.03.02.05.03.08,0,0,0,.01,0,.02.08.18.15.37.23.55.01.03.02.07.04.1.03.07.05.14.07.2.03.09.07.18.1.27.02.07.04.14.07.22.03.08.05.17.08.25.02.05.03.1.05.16.03.09.05.19.07.28.03.1.05.21.08.31,0,.04.02.07.03.11.02.08.02.15.04.23.03.16.06.33.08.49,0,.04.02.09.02.14,0,.04,0,.08,0,.13.04.36.07.72.07,1.08,0,1.94-.69,3.3-1.79,3.94l-32.06,18.63c1.1-.64,1.78-2,1.79-3.94,0-.35-.03-.71-.07-1.08-.01-.09-.02-.17-.03-.26Z"/>
          <path class="cls-17" d="m622.61,919.49c-3.39-1.96-6.15-.39-6.16,3.51-.01,3.9,2.73,8.64,6.12,10.6,3.39,1.96,6.15.39,6.16-3.51.01-3.9-2.73-8.64-6.12-10.6Z"/>
        </g>
      </g>
    </g>
    <g>
      <path class="cls-49" d="m582.18,834.08s-4.22,14.78,0,32.32c4.22,17.55,5.68,32.61,5.68,37.58s6.28,12.75,7.67,23.77c1.39,11.03,1.98,20.38,1.98,20.38,0,0,.98,5.12,7.16,3.8,6.19-1.32,7.89-4.53,7.89-4.53,0,0,1.11-11.56.55-25.59-.56-14.03-3.9-19.3-3.9-19.3l.29-57.76-27.32-10.68Z"/>
      <path class="cls-63" d="m603.23,848.29s7.1,49.94,10.93,56.51c3.83,6.57,7.35,29.09,8.99,39.18,1.64,10.09,2.35,19,2.35,19,0,0,1.17,5.4,6.57,5.87,5.4.47,10.79-6.57,10.79-6.57,0,0-.94-24.97-3.05-39.58s-4.68-19.78-4.68-19.78v-41.76s5.63-15.47,1.87-23.1c-3.76-7.63-33.77,10.23-33.77,10.23Z"/>
      <path class="cls-11" d="m589.33,750.08s-6.54-.86-11.64,9.23c-5.1,10.09-19.37,57.3-18.09,63.1,1.28,5.8,11.33,8.81,14.83,1.16,3.5-7.65,14.91-53.82,14.91-53.82v-19.67Z"/>
      <path class="cls-34" d="m615.32,759.2s-21.65-10.83-25.98-9.13c-4.33,1.7-6.65,35.57-6.5,41.3.15,5.72-1.24,40.68-1.24,40.68,0,0,2.63,14.38,19.33,16.09,16.7,1.7,29.39-8.04,29.39-8.04,0,0,8.04-66.35,6.81-68.83-1.24-2.47-21.81-12.06-21.81-12.06Z"/>
      <path class="cls-11" d="m637.13,771.26c-5.71-1.4-13.92,2.63-11.45,16.55,2.47,13.92,7.11,35.26,7.11,35.26l-20.23,10.05s5.84,1.24,7.54,5.57c1.7,4.33.15,5.41.15,5.41,0,0,25.68-8.2,28.3-12.53,2.63-4.33-2.63-58.16-11.45-60.32Z"/>
      <g>
        <path class="cls-24" d="m605.61,790.32l-7.08,6.81-28.73-11.52c-.44-.19-.77-.51-.97-.9-.09-.19-.15-.38-.16-.59-.01-.02-.01-.03-.01-.06-.06-.55.13-1.11.58-1.51l3.85-3.49c1.11-1,2.69-1.28,4.07-.7l28.45,11.96Z"/>
        <path class="cls-5" d="m570.23,784.53c-.19-.08-.31-.24-.36-.35-.02-.04-.03-.09-.04-.13l-.02-.24c.01-.12.06-.27.2-.4l3.85-3.49c.5-.45,1.14-.7,1.8-.7.36,0,.71.07,1.04.21l28.45,11.9-5.27,5.06-29.66-11.86Z"/>
        <polygon class="cls-70" points="614.59 822.14 607.51 828.94 604.38 817.84 614.59 822.14"/>
        <path class="cls-71" d="m607.51,828.94l-28.74-11.52c-.62-.24-1-.77-1.12-1.35l-8.82-31.36c.2.38.52.71.97.9l28.73,11.52,5.85,20.72,3.13,11.1Z"/>
        <polygon class="cls-15" points="605.61 790.32 614.59 822.14 607.51 828.94 598.53 797.13 605.61 790.32"/>
        <polygon class="cls-5" points="565.04 794.83 592.15 801.19 602.32 829.52 575.21 823.16 565.04 794.83"/>
      </g>
      <path class="cls-55" d="m614.86,833.9s-2.21-.95-5,0c-2.79.95-3.72.44-5.16-1.17-1.44-1.61-2.37-4.99-2.37-4.99,0,0-2.62.2-2.12,3.32.51,3.11,4.15,7.43,3.64,8.36-.51.93-4.99,1.68-3.3,4.69,1.69,3.01,3.33,6.82,6.95,6.99,3.63.17,13.28-7.89,13.28-7.89,0,0,1.96-8.4-5.92-9.31Z"/>
      <path class="cls-11" d="m560.63,813.96s5.54-4.07,19.59-2.04c14.05,2.03,14.45,1.01,14.45,1.01,0,0-3.14,1.39-2.26,8.11s1.02,3.54,1.02,3.54c0,0-25.15,5.62-30.54,3.16-5.39-2.46-4.16-10.78-2.26-13.78Z"/>
      <path class="cls-55" d="m593.53,813.96c.13-.27,3.47-1.26,7.61-.98,4.14.29,7.23.47,7.23.47,0,0,1.16,1.36-3.28,1.94-4.43.58-.11,3.18,3.41,2.12,3.53-1.06,6.8-.96,5.26,1.93-1.54,2.89-4.43,4.43-9.93,5.01-5.5.58-11.05-1.01-11.05-1.01,0,0-1.48-4.85.74-9.49Z"/>
      <g>
        <path class="cls-55" d="m591.95,730.64s-.68,5.46-.31,6.69c.36,1.23,1.16,1.66,1.16,1.66,0,0-1.59,2.09-1.06,3.53.52,1.43,1.39,9.9,2.85,11.26,1.46,1.36,5.51,2.09,5.51,2.09l.17,3.52s.98,2.93,4.07,5.55c3.18,2.69,14.79.32,15.54-1.83.76-2.15-.57-26.48-.5-27.32.07-.84-3.67-7.07-8.56-6.68-4.89.39-18.86,1.54-18.86,1.54Z"/>
        <path class="cls-14" d="m606.56,733.62s-5.97,2.74-13.04,0c-7.07-2.73-6.3-7.75-4.38-9.44,1.91-1.69,5.81.61,9.89-1.51,4.08-2.12,7.68-6.05,13.77-7.03,6.09-.98,11.95,4.01,11.43,7.31l-.52,3.31s3.67,2.35,3.49,6.18-5.24,17.67-8.36,18.35c-3.12.67-4.49-.84-3.49-4.12,1-3.28-1.03-4.53-2.51-4.24-1.48.3-1.34,5.72-3.28,7.89s-7.3,7.33-10.26,7.36c-2.96.03-5.1-.84-6.67-5.87-1.57-5.02-.64-7.7-.64-7.7,0,0,5.96-.84,8.22,1.55,2.26,2.39-1.41,5.38,4.08,3.21,5.49-2.17,7.1-7.23,5.2-8.98-1.9-1.75-2.01.05-2.65-1.96-.64-2.01-.28-4.33-.28-4.33Z"/>
      </g>
      <path d="m598.58,950.3s-1.28,7.53-4.56,11.96c-3.28,4.43-11.71,12.85-9.85,15.42,1.86,2.57,7.43,4.71,11.28,0,3.86-4.71,7-8.46,10.85-12.3,3.86-3.84,6.65-4.72,6.97-8.92.31-4.2-.71-9.05-.71-9.05,0,0-8.57,5.78-13.98,2.89Z"/>
      <path d="m627.19,966.33s-.31,10.04.68,15.77c.99,5.72,3.86,18.9,7.14,20.95,3.27,2.05,9.99,2.1,10.84-3.42.86-5.52-3.28-12.23-4.71-19.16-1.43-6.93-.81-15.47-.81-15.47,0,0-5.96,5.68-13.14,1.33Z"/>
    </g>
    <path class="cls-2" d="m701.18,678.02c7.15,4.13,12.18,12.79,12.19,20.98,0,13.15,0,26.29,0,39.43,0,.87,0,1.76-.14,2.54-1.06,6.15-5.79,7.96-11.78,4.51-14.23-8.21-28.47-16.44-42.7-24.63-.53-.31-1.14-.44-1.59-.36-5.17.93-10.31,1.94-15.49,2.85-.69.12-1.54.03-2.35-.32-1.9-.83-4.14-3.93-4.13-7.32.05-20.65.02-41.35.03-62.02,0-.77,0-1.55.12-2.24,1-6.22,5.77-8.09,11.79-4.62,9.07,5.23,18.14,10.47,27.22,15.71,8.95,5.17,17.9,10.33,26.85,15.5Zm-26.92,27.09c4.3,2.51,7.89.45,7.85-4.5-.04-4.95-3.58-11.02-7.85-13.46-4.29-2.45-7.8-.44-7.81,4.47,0,4.91,3.51,10.99,7.8,13.49Zm19.61-6.64c-4.31-2.53-7.87-.5-7.85,4.48.01,4.93,3.54,10.99,7.82,13.47,4.29,2.47,7.79.47,7.79-4.47,0-4.94-3.46-10.96-7.76-13.48Zm-39.17-4.65c4.27,2.5,7.83.52,7.85-4.38.03-4.96-3.5-11.07-7.82-13.57-4.29-2.48-7.79-.48-7.79,4.46,0,4.95,3.45,10.96,7.76,13.48Z"/>
    <path class="cls-25" d="m696.61,681.69c7.15,4.13,12.18,12.79,12.19,20.98,0,13.15,0,26.29,0,39.43,0,.87,0,1.76-.14,2.54-1.06,6.15-5.79,7.96-11.78,4.51-14.23-8.21-28.47-16.44-42.7-24.63-.53-.31-1.14-.44-1.59-.36-5.17.93-10.31,1.94-15.49,2.85-.69.12-1.54.03-2.35-.32-1.9-.83-4.14-3.93-4.13-7.32.05-20.65.02-41.35.03-62.02,0-.77,0-1.55.12-2.24,1-6.22,5.77-8.09,11.79-4.62,9.07,5.23,18.14,10.47,27.22,15.71,8.95,5.17,17.9,10.33,26.85,15.5Zm-26.92,27.09c4.3,2.51,7.89.45,7.85-4.5-.04-4.95-3.58-11.02-7.85-13.46-4.29-2.45-7.8-.44-7.81,4.47,0,4.91,3.51,10.99,7.8,13.49Zm19.61-6.64c-4.31-2.53-7.87-.5-7.85,4.48.01,4.93,3.54,10.99,7.82,13.47,4.29,2.47,7.79.47,7.79-4.47,0-4.94-3.46-10.96-7.76-13.48Zm-39.17-4.65c4.27,2.5,7.83.52,7.85-4.38.03-4.96-3.5-11.07-7.82-13.57-4.29-2.48-7.79-.48-7.79,4.46,0,4.95,3.45,10.96,7.76,13.48Z"/>
    <g>
      <path class="cls-33" d="m731.04,954.71l-.09.05v6.69c-.62-.82-3.82-4.58-14.63-11.47-12.32-7.85-17.86-7.31-17.86-7.31v-6.86s.03,0,.07,0c.45-.02,3.01-.02,7.96,2.04,2.6,1.09,5.86,2.75,9.83,5.27,11.48,7.32,14.38,11.11,14.72,11.59Z"/>
      <path class="cls-32" d="m778.85,926.07l-4.35,2.61-43.42,26.08s-.01-.02-.04-.05c-.34-.48-3.23-4.27-14.72-11.59-3.96-2.52-7.23-4.18-9.83-5.27-4.95-2.06-7.51-2.06-7.96-2.04-.05,0-.07,0-.07,0l47.77-28.69s5.55-.54,17.86,7.31c12.32,7.85,14.75,11.64,14.75,11.64Z"/>
      <path class="cls-33" d="m763.55,973.59l-.09.05v6.69c-.62-.82-3.82-4.58-14.63-11.47-12.32-7.85-17.86-7.31-17.86-7.31v-6.86s.03,0,.07,0c.45-.02,3.01-.02,7.96,2.04,2.6,1.09,5.86,2.75,9.83,5.27,11.48,7.32,14.38,11.11,14.72,11.59Z"/>
      <path class="cls-10" d="m811.36,944.95l-4.35,2.61-43.42,26.08s-.01-.02-.04-.05c-.34-.48-3.23-4.27-14.72-11.59-3.96-2.52-7.23-4.18-9.83-5.27-4.95-2.06-7.51-2.06-7.96-2.04-.05,0-.07,0-.07,0l47.77-28.69s5.55-.54,17.86,7.31c12.32,7.85,14.75,11.64,14.75,11.64Z"/>
      <polygon class="cls-41" points="811.36 944.95 811.36 951.81 763.55 980.45 763.46 980.5 763.46 973.64 763.55 973.59 807 947.56 811.36 944.95"/>
      <path class="cls-41" d="m778.85,926.07c-16.56-24.96-27.98-25.45-27.98-25.45l-47.53,28.14s11.94,2.15,27.98,25.45l47.53-28.14Z"/>
      <path class="cls-5" d="m731.77,952.12c-11.03-15.66-20.12-21.54-24.79-23.7l44.21-26.17c2.04.41,11.85,3.37,25.44,23.32l-44.86,26.56Z"/>
      <path class="cls-41" d="m731.31,954.21s5.24-3.03,20.09.48c14.85,3.51,19.77,10.62,19.77,10.62l47.53-28.21s-4.92-7.11-19.77-10.62c-14.85-3.51-20.09-.48-20.09-.48l-47.53,28.21Z"/>
      <path class="cls-68" d="m771.51,963.28c-2.09-2.26-7.89-7.31-19.75-10.12-4.73-1.12-9-1.7-12.69-1.73l40.58-24.08h0s1.94-1,6.62-1c3.53,0,7.67.56,12.31,1.65,10.23,2.42,15.56,6.62,17.7,8.72l-44.76,26.56Z"/>
      <g>
        <path class="cls-41" d="m768.76,925.57c-5.9-14.04-17.05-17.67-17.16-17.7l.16-.5c.11.04,11.49,3.74,17.48,18l-.48.2Z"/>
        <path class="cls-41" d="m765.87,927.29c-5.9-14.04-17.05-17.67-17.16-17.7l.16-.5c.11.04,11.49,3.74,17.48,18l-.48.2Z"/>
        <path class="cls-41" d="m762.99,929.02c-5.9-14.04-17.05-17.67-17.16-17.7l.16-.5c.11.04,11.49,3.74,17.48,18l-.48.2Z"/>
        <path class="cls-41" d="m760.1,930.74c-5.9-14.04-17.05-17.67-17.16-17.7l.16-.5c.11.04,11.49,3.74,17.48,18l-.48.2Z"/>
        <path class="cls-41" d="m757.21,932.46c-5.9-14.04-17.05-17.67-17.16-17.7l.16-.5c.11.04,11.49,3.74,17.48,18l-.48.2Z"/>
        <path class="cls-41" d="m754.33,934.18c-5.9-14.04-17.05-17.67-17.16-17.7l.16-.5c.11.04,11.49,3.74,17.48,18l-.48.2Z"/>
        <path class="cls-41" d="m751.44,935.91c-5.9-14.04-17.05-17.67-17.16-17.7l.16-.5c.11.04,11.49,3.74,17.48,18l-.48.2Z"/>
      </g>
      <g>
        <path class="cls-41" d="m738.19,928.76l-9.82,6.29c2.38,2.58,4.75,5.98,6.61,10.4l10.03-6.07c-1.92-4.56-4.37-8.02-6.82-10.63Z"/>
        <path class="cls-41" d="m736.53,927.13c-4.64-4.27-8.84-5.59-8.84-5.59l-10.03,6.07s4.24,1.33,8.91,5.65l9.96-6.13Z"/>
      </g>
      <g>
        <path class="cls-41" d="m805.44,939.24c-6.93-10.1-27.44-9.13-27.65-9.12l-.03-.52c.21-.01,21.02-1,28.11,9.34l-.43.29Z"/>
        <path class="cls-41" d="m800.94,942.08c-6.93-10.1-27.44-9.13-27.65-9.12l-.03-.52c.21-.01,21.02-1,28.11,9.34l-.43.29Z"/>
        <path class="cls-41" d="m796.45,944.91c-6.93-10.1-27.44-9.13-27.65-9.12l-.03-.52c.21-.01,21.02-1,28.11,9.34l-.43.29Z"/>
        <path class="cls-41" d="m791.95,947.74c-6.93-10.1-27.44-9.13-27.65-9.12l-.03-.52c.21-.01,21.02-1,28.11,9.34l-.43.29Z"/>
        <path class="cls-41" d="m787.46,950.57c-6.93-10.1-27.44-9.13-27.65-9.12l-.03-.52c.21-.01,21.02-1,28.11,9.34l-.43.29Z"/>
        <path class="cls-41" d="m782.97,953.41c-6.93-10.1-27.44-9.13-27.65-9.12l-.03-.52c.21-.01,21.02-1,28.11,9.34l-.43.29Z"/>
      </g>
    </g>
    <g>
      <path class="cls-46" d="m488.69,928.12c3.67,1.33,7.31,2.82,11.11,3.72,5.87,1.39,11.78,2.28,17.77.45,1.95-.6,3.04-2.14,4.39-3.42.13,6.3.41,12.59.49,18.89.14,11.13.65,22.25.98,33.37.06,2.1.03,4.21.04,6.31-.47,2.42-.55,4.84.06,7.26.22,9.4.54,18.8.64,28.2.08,7.03.14,14.08-.98,21.06-.12.74-.01,1.52-.01,2.29-1.8,1.88-4.19,2.23-6.59,2.43-3.02.26-5.79-1.02-8.7-1.5-2.81-3.16-3.07-7.26-3.79-11.1-.55-2.94-1.2-5.9-1.36-8.94-.16-2.88-.73-5.73-1.03-8.61-.42-4.08-.87-8.16-1.08-12.25-.18-3.62.13-7.27-.08-10.89-.26-4.53.67-8.96.8-13.45.04-1.45-.32-2.77-.84-4.03-2.69-6.46-4.93-13.08-6.87-19.8-.11-.39-.36-.48-.69-.5.03-1.6-.22-3.15-.64-4.7-2.18-8.12-3.59-16.36-3.62-24.8Z"/>
      <path class="cls-44" d="m488.69,928.12c.04,8.44,1.44,16.68,3.62,24.8.42,1.55.67,3.1.64,4.7-.4,2.91-1.03,5.82-1.15,8.74-.27,6.06-.07,12.14-.45,18.19-.27,4.31-.18,8.63-.4,12.93-.38,7.24-.85,14.48-1.55,21.69-.42,4.28-.9,8.58-1.83,12.8-.09.42.01.89.02,1.33-2.97,4.06-5.63,4.87-10.63,3.67-1.91-.46-3.45-1.43-5.06-2.38-1.75-3.48-2.07-7.32-2.71-11.05-1.73-10.15-1.36-20.4-1.16-30.63.08-3.95.86-7.85,1.35-11.77.52-4.17,2.05-8.22,1.68-12.49-.3-3.38-.96-6.71-1.22-10.11-.32-4.29-.8-8.57-.66-12.88.76-1.61.14-3.31.31-4.96.06-.53-.04-1.01-.68-1.15.05-8.03.09-16.06.14-24.09.15-.32.3-.63.46-.95,4.09,5.15,9.43,8.68,15.21,11.62,1.34.69,2.72,1.32,4.08,1.98Z"/>
      <path class="cls-37" d="m523.18,875.53c-2.18-2.21-4.35-4.43-6.54-6.63-4.92-4.92-6.37-10.83-4.95-17.52.48-2.27,1.61-4.3,3.01-6.13,1.84-2.41,3.47-2.82,6.32-1.74.36.14.7.31,1.09.13,0,0,.03.04.03.05-.01.44.3.48.62.51,7.9,5.47,14.33,12.44,20.46,19.74.87,1.04,1.61,2.64,3.67,1.78.89-.37,1.34-.87,1.69-1.6,2.78-5.82,6.15-11.29,10.07-16.4,1.02-1.33,2.04-2.8,3.84-3.29.34.07.66.06.84-.32,1.05-.09,2.1-.18,3.15-.27.48.42.96.41,1.45,0,.51.04,1.02.09,1.52.13.12.07.25.15.37.22,2.02.72,2.39,2.77,3.47,4.25.28,4.81-1.44,9.12-3.22,13.46-1.68,4.09-3.65,8.02-5.8,11.87-2.43,4.35-5.19,8.46-8.68,12.02-3.94,4.03-6.39,4.45-11.93,2.1-4.48-1.9-8.71-4.3-12.82-6.87-2.35-1.47-4.44-3.34-6.66-5.01-.29-.22-.66-.33-1-.49Z"/>
      <path class="cls-67" d="m489.45,823.5c-.23-.59-.48-1.17-.69-1.76-3.05-8.54-2.39-16.71,3.09-24.04,3.81-5.09,10.92-6.19,17.21-3.25,2.09.98,4.04,2.17,5.82,3.64.94.77,1.89,1.26,3.1.46.96-.64,1.55,0,1.6.85.18,2.96.77,6.04-1.83,8.41-1.93,1.19-4.33,1.42-6.09,2.9-2.58,2.17-3.41,5.22-3.82,8.4-.11.89-.13,1.88-.72,2.49-1.39,1.43-2.64,3.07-4.58,3.86-3.98-3.21-8.41-3.44-13.1-1.95Z"/>
      <path d="m507.89,1047.18c2.9.48,5.68,1.76,8.7,1.5,2.4-.21,4.79-.55,6.59-2.43,1.45.54,2.82.85,4.5.67,2.83-.32,5.58.64,7.79,2.5,1.82,1.53.56,4.25-2.23,5.46-2.93,1.27-6.02,2.05-9.05,2.92-2.28.66-3.27,2.91-5.47,3.48-2.49.65-4.92,1.21-7.53.49-1.31-.36-1.9-1.15-2.16-2.27-.94-4.05-1.37-8.16-1.13-12.32Z"/>
      <path class="cls-39" d="m467.31,841.53c1.04.31.92,1.27,1.05,2.03,1,5.87,2.02,11.74,2.92,17.62.72,4.73.78,9.47.06,14.24-.97,6.41-2.86,12.61-4.1,18.96-.09.44-.26.7-.7.75-1.2-3.36-2.46-6.69-3.19-10.22-.55-2.67-.52-5.35-.22-7.95.35-3.06.55-6.14,1-9.2.74-5.04,1.43-10.09,1.88-15.16.33-3.7,1.35-7.32,1.3-11.06Z"/>
      <path d="m471.89,1034.6c1.61.95,3.15,1.93,5.06,2.38,5.01,1.2,7.66.38,10.63-3.67,1.91,1.55,3.04,3.65,3.98,5.86.67,1.58.04,3.2-1.67,4.15-1.18.65-2.36,1.31-3.7,1.69-1.49.43-2.81,1.19-4,2.31-2,1.87-4.61,1.26-6.86.76-1.97-.43-3.15-1.9-3.6-4.27-.59-3.15.1-6.15.16-9.21Z"/>
      <path class="cls-9" d="m502.55,825.45c1.94-.79,3.2-2.42,4.58-3.86.59-.61.61-1.6.72-2.49.41-3.18,1.24-6.23,3.82-8.4,1.76-1.48,4.16-1.71,6.09-2.9.25,3.21-.6,6.25-1.31,9.34-.8,3.48-1.85,6.83-3.31,10.07-1.17,2.59-2.78,4.7-5.64,5.54-.38-.27-.76-.54-1.15-.82-.72-2.48-2.4-4.41-3.8-6.5Z"/>
      <path class="cls-9" d="m573.29,848.46c-1.07-1.49-1.45-3.54-3.47-4.25-.12-.07-.25-.15-.37-.22-.51-.04-1.02-.09-1.52-.13-.48,0-.97,0-1.45,0-1.05.09-2.1.18-3.15.27-.24-.1-.48-.19-.71-.29.04-3.48.35-6.94,1.23-10.32.16-.6.11-1.56,1.12-1.52.99.04.51.98.78,1.47.52.93-.11,2.65,1.02,2.84,1.2.2,1.44-1.52,2.15-2.37.41-.48.68-1.09,1.13-1.53.93-.9,2.33-.56,2.48.65.27,2.24,2.03,3.91,2.19,6.24.04.63,1.24,1.34.89,2.29-.83,2.27-.54,4.93-2.32,6.87Z"/>
      <path class="cls-50" d="m502.55,825.45c1.4,2.09,3.07,4.01,3.8,6.5-2.52-.99-5.04-2-7.56-2.98-3.77-1.48-7.81-1.98-11.66-3.17.34-1.2,1.37-1.71,2.33-2.29,4.68-1.5,9.11-1.26,13.1,1.95Z"/>
      <path class="cls-44" d="m468.81,939.56c.64.13.74.62.68,1.15-.18,1.65.45,3.35-.31,4.96-.87-1.99-.31-4.07-.37-6.1Z"/>
      <path class="cls-46" d="m523.53,994.7c-.61-2.42-.52-4.84-.06-7.26.02,2.42.04,4.84.06,7.26Z"/>
      <path class="cls-67" d="m562.62,843.83c.24.1.48.19.71.29-.18.37-.5.38-.84.32.04-.2.09-.4.13-.6Z"/>
      <path class="cls-44" d="m469.41,914.52c-.15.32-.31.63-.46.95-.03-.41-.07-.81-.1-1.22.19.09.37.18.56.27Z"/>
      <path class="cls-43" d="m523.16,915.03c-.37-.21-.41-.45-.05-.72.35.22.37.46.05.72Z"/>
      <path class="cls-43" d="m522.76,844.2c-.32-.03-.64-.07-.62-.51.33.03.57.16.62.51Z"/>
      <path class="cls-67" d="m522.82,924.66c.11-.14.21-.27.32-.41-.11.14-.21.27-.32.41Z"/>
      <path class="cls-67" d="m566.48,843.85c.48,0,.97,0,1.45,0-.48.4-.97.42-1.45,0Z"/>
      <path class="cls-67" d="m569.45,843.98c.12.07.25.15.37.22-.12-.07-.25-.15-.37-.22Z"/>
      <path class="cls-50" d="m507.49,832.77c4.73,2.68,9.48,5.34,13.36,9.26.48.48,1.14.85,1.25,1.62-.39.18-.73,0-1.09-.13-2.84-1.07-4.48-.67-6.32,1.74-1.4,1.83-2.53,3.86-3.01,6.13-1.42,6.69.03,12.6,4.95,17.52,2.19,2.19,4.36,4.42,6.54,6.63-.86,3.73-2.12,7.36-2.7,11.16-.35,2.31-1.08,4.57-.7,6.95.47,2.98.85,5.98,1.5,8.92.86,3.88,1.18,7.84,1.84,11.75-.36.27-.32.51.05.72.33,3.08.65,6.16-.02,9.23-.11.14-.21,49.96-.32,50.09.08,1.48-.58,2.8-.86,4.2-1.35,1.28-2.44,2.82-4.39,3.42-5.99,1.83-11.89.94-17.77-.45-3.81-.9-7.44-2.39-11.11-3.72-1.36-.66-2.73-1.29-4.08-1.98-5.78-2.95-11.12-6.47-15.21-11.62-.19-.09-.37-.18-.56-.27-2.91-4.39-2.91-59.01-2.73-64,.06-1.62.83-3.16.42-4.81.45-.05.62-.3.7-.75,1.24-6.35,3.13-12.55,4.1-18.96.72-4.76.66-9.51-.06-14.24-.9-5.89-1.92-11.75-2.92-17.62-.13-.76,0-1.71-1.05-2.03.7-2.08.53-4.28.56-6.38.06-4.51,4.19-7.56,7.37-8.62,3.93-1.31,7.92-.51,11.88-.74,3.85,1.2,7.89,1.7,11.66,3.17,2.52.99,5.04,1.99,7.56,2.98.38.27.76.54,1.15.82Z"/>
    </g>
    <g>
      <g class="cls-20">
        <path d="m805.81,880.74c-9.11-5.26-23.83-5.26-32.88,0-9.05,5.26-9,13.79.11,19.05,9.11,5.26,23.83,5.26,32.88,0,9.05-5.26,9-13.79-.11-19.05h0Z"/>
      </g>
      <g>
        <rect class="cls-38" x="766.17" y="840.41" width="40.91" height="48.94"/>
        <path class="cls-38" d="m801.14,897.72c-.1.06-.2.11-.3.17-2.2,1.23-4.75,2.11-7.47,2.65-7.16,1.43-15.42.49-21.16-2.82-8.01-4.63-8.05-12.13-.09-16.76,5.73-3.33,14.05-4.27,21.25-2.8,2.71.55,5.27,1.44,7.47,2.68.07.04.14.08.21.12,8.01,4.63,8.06,12.13.09,16.76Z"/>
        <path class="cls-5" d="m801.05,832.03c-8.01-4.63-20.97-4.63-28.93,0-7.96,4.63-7.92,12.13.09,16.75,8.01,4.63,20.97,4.63,28.93,0,7.96-4.63,7.92-12.13-.09-16.76h0Z"/>
        <path class="cls-72" d="m803.61,843.81c-.85,1.44-2.27,2.8-4.25,3.95-6.98,4.06-18.35,4.06-25.38,0-2.02-1.17-3.46-2.54-4.33-4.01-2.14-3.63-.73-7.8,4.25-10.69,6.99-4.06,18.35-4.06,25.38,0,5.04,2.91,6.48,7.11,4.33,10.75Z"/>
        <path class="cls-4" d="m803.61,843.81c-.85,1.44-2.27,2.8-4.25,3.95-6.98,4.06-18.35,4.06-25.38,0-2.02-1.17-3.46-2.54-4.33-4.01.85-1.44,2.27-2.79,4.25-3.95,6.99-4.06,18.35-4.06,25.38,0,2.02,1.17,3.46,2.54,4.33,4.01Z"/>
        <ellipse class="cls-6" cx="787.06" cy="839.24" rx="1.02" ry=".55"/>
        <ellipse class="cls-6" cx="789.65" cy="838.7" rx="1.02" ry=".55"/>
        <ellipse class="cls-6" cx="799.37" cy="842.35" rx="1.55" ry=".84"/>
        <path class="cls-6" d="m792.59,838.91c0,.19-.28.34-.62.34s-.62-.15-.62-.34.28-.34.62-.34.62.15.62.34Z"/>
        <path class="cls-6" d="m799.37,845.33c0,.19-.28.34-.62.34s-.62-.15-.62-.34.28-.34.62-.34.62.15.62.34Z"/>
        <ellipse class="cls-6" cx="797.17" cy="843.53" rx=".41" ry=".22"/>
        <ellipse class="cls-6" cx="798.54" cy="844.09" rx=".41" ry=".22"/>
        <path class="cls-6" d="m788.99,840.29c0,.19-.28.34-.62.34s-.62-.15-.62-.34.28-.34.62-.34.62.15.62.34Z"/>
        <path class="cls-6" d="m798.35,841.04c0,.19-.28.34-.62.34s-.62-.15-.62-.34.28-.34.62-.34.62.15.62.34Z"/>
        <ellipse class="cls-6" cx="790.87" cy="842.02" rx=".62" ry=".34"/>
        <path class="cls-6" d="m788.2,837.7c0,.3-.45.55-1.02.55s-1.02-.25-1.02-.55.45-.55,1.02-.55,1.02.25,1.02.55Z"/>
        <path class="cls-6" d="m792.68,840.41c0,.5-.75.9-1.67.9s-1.67-.4-1.67-.9.75-.9,1.67-.9,1.67.4,1.67.9Z"/>
        <path class="cls-6" d="m797.17,844.99c0,.5-.75.9-1.67.9s-1.67-.4-1.67-.9.75-.9,1.67-.9,1.67.4,1.67.9Z"/>
        <ellipse class="cls-6" cx="794.2" cy="839.68" rx="1.13" ry=".61"/>
        <ellipse class="cls-6" cx="794.68" cy="842.02" rx="2.43" ry="1.31"/>
        <g class="cls-19">
          <polygon class="cls-5" points="799.7 888.46 803.38 886.32 810.63 890.5 806.95 892.64 799.7 888.46"/>
          <path class="cls-5" d="m812.66,890.7l-3.68,2.14c-.52.3-1.24.26-2.03-.2l3.68-2.14c.79.46,1.51.5,2.03.2Z"/>
          <path class="cls-5" d="m815.41,895.44l-3.68,2.14c1.21-.7,1.96-2.2,1.97-4.32l3.68-2.14c0,2.12-.76,3.62-1.97,4.32Z"/>
          <polygon class="cls-5" points="813.77 867.21 817.46 865.07 817.38 891.12 813.7 893.26 813.77 867.21"/>
          <polygon class="cls-5" points="799.81 851.42 803.49 849.27 810.77 853.48 807.08 855.62 799.81 851.42"/>
          <path class="cls-5" d="m807.08,855.62l3.68-2.14c3.7,2.14,6.7,7.34,6.69,11.59l-3.68,2.14c.01-4.25-2.99-9.45-6.69-11.59Z"/>
          <path class="cls-72" d="m807.08,855.62c3.7,2.14,6.7,7.34,6.69,11.59l-.07,26.06c-.01,4.27-3.05,6-6.77,3.86l-7.24-4.18v-4.47s7.26,4.18,7.26,4.18c1.57.91,2.86.18,2.86-1.63l.07-26.06c0-1.79-1.26-3.97-2.81-4.87l-7.28-4.2v-4.47s7.29,4.2,7.29,4.2Z"/>
        </g>
      </g>
    </g>
  </g>
</svg>