<?xml version="1.0" encoding="UTF-8"?>
<svg id="Layer_1" data-name="Layer 1" xmlns="http://www.w3.org/2000/svg" xmlns:xlink="http://www.w3.org/1999/xlink" viewBox="0 0 532.69 131.11">
  <defs>
    <style>
      .cls-1 {
        fill: url(#linear-gradient-2);
      }

      .cls-2 {
        fill: url(#linear-gradient-6);
      }

      .cls-3 {
        fill: url(#linear-gradient-11);
      }

      .cls-4 {
        fill: url(#linear-gradient-10);
      }

      .cls-5 {
        fill: url(#linear-gradient-5);
      }

      .cls-6 {
        fill: url(#linear-gradient-7);
      }

      .cls-7 {
        fill: #383838;
      }

      .cls-8 {
        fill: url(#linear-gradient-9);
      }

      .cls-9 {
        fill: url(#linear-gradient-3);
      }

      .cls-10 {
        fill: url(#linear-gradient);
      }

      .cls-11 {
        fill: #231f20;
      }

      .cls-12 {
        fill: url(#linear-gradient-4);
      }

      .cls-13 {
        fill: url(#linear-gradient-8);
      }

      .cls-14 {
        fill: url(#linear-gradient-12);
      }
    </style>
    <linearGradient id="linear-gradient" x1="65.56" y1="3.55" x2="65.56" y2="111.7" gradientUnits="userSpaceOnUse">
      <stop offset="0" stop-color="#00a4b3"/>
      <stop offset="1" stop-color="#daebc8"/>
    </linearGradient>
    <linearGradient id="linear-gradient-2" x1="65.68" y1="3.55" x2="65.68" y2="111.7" xlink:href="#linear-gradient"/>
    <linearGradient id="linear-gradient-3" x1="65.68" y1="3.55" x2="65.68" y2="111.7" xlink:href="#linear-gradient"/>
    <linearGradient id="linear-gradient-4" x1="58.51" y1="3.55" x2="58.51" y2="111.7" xlink:href="#linear-gradient"/>
    <linearGradient id="linear-gradient-5" x1="72.85" y1="3.55" x2="72.85" y2="111.7" xlink:href="#linear-gradient"/>
    <linearGradient id="linear-gradient-6" x1="65.68" y1="3.55" x2="65.68" y2="111.7" xlink:href="#linear-gradient"/>
    <linearGradient id="linear-gradient-7" x1="37.05" x2="37.05" y2="111.7" xlink:href="#linear-gradient"/>
    <linearGradient id="linear-gradient-8" x1="94.32" y1="3.55" x2="94.32" y2="111.7" xlink:href="#linear-gradient"/>
    <linearGradient id="linear-gradient-9" x1="117.89" y1="-26.68" x2="117.89" y2="192.11" xlink:href="#linear-gradient"/>
    <linearGradient id="linear-gradient-10" x1="13.22" y1="-26.68" x2="13.22" y2="192.11" xlink:href="#linear-gradient"/>
    <linearGradient id="linear-gradient-11" x1="117.89" y1="-26.68" x2="117.89" y2="192.11" xlink:href="#linear-gradient"/>
    <linearGradient id="linear-gradient-12" x1="13.22" y1="-26.68" x2="13.22" y2="192.11" xlink:href="#linear-gradient"/>
  </defs>
  <g>
    <path class="cls-10" d="m70.22,28.28h0c.03-2.47-1.89-4.53-4.35-4.69-.1,0-.21-.01-.31-.01-1.16,0-2.26.42-3.13,1.21-.95.86-1.5,2.04-1.54,3.33-.08,2.55,1.93,4.71,4.5,4.8,1.26.05,2.49-.43,3.41-1.32.92-.88,1.42-2.06,1.42-3.32Z"/>
    <path class="cls-1" d="m18.1,31.88c.09.39.22.78.39,1.15.91,2.04,2.73,3.41,4.89,3.77.14.54.35,1.07.64,1.57.77,1.35,1.95,2.34,3.34,2.87.2,1,.63,1.94,1.28,2.74,1.24,1.54,3.11,2.42,5.14,2.42,2.28,0,4.56,0,6.84,0-1.73,2.28-2.57,4.98-2.42,7.91.16,3.15,1.47,5.97,3.78,8.15.03.03.06.05.08.07h36.38c-.67-.54-1.48-.92-2.4-1.08-.38-.07-.78-.07-1.22-.07-7.32,0-14.65,0-21.97,0h-.58c-.95,0-1.93,0-2.9-.06-1.56-.11-2.98-.76-4.22-1.93-1.41-1.33-2.18-2.98-2.28-4.9-.11-2.1.58-3.94,2.05-5.47,1.06-1.1,2.36-1.8,3.88-2.08.4-.07.78-.11,1.14-.11,2.38,0,4.75,0,7.13,0,1.7,0,3.23,1.18,3.66,2.79.46,1.74-.22,3.45-1.73,4.36-.62.37-1.32.55-2.21.56-2.08.01-4.19,0-6.24,0h-.32c-1.01,0-1.76-.7-1.78-1.66,0-.48.16-.91.47-1.22.33-.33.8-.52,1.34-.52h5.19s0,0,0,0c.16,0,.32,0,.49,0,.34,0,.7,0,1.05,0,.29,0,.47-.27.49-.42.03-.36-.23-.48-.46-.51-.06,0-.13-.01-.19-.01h-2.24c-1.42,0-2.84,0-4.26,0h-.02c-1.29,0-2.3.43-3.09,1.32-.79.89-1.13,2.07-.93,3.23.2,1.17.91,2.18,1.96,2.76.6.34,1.29.49,2.18.49,3.34,0,6.68,0,10.02,0h3.39v-21.87s-.07-.02-.11-.03c-.39-.11-.79-.23-1.18-.39-2.41-.98-3.99-2.72-4.72-5.18-.98-3.33.19-6.78,2.98-8.77,2.57-1.83,5.43-2.08,8.27-.71,3.15,1.52,4.93,4.88,4.43,8.37-.47,3.21-2.8,5.81-5.95,6.63l-.31.08s-.02,0-.02,0v21.87c.42,0,.83,0,1.24,0,.26,0,.52,0,.79,0,.68,0,1.36,0,2.04,0,1.29,0,2.57,0,3.86,0,3.3.01,6.14,1.78,7.57,4.55h6.57c.18-.16.36-.32.53-.5,3.05-3.25,4.08-7.4,2.91-11.67-.4-1.46-1.07-2.8-1.95-3.97h6.47s.06,0,.06,0c.07,0,.15,0,.24,0,.16,0,.37,0,.59-.02,2.91-.21,5.33-2.36,5.88-5.16.25-.1.5-.21.74-.33,1.67-.89,2.81-2.37,3.25-4.08,1.66-.28,3.16-1.19,4.17-2.55.53-.72.89-1.53,1.09-2.37,3.45-.25,6.08-3,6.09-6.46,0-1.77-.67-3.42-1.89-4.64-1.23-1.23-2.9-1.91-4.71-1.92-1.74,0-3.48,0-5.23,0h-8.94s-2.58,0-2.58,0h-5.01c-.63.01-1.26.01-1.89.01-3.21,0-6.42.01-9.63.02-1.32,0-2.59.32-3.7.91-1.17-1.46-2.67-2.68-4.45-3.54-4.46-2.15-9.13-1.75-13.16,1.13-.98.7-1.83,1.51-2.56,2.4-1.08-.57-2.29-.88-3.56-.89-1.54-.02-3.02-.02-4.27-.02-2.33,0-4.65,0-6.98,0h0s-7.38,0-7.38,0h-6.75c-2.68,0-5.36,0-8.03,0-1.24,0-2.5.36-3.56,1-2.56,1.56-3.71,4.75-2.74,7.59.87,2.53,3.1,4.22,5.76,4.41Zm68.08,27.3c-.4.43-.91.65-1.41.65-.38,0-.74-.13-1.04-.39-.37-.33-.59-.76-.61-1.22-.02-.48.19-.96.57-1.35.47-.47.8-1.01,1-1.64.62-1.89-.5-4.12-2.39-4.79-.67-.23-1.37-.24-2.12-.24-1.29,0-2.58,0-3.87,0-.66,0-1.32,0-1.99,0h0c-.42,0-.55.08-.64.24-.09.14-.09.32-.01.47.04.07.14.22.36.23.32.02.64.01.98.01.14,0,.27,0,.41,0h1.75c1.24,0,2.49,0,3.73,0,.62,0,1.17.3,1.49.79.31.48.34,1.1.08,1.65-.28.6-.82.94-1.48.95-.95.01-1.89,0-2.84,0-.41,0-.82,0-1.23,0h-.65c-.56,0-1.14,0-1.71,0-1.55.03-2.69-.44-3.48-1.45-.97-1.23-1.15-2.62-.5-4.02.65-1.42,1.87-2.21,3.42-2.24.84-.02,1.68-.01,2.5,0,.37,0,.73,0,1.12,0h1.06s2.33,0,2.33,0c3.23,0,6.09,2.16,6.93,5.25.73,2.67.14,5.06-1.78,7.1Zm11.49-17.17c-.08,0-.16,0-.24,0-.05,0-.11,0-.16,0h-.14s-9.65,0-9.65,0h-2.49c-2.49,0-4.98,0-7.48,0-.75,0-1.34-.37-1.6-1.01-.29-.72-.12-1.48.44-1.92.32-.25.72-.41,1.08-.42,1.18-.03,2.36-.03,3.52-.03h.48c5.22,0,10.45,0,15.67,0,.31,0,.67.02,1.01.12.78.25,1.21.98,1.09,1.87-.1.72-.77,1.33-1.53,1.38Zm4.71-4.95c-.24.13-.54.2-.84.2-1.5,0-3.01,0-4.51,0h-1.76c-.87,0-1.74,0-2.6,0h-1.16s-2.68,0-2.68,0c-2.39,0-4.86,0-7.29.01h-.01c-.62,0-1.2-.34-1.51-.89-.3-.54-.28-1.18.06-1.71.32-.51.82-.78,1.45-.78h0c.94,0,1.88,0,2.82,0,.74,0,1.47,0,2.21,0h3.62c1.72,0,3.43.01,5.15.01,1.13,0,2.26,0,3.4,0,.95,0,1.89,0,2.84,0h0c.8,0,1.48.51,1.66,1.24.19.8-.13,1.53-.84,1.91Zm5.79-5.23c-.32.43-.81.68-1.35.68-1.67,0-3.35,0-5.02,0h-5.79s-.58,0-.58,0h-11.27c-.67,0-1.24-.28-1.56-.78-.31-.46-.35-1.05-.11-1.59.23-.54.68-.89,1.26-.98.15-.02.31-.03.5-.03,3.27,0,6.54,0,9.8,0h12.55c.98,0,1.6.41,1.84,1.2.16.52.07,1.07-.25,1.5Zm-31.91-1.96c.09-.78.12-1.64.09-2.63-.03-.84.27-1.62.83-2.2.56-.58,1.33-.9,2.19-.9,3.21,0,6.42-.02,9.62-.02,1.59,0,3.19,0,4.78,0h1.55s.58-.01.58-.01h2.58s8.84,0,8.84,0c1.77,0,3.55,0,5.32,0,.51,0,.95.17,1.28.48.33.31.51.76.5,1.25,0,.98-.74,1.67-1.79,1.67h-32.7s-.1,0-.15,0c0,.06,0,.12,0,.18.07,1.74-.19,3.48-.76,5.18-.64,1.92-1.68,3.66-3.07,5.17-1.63,1.77-3.64,3.06-5.97,3.86-.22.07-.44.11-.65.11-.6,0-1.14-.29-1.44-.82-.41-.72-.28-1.59.32-2.11.25-.22.56-.35.77-.42,2.34-.82,4.24-2.3,5.63-4.4.92-1.39,1.48-2.87,1.65-4.4Zm-51.89,2.65h0c-.75,0-1.32-.36-1.62-1.02-.26-.58-.17-1.21.23-1.73.34-.43.82-.64,1.47-.64h0c1.32,0,2.65,0,3.97,0h1.89s12.41,0,12.41,0h1.2c1.04,0,2.07,0,3.11,0,1,0,1.74.7,1.75,1.64,0,.48-.16.92-.48,1.24-.32.32-.75.5-1.23.5-1.58,0-3.16,0-4.74,0h-1.85s-4.81,0-4.81,0h-2.7c-2.87,0-5.73,0-8.6,0Zm5.19,4.76c-.66,0-1.19-.3-1.5-.85-.33-.58-.31-1.21.06-1.77.32-.5.82-.75,1.49-.75h0c1.43,0,2.86,0,4.28,0h4.93c3.58,0,7.15,0,10.73,0,.59,0,1.11.25,1.43.69.31.43.4.98.23,1.52-.23.72-.86,1.16-1.68,1.16-3,0-6,0-9,0h-3.42c-2.52,0-5.03,0-7.55,0h0Zm25.26,4.28c-.31.31-.72.47-1.25.47h0c-2.57,0-5.15,0-7.72,0h-4.89c-2.44,0-4.89,0-7.33,0-.57,0-1.06-.22-1.38-.62-.32-.4-.43-.92-.31-1.47.16-.74.88-1.29,1.7-1.29h19.9c.99,0,1.45.56,1.65,1.02.29.66.15,1.37-.37,1.9ZM17.44,24.42c.31-.19.7-.3,1.07-.3,2.69,0,5.39,0,8.08,0h6.69s2.56,0,2.56,0h0s2.91,0,2.91,0c2.96,0,5.92,0,8.88,0,1.24,0,2.72,0,4.22.02.82.01,1.56.33,2.1.89.53.56.81,1.31.78,2.12-.04,1.23-.04,2.54.3,3.78.57,2.09,1.53,3.77,2.94,5.15,1.21,1.17,2.63,2.05,4.36,2.67.89.32,1.32,1.22,1.02,2.14-.23.69-.87,1.12-1.57,1.12-.17,0-.34-.03-.52-.08-1.47-.45-2.88-1.17-4.18-2.16-1.46-1.11-2.69-2.46-3.65-4.03-1.45-2.36-2.16-5.01-2.11-7.87,0-.12,0-.25.02-.36h-24.32c-1.76,0-3.52,0-5.28,0h-3.27s0,0,0,0c-.84,0-1.47-.43-1.72-1.18-.25-.72.04-1.52.68-1.91Z"/>
    <rect class="cls-9" x="62.1" y="113.12" width="7.17" height="3.18"/>
    <polygon class="cls-12" points="62.1 103.57 62.1 100.39 54.93 100.39 54.93 103.57 54.93 106.75 62.1 106.75 62.1 103.57"/>
    <polygon class="cls-5" points="69.27 103.57 69.27 106.75 76.44 106.75 76.44 103.57 76.44 100.39 69.27 100.39 69.27 103.57"/>
    <polygon class="cls-2" points="69.27 78.11 62.1 78.11 54.93 78.11 47.76 78.11 47.76 81.3 47.76 84.48 47.76 87.66 47.76 90.84 47.76 94.02 47.76 97.21 54.93 97.21 54.93 94.02 62.1 94.02 62.1 90.84 69.27 90.84 69.27 87.66 62.1 87.66 54.93 87.66 54.93 84.48 62.1 84.48 62.1 81.3 69.27 81.3 69.27 84.48 69.27 87.66 76.44 87.66 76.44 90.84 69.27 90.84 69.27 94.02 76.44 94.02 76.44 97.21 83.61 97.21 83.61 94.02 83.61 90.84 83.61 87.66 83.61 84.48 83.61 81.3 83.61 78.11 76.44 78.11 69.27 78.11"/>
    <path class="cls-6" d="m54.93,74.93h7.17v-6.36h-20.14v-6.03H14.29c-1.27,0-2.29,1.36-2.29,3.03s1.03,3.03,2.29,3.03h26.3v9.52h7.17v-3.18h7.17Z"/>
    <path class="cls-13" d="m117.08,62.54h-27.67v6.03h-5.8v3.18h-7.17v-3.18h-7.17v6.36h14.34v3.18h7.17v-9.52h26.3c1.27,0,2.29-1.36,2.29-3.03s-1.03-3.03-2.29-3.03Z"/>
  </g>
  <g>
    <path class="cls-8" d="m113.53,0h-8.87v7.11h8.87c5.77,0,10.46,4.69,10.46,10.46v8.87h7.11v-8.87c0-9.69-7.89-17.58-17.58-17.58Z"/>
    <path class="cls-4" d="m0,17.58v8.87h7.11v-8.87c0-5.77,4.69-10.46,10.46-10.46h8.87V0h-8.87C7.89,0,0,7.89,0,17.58Z"/>
    <path class="cls-3" d="m124,113.53c0,5.77-4.69,10.46-10.46,10.46h-8.87v7.11h8.87c9.69,0,17.58-7.89,17.58-17.58v-8.87h-7.11v8.87Z"/>
    <path class="cls-14" d="m7.11,113.53v-8.87H0v8.87c0,9.69,7.89,17.58,17.58,17.58h8.87v-7.11h-8.87c-5.77,0-10.46-4.69-10.46-10.46Z"/>
  </g>
  <rect class="cls-7" x="235.45" y="59.33" width="10.04" height="8.93"/>
  <polygon class="cls-7" points="217.19 90.52 246.79 90.52 246.79 81.52 228.09 81.52 228.09 71.67 228.09 68.26 228.09 59.33 228.09 57.08 228.09 48.05 246.79 48.05 246.79 39.12 217.19 39.12 217.19 90.52"/>
  <path class="cls-7" d="m164.14,39.12h-14.84v51.4h9.74v-23.91c0-1.76-.05-3.73-.14-5.91s-.19-4.24-.3-6.17-.18-3.38-.23-4.34h.32l12.38,40.32h8.98l-12-38.78-3.91-12.62Z"/>
  <path class="cls-7" d="m181.22,64.08l4.13,13.36,8.95-27.17h.32c-.05.96-.12,2.4-.21,4.31-.09,1.91-.17,3.92-.23,6.03s-.09,3.97-.09,5.59v24.33h10.16v-51.4h-14.84l-8.19,24.96Z"/>
  <path class="cls-7" d="m287.68,41.98c-3.96-1.91-8.64-2.87-14.03-2.87h-16.14v51.4h10.9v-42.47h5.8c3.19,0,5.87.59,8.03,1.76,2.17,1.17,3.81,2.98,4.92,5.43,1.11,2.45,1.67,5.57,1.67,9.37,0,5.6-1.29,9.82-3.88,12.66-1.88,2.06-4.49,3.36-7.8,3.92v9.05c3.77-.41,7.14-1.29,10.07-2.66,4.2-1.96,7.4-4.87,9.62-8.75,2.21-3.88,3.32-8.71,3.32-14.5s-1.09-10.13-3.27-13.87c-2.18-3.74-5.25-6.56-9.21-8.47Z"/>
  <rect class="cls-7" x="310.81" y="39.12" width="10.9" height="51.4"/>
  <g>
    <path class="cls-11" d="m355.52,41.65c-3.28,0-6.21.56-8.79,1.67-2.58,1.11-4.76,2.69-6.54,4.73s-3.14,4.47-4.08,7.29c-.94,2.82-1.41,5.94-1.41,9.33,0,4.69.74,8.78,2.21,12.29,1.48,3.5,3.7,6.22,6.66,8.14,2.96,1.92,6.66,2.88,11.09,2.88,2.58,0,4.92-.19,7.03-.58s4.07-.88,5.87-1.49v3.16c-1.71.63-3.64,1.15-5.78,1.55s-4.63.6-7.47.6c-5.13,0-9.44-1.1-12.92-3.3-3.48-2.2-6.1-5.3-7.86-9.28-1.76-3.98-2.64-8.64-2.64-13.96,0-3.82.55-7.33,1.65-10.53s2.71-5.98,4.83-8.33,4.71-4.18,7.75-5.48,6.52-1.95,10.41-1.95c2.46,0,4.81.24,7.05.72,2.24.48,4.34,1.18,6.31,2.09l-1.41,3.16c-1.9-.94-3.84-1.62-5.84-2.06-1.99-.43-4.04-.65-6.15-.65Z"/>
    <path class="cls-11" d="m421.61,64.75c0,3.91-.48,7.49-1.44,10.72s-2.4,6.02-4.32,8.37c-1.92,2.34-4.32,4.16-7.19,5.45s-6.22,1.93-10.04,1.93-7.21-.65-10.09-1.93-5.28-3.11-7.19-5.47-3.35-5.16-4.31-8.4c-.96-3.25-1.44-6.83-1.44-10.74,0-5.2.88-9.79,2.65-13.75,1.77-3.96,4.38-7.05,7.84-9.28,3.46-2.23,7.73-3.34,12.81-3.34s9.01,1.06,12.39,3.18c3.39,2.12,5.95,5.16,7.7,9.11,1.75,3.95,2.62,8.67,2.62,14.15Zm-42.22-.04c0,4.59.69,8.64,2.07,12.15,1.38,3.5,3.5,6.24,6.36,8.21s6.47,2.95,10.83,2.95,8.03-.97,10.86-2.92c2.84-1.95,4.93-4.66,6.29-8.16,1.36-3.49,2.04-7.56,2.04-12.2,0-7.34-1.6-13.03-4.8-17.09-3.2-4.05-7.92-6.08-14.15-6.08-4.38,0-8.02.97-10.92,2.92-2.89,1.95-5.05,4.65-6.47,8.12-1.42,3.47-2.13,7.5-2.13,12.09Z"/>
    <path class="cls-11" d="m472.48,64.33c0,5.74-1.01,10.56-3.04,14.45-2.03,3.89-5.03,6.82-9,8.79s-8.89,2.95-14.75,2.95h-12.3v-51.4h13.92c5.48,0,10.09.96,13.82,2.88,3.73,1.92,6.55,4.75,8.47,8.49,1.92,3.74,2.88,8.35,2.88,13.83Zm-3.8.14c0-4.9-.8-8.99-2.39-12.27-1.59-3.28-4.03-5.75-7.31-7.4s-7.44-2.48-12.48-2.48h-9.49v45h8.51c7.76,0,13.56-1.9,17.4-5.71,3.84-3.81,5.77-9.52,5.77-17.14Z"/>
    <path class="cls-11" d="m512.32,90.52h-28.09v-51.4h28.09v3.27h-24.47v19.48h23.1v3.27h-23.1v22.11h24.47v3.27Z"/>
  </g>
  <path class="cls-11" d="m524.99,53.17c-1.11,0-2.14-.19-3.08-.57-.94-.38-1.75-.91-2.45-1.6-.69-.69-1.23-1.5-1.61-2.44-.38-.94-.57-1.96-.57-3.08s.19-2.06.58-3,.93-1.75,1.63-2.45c.7-.7,1.52-1.25,2.45-1.65.94-.4,1.95-.6,3.04-.6s2.06.19,3,.57c.93.38,1.75.92,2.45,1.61.7.69,1.25,1.51,1.65,2.44s.6,1.96.6,3.08-.19,2.14-.57,3.08c-.38.94-.92,1.75-1.61,2.44-.69.69-1.51,1.22-2.44,1.6s-1.96.57-3.08.57Zm0-1.34c.86,0,1.67-.16,2.42-.47.75-.31,1.41-.75,1.99-1.32s1.02-1.24,1.34-2.01.48-1.63.48-2.56c0-.87-.16-1.7-.47-2.47-.31-.77-.75-1.45-1.32-2.04-.56-.59-1.22-1.05-1.98-1.38-.75-.33-1.58-.5-2.46-.5s-1.72.16-2.48.47c-.76.31-1.43.76-1.99,1.33-.57.57-1.01,1.24-1.32,2.02-.31.78-.47,1.63-.47,2.56s.15,1.78.46,2.56c.31.77.74,1.45,1.3,2.01s1.22,1.01,1.99,1.32c.76.31,1.6.47,2.52.47Zm-2.98-1.76v-9.27h2.8c1.14,0,1.98.24,2.51.73s.8,1.18.8,2.09c0,.66-.17,1.18-.5,1.56s-.71.65-1.14.82l2.44,4.07h-1.91l-2-3.52h-1.3v3.52h-1.7Zm1.7-4.93h1.04c.55,0,.96-.14,1.23-.42.27-.28.41-.63.41-1.07,0-.5-.12-.86-.37-1.08-.25-.22-.68-.33-1.29-.33h-1.02v2.9Z"/>
</svg>