<?xml version="1.0" encoding="UTF-8"?>
<svg id="Layer_1" data-name="Layer 1" xmlns="http://www.w3.org/2000/svg" xmlns:xlink="http://www.w3.org/1999/xlink" viewBox="0 0 491.67 450.01">
  <defs>
    <style>
      .cls-1 {
        fill: url(#linear-gradient);
        fill-rule: evenodd;
      }
    </style>
    <linearGradient id="linear-gradient" x1="245.83" y1="-104" x2="245.83" y2="632.26" gradientUnits="userSpaceOnUse">
      <stop offset="0" stop-color="#00a3b2"/>
      <stop offset="1" stop-color="#d9eac7"/>
    </linearGradient>
  </defs>
  <path class="cls-1" d="m155.59,57.69c-5.12,19.91-23.19,34.62-44.7,34.62s-39.58-14.71-44.7-34.62h-11.84c5.35,26.33,28.63,46.15,56.54,46.15s51.19-19.82,56.54-46.15h-11.84Zm0-23.08C150.47,14.71,132.39,0,110.89,0s-39.58,14.71-44.7,34.62H30.12v11.54c0,44.61,36.16,80.77,80.77,80.77s80.77-36.16,80.77-80.77v-11.54h-36.07Zm243.76,126.92c25.49,0,46.15-20.66,46.15-46.15s-20.66-46.15-46.15-46.15-46.15,20.66-46.15,46.15,20.66,46.15,46.15,46.15Zm-173.08,173.08h-11.54v115.39h23.08v-92.31h138.46v92.31h23.08v-115.39h-173.08Zm118.77-190.14c7.7,1.14,14.31,6.09,17.57,13.16l28.43,61.59h77.54c12.75,0,23.08,10.33,23.08,23.08s-10.33,23.08-23.08,23.08h-92.31c-9,0-17.18-5.23-20.95-13.41l-16.91-36.65c-7.78,15.92-15.35,36.81-18.41,61.59h102.43c9.7,0,18.37,6.07,21.69,15.19l46.15,126.92c4.36,11.98-1.82,25.22-13.8,29.57-11.98,4.36-25.22-1.82-29.57-13.8l-40.63-111.73h-110.76c-6.12,0-11.99-2.43-16.32-6.76-4.33-4.33-6.76-10.2-6.76-16.32,0-23.17,3.42-44.17,8.48-62.57-16.77,17.24-40.22,27.95-66.17,27.95h-38.95v164.78c0,10.91-8.93,19.84-19.84,19.84s-19.84-8.93-19.84-19.84v-135.62h-51.82v135.62c0,10.91-8.93,19.84-19.84,19.84s-19.84-8.93-19.84-19.84v-196.01c-10.91,0-44.61-20.77-44.61-71.92,0-33.74,25.82-53.15,39.58-57.47,14.63,17.78,35.77,29.99,59.78,32.98v51.44c0,42.08,34.11,76.19,76.19,76.19v-23.08c-29.34,0-53.12-23.78-53.12-53.12v-51.44c21.5-2.68,40.71-12.76,54.99-27.61l53.25,43.05h36.36c8.33,0,15.28,5.88,16.93,13.71v-16.9h23.08v23.08h0v.35s0,3.07,0,3.07c3.11-5.16,6.03-9.55,8.55-13.12,2.45-3.47,4.53-6.18,6.06-8.09.77-.96,1.39-1.71,1.86-2.27.23-.28.43-.5.58-.67l.19-.22.07-.08.03-.03h.01s.01-.03,17.26,15.3l-17.25-15.33c5.17-5.82,12.93-8.64,20.63-7.5Zm-61.08,29.65c-.56,37.75-31.34,68.18-69.22,68.18h-38.95v-88.98l37.88,30.63c3.08,2.49,6.92,3.85,10.88,3.85h42.48c8.31,0,15.26-5.86,16.93-13.68Zm75,8.45s.01-.02,0,0h0Z"/>
</svg>