<?xml version="1.0" encoding="UTF-8"?>
<svg id="Layer_1" data-name="Layer 1" xmlns="http://www.w3.org/2000/svg" viewBox="0 0 122.11 111">
  <defs>
    <style>
      .cls-1 {
        fill: #fff;
      }
    </style>
  </defs>
  <path class="cls-1" d="m83.28,100h-16.72v-11.22h34.56l-11-11H16.61c-3.09,0-5.61-2.52-5.61-5.61V16.61c0-3.09,2.52-5.61,5.61-5.61h88.89c3.09,0,5.61,2.52,5.61,5.61v39.73l11,11V16.61c0-9.16-7.45-16.61-16.61-16.61H16.61C7.45,0,0,7.45,0,16.61v55.56c0,9.16,7.45,16.61,16.61,16.61h38.94v11.22h-16.72c-3.04,0-5.5,2.46-5.5,5.5s2.46,5.5,5.5,5.5h44.45c3.04,0,5.5-2.46,5.5-5.5s-2.46-5.5-5.5-5.5Z"/>
</svg>