<?xml version="1.0" encoding="UTF-8"?>
<svg id="Layer_1" data-name="Layer 1" xmlns="http://www.w3.org/2000/svg" viewBox="0 0 450.85 36.96">
  <path d="m33.07,32.44V7.4h5.31v25.04h-5.31Z"/>
  <path d="m130.24,19.88c0,1.93-.24,3.69-.72,5.27-.48,1.58-1.21,2.94-2.18,4.08-.98,1.14-2.21,2.02-3.71,2.63s-3.27.92-5.31.92-3.81-.31-5.31-.92-2.73-1.49-3.71-2.63c-.98-1.14-1.7-2.51-2.18-4.09-.48-1.59-.72-3.35-.72-5.29,0-2.59.42-4.85,1.28-6.77s2.16-3.42,3.93-4.48c1.77-1.06,4.02-1.59,6.75-1.59s4.95.53,6.71,1.59c1.75,1.06,3.05,2.56,3.9,4.49.85,1.93,1.28,4.2,1.28,6.8Zm-18.27,0c0,1.75.22,3.25.66,4.51.44,1.26,1.13,2.23,2.06,2.91.94.68,2.15,1.02,3.63,1.02s2.73-.34,3.67-1.02c.94-.68,1.62-1.65,2.05-2.91.43-1.26.64-2.77.64-4.51,0-2.63-.49-4.69-1.47-6.2-.98-1.51-2.6-2.26-4.85-2.26-1.5,0-2.71.34-3.66,1.02-.94.68-1.63,1.65-2.07,2.91-.44,1.26-.66,2.77-.66,4.53Z"/>
  <path d="m139.88,28.36l.26.39c-.21.82-.47,1.71-.8,2.65s-.68,1.9-1.06,2.84c-.38.95-.77,1.85-1.16,2.71h-3.77c.23-.92.45-1.9.67-2.91s.42-2.02.61-3,.34-1.88.45-2.69h4.79Z"/>
  <path d="m174.19,7.4l-8.51,25.04h-5.79l-8.49-25.04h5.36l4.71,14.9c.08.25.21.72.39,1.41s.37,1.42.56,2.19c.19.77.32,1.41.39,1.91.07-.5.19-1.14.37-1.9.18-.77.35-1.49.53-2.18.18-.69.31-1.17.39-1.43l4.74-14.9h5.36Z"/>
  <path d="m177.34,32.44V7.4h5.31v25.04h-5.31Z"/>
  <path d="m255.2,19.88c0,1.93-.24,3.69-.72,5.27-.48,1.58-1.21,2.94-2.18,4.08-.98,1.14-2.21,2.02-3.71,2.63s-3.27.92-5.31.92-3.81-.31-5.31-.92-2.73-1.49-3.71-2.63c-.98-1.14-1.7-2.51-2.18-4.09-.48-1.59-.72-3.35-.72-5.29,0-2.59.42-4.85,1.28-6.77s2.16-3.42,3.93-4.48c1.77-1.06,4.02-1.59,6.75-1.59s4.95.53,6.71,1.59c1.75,1.06,3.05,2.56,3.9,4.49.85,1.93,1.28,4.2,1.28,6.8Zm-18.27,0c0,1.75.22,3.25.66,4.51.44,1.26,1.13,2.23,2.06,2.91.94.68,2.15,1.02,3.63,1.02s2.73-.34,3.67-1.02c.94-.68,1.62-1.65,2.05-2.91.43-1.26.64-2.77.64-4.51,0-2.63-.49-4.69-1.47-6.2-.98-1.51-2.6-2.26-4.85-2.26-1.5,0-2.71.34-3.66,1.02-.94.68-1.63,1.65-2.07,2.91-.44,1.26-.66,2.77-.66,4.53Z"/>
  <path d="m317.89,7.4l-8.51,25.04h-5.79l-8.49-25.04h5.36l4.71,14.9c.08.25.21.72.39,1.41s.37,1.42.56,2.19c.19.77.32,1.41.39,1.91.07-.5.19-1.14.37-1.9.18-.77.35-1.49.53-2.18.18-.69.31-1.17.39-1.43l4.74-14.9h5.36Z"/>
  <path d="m345.24,32.44V7.4h5.31v20.65h10.16v4.38h-15.46Z"/>
  <path d="m387.79,19.88c0,1.93-.24,3.69-.72,5.27-.48,1.58-1.21,2.94-2.18,4.08-.98,1.14-2.21,2.02-3.71,2.63s-3.27.92-5.31.92-3.81-.31-5.31-.92-2.73-1.49-3.71-2.63c-.98-1.14-1.7-2.51-2.18-4.09-.48-1.59-.72-3.35-.72-5.29,0-2.59.42-4.85,1.28-6.77s2.16-3.42,3.93-4.48c1.77-1.06,4.02-1.59,6.75-1.59s4.95.53,6.71,1.59c1.75,1.06,3.05,2.56,3.9,4.49.85,1.93,1.28,4.2,1.28,6.8Zm-18.27,0c0,1.75.22,3.25.66,4.51.44,1.26,1.13,2.23,2.06,2.91.94.68,2.15,1.02,3.63,1.02s2.73-.34,3.67-1.02c.94-.68,1.62-1.65,2.05-2.91.43-1.26.64-2.77.64-4.51,0-2.63-.49-4.69-1.47-6.2-.98-1.51-2.6-2.26-4.85-2.26-1.5,0-2.71.34-3.66,1.02-.94.68-1.63,1.65-2.07,2.91-.44,1.26-.66,2.77-.66,4.53Z"/>
  <g>
    <path d="m19.54,7.4l-4,12.19,1.98,6.6,4.4-13.37h.15c-.02.47-.06,1.17-.1,2.1-.05.93-.08,1.91-.11,2.94-.03,1.03-.04,1.94-.04,2.72v11.85h4.95V7.4h-7.23Z"/>
    <path d="m10.6,32.44h4.38l-3.04-9.84L7.23,7.4H0v25.04h4.74v-11.65c0-.86-.02-1.82-.07-2.88-.04-1.06-.09-2.06-.15-3.01-.05-.94-.09-1.65-.11-2.12h.15l6.03,19.64Z"/>
  </g>
  <g>
    <path d="m45.54,19.18c.62.57,1.27,1.05,1.95,1.45.68.39,1.32.73,1.9,1,.05.02.09.05.14.07l2.51-4.35c-.49-.25-.94-.48-1.33-.68-.7-.38-1.23-.77-1.58-1.17s-.52-.9-.52-1.5c0-.5.12-.94.36-1.33.24-.38.59-.68,1.06-.89.47-.21,1.03-.32,1.7-.32.95,0,1.88.13,2.79.39.91.26,1.95.62,3.1,1.09l1.71-4.13c-1.29-.57-2.53-1.01-3.71-1.31-1.18-.3-2.42-.45-3.73-.45-1.74,0-3.24.28-4.51.85-1.27.57-2.25,1.38-2.94,2.44-.69,1.06-1.03,2.34-1.03,3.84,0,1.14.2,2.12.59,2.94.39.82.9,1.51,1.52,2.08Z"/>
    <path d="m58.72,22.19c-.49-.88-1.19-1.66-2.1-2.31-.29-.21-.61-.42-.94-.63l-2.56,4.43c.18.15.35.29.5.45.42.45.63.98.63,1.61,0,.51-.12.97-.36,1.37-.24.4-.62.71-1.16.94-.53.23-1.23.34-2.1.34-1.26,0-2.52-.21-3.8-.63-1.28-.42-2.51-.9-3.7-1.42v4.93c.69.33,1.41.61,2.17.83.76.22,1.55.39,2.38.51.83.11,1.67.17,2.54.17,1.96,0,3.63-.3,5.01-.89,1.38-.59,2.42-1.44,3.14-2.53.72-1.1,1.08-2.39,1.08-3.87,0-1.31-.25-2.41-.74-3.3Z"/>
  </g>
  <g>
    <path d="m64.93,19.18c.62.57,1.27,1.05,1.95,1.45.68.39,1.32.73,1.9,1,.05.02.09.05.14.07l2.51-4.35c-.49-.25-.94-.48-1.33-.68-.7-.38-1.23-.77-1.58-1.17s-.52-.9-.52-1.5c0-.5.12-.94.36-1.33.24-.38.59-.68,1.06-.89.47-.21,1.03-.32,1.7-.32.95,0,1.88.13,2.79.39.91.26,1.95.62,3.1,1.09l1.71-4.13c-1.29-.57-2.53-1.01-3.71-1.31-1.18-.3-2.42-.45-3.73-.45-1.74,0-3.24.28-4.51.85-1.27.57-2.25,1.38-2.94,2.44-.69,1.06-1.03,2.34-1.03,3.84,0,1.14.2,2.12.59,2.94.39.82.9,1.51,1.52,2.08Z"/>
    <path d="m78.12,22.19c-.49-.88-1.19-1.66-2.1-2.31-.29-.21-.61-.42-.94-.63l-2.56,4.43c.18.15.35.29.5.45.42.45.63.98.63,1.61,0,.51-.12.97-.36,1.37-.24.4-.62.71-1.16.94-.53.23-1.23.34-2.1.34-1.26,0-2.52-.21-3.8-.63-1.28-.42-2.51-.9-3.7-1.42v4.93c.69.33,1.41.61,2.17.83.76.22,1.55.39,2.38.51.83.11,1.67.17,2.54.17,1.96,0,3.63-.3,5.01-.89,1.38-.59,2.42-1.44,3.14-2.53.72-1.1,1.08-2.39,1.08-3.87,0-1.31-.25-2.41-.74-3.3Z"/>
  </g>
  <g>
    <path d="m189.93,19.18c.62.57,1.27,1.05,1.95,1.45.68.39,1.32.73,1.9,1,.05.02.09.05.14.07l2.51-4.35c-.49-.25-.94-.48-1.33-.68-.7-.38-1.23-.77-1.58-1.17s-.52-.9-.52-1.5c0-.5.12-.94.36-1.33.24-.38.59-.68,1.06-.89.47-.21,1.03-.32,1.7-.32.95,0,1.88.13,2.79.39.91.26,1.95.62,3.1,1.09l1.71-4.13c-1.29-.57-2.53-1.01-3.71-1.31-1.18-.3-2.42-.45-3.73-.45-1.74,0-3.24.28-4.51.85-1.27.57-2.25,1.38-2.94,2.44-.69,1.06-1.03,2.34-1.03,3.84,0,1.14.2,2.12.59,2.94.39.82.9,1.51,1.52,2.08Z"/>
    <path d="m203.12,22.19c-.49-.88-1.19-1.66-2.1-2.31-.29-.21-.61-.42-.94-.63l-2.56,4.43c.18.15.35.29.5.45.42.45.63.98.63,1.61,0,.51-.12.97-.36,1.37-.24.4-.62.71-1.16.94-.53.23-1.23.34-2.1.34-1.26,0-2.52-.21-3.8-.63-1.28-.42-2.51-.9-3.7-1.42v4.93c.69.33,1.41.61,2.17.83.76.22,1.55.39,2.38.51.83.11,1.67.17,2.54.17,1.96,0,3.63-.3,5.01-.89,1.38-.59,2.42-1.44,3.14-2.53.72-1.1,1.08-2.39,1.08-3.87,0-1.31-.25-2.41-.74-3.3Z"/>
  </g>
  <g>
    <path d="m436.93,19.18c.62.57,1.27,1.05,1.95,1.45.68.39,1.32.73,1.9,1,.05.02.09.05.14.07l2.51-4.35c-.49-.25-.94-.48-1.33-.68-.7-.38-1.23-.77-1.58-1.17s-.52-.9-.52-1.5c0-.5.12-.94.36-1.33.24-.38.59-.68,1.06-.89.47-.21,1.03-.32,1.7-.32.95,0,1.88.13,2.79.39.91.26,1.95.62,3.1,1.09l1.71-4.13c-1.29-.57-2.53-1.01-3.71-1.31-1.18-.3-2.42-.45-3.73-.45-1.74,0-3.24.28-4.51.85-1.27.57-2.25,1.38-2.94,2.44-.69,1.06-1.03,2.34-1.03,3.84,0,1.14.2,2.12.59,2.94.39.82.9,1.51,1.52,2.08Z"/>
    <path d="m450.12,22.19c-.49-.88-1.19-1.66-2.1-2.31-.29-.21-.61-.42-.94-.63l-2.56,4.43c.18.15.35.29.5.45.42.45.63.98.63,1.61,0,.51-.12.97-.36,1.37-.24.4-.62.71-1.16.94-.53.23-1.23.34-2.1.34-1.26,0-2.52-.21-3.8-.63-1.28-.42-2.51-.9-3.7-1.42v4.93c.69.33,1.41.61,2.17.83.76.22,1.55.39,2.38.51.83.11,1.67.17,2.54.17,1.96,0,3.63-.3,5.01-.89,1.38-.59,2.42-1.44,3.14-2.53.72-1.1,1.08-2.39,1.08-3.87,0-1.31-.25-2.41-.74-3.3Z"/>
  </g>
  <g>
    <path d="m88.41,3.95c.33-.3.67-.45,1.02-.45.41,0,.83.09,1.25.27.42.18.85.39,1.29.62.44.23.88.44,1.34.62.45.18.91.27,1.38.27,1.19,0,2.23-.43,3.12-1.29.89-.86,1.4-2.19,1.54-4h-2.55c-.15.6-.38,1.06-.71,1.36-.33.3-.66.45-1,.45-.41,0-.83-.09-1.26-.27-.43-.18-.86-.39-1.3-.62s-.88-.45-1.34-.63c-.45-.18-.91-.27-1.38-.27-.6,0-1.17.11-1.7.32-.53.21-1.01.53-1.43.96-.42.43-.76.98-1.03,1.64s-.43,1.46-.5,2.37h2.55c.15-.62.39-1.08.71-1.38Z"/>
    <path d="m98.65,32.44h5.72l-8.87-25.14h-6.49l-8.84,25.14h5.72l1.71-5.6h0l1.45-4.81h0l1.8-5.82c.08-.26.21-.7.39-1.32s.37-1.27.57-1.96c.2-.69.36-1.27.47-1.74.11.47.27,1.02.45,1.65.19.63.38,1.26.57,1.87s.34,1.11.45,1.5l1.44,4.61h0s.38,1.21.38,1.21h-.02l1.52,5.21h0l1.58,5.2Z"/>
  </g>
  <g>
    <path d="m213.41,3.95c.33-.3.67-.45,1.02-.45.41,0,.83.09,1.25.27.42.18.85.39,1.29.62.44.23.88.44,1.34.62.45.18.91.27,1.38.27,1.19,0,2.23-.43,3.12-1.29.89-.86,1.4-2.19,1.54-4h-2.55c-.15.6-.38,1.06-.71,1.36-.33.3-.66.45-1,.45-.41,0-.83-.09-1.26-.27-.43-.18-.86-.39-1.3-.62s-.88-.45-1.34-.63c-.45-.18-.91-.27-1.38-.27-.6,0-1.17.11-1.7.32-.53.21-1.01.53-1.43.96-.42.43-.76.98-1.03,1.64s-.43,1.46-.5,2.37h2.55c.15-.62.39-1.08.71-1.38Z"/>
    <path d="m223.65,32.44h5.72l-8.87-25.14h-6.49l-8.84,25.14h5.72l1.71-5.6h0l1.45-4.81h0l1.8-5.82c.08-.26.21-.7.39-1.32s.37-1.27.57-1.96c.2-.69.36-1.27.47-1.74.11.47.27,1.02.45,1.65.19.63.38,1.26.57,1.87s.34,1.11.45,1.5l1.44,4.61h0s.38,1.21.38,1.21h-.02l1.52,5.21h0l1.58,5.2Z"/>
  </g>
  <path d="m336.65,32.44h5.72l-8.87-25.14h-6.49l-8.84,25.14h5.72l1.71-5.6h0l1.45-4.81h0l1.8-5.82c.08-.26.21-.7.39-1.32s.37-1.27.57-1.96c.2-.69.36-1.27.47-1.74.11.47.27,1.02.45,1.65.19.63.38,1.26.57,1.87s.34,1.11.45,1.5l1.44,4.61h0s.38,1.21.38,1.21h-.02l1.52,5.21h0l1.58,5.2Z"/>
  <g>
    <rect x="278.56" y="17.25" width="4.72" height="4.35"/>
    <polygon points="283.92 7.4 269.5 7.4 269.5 32.44 283.92 32.44 283.92 28.05 274.8 28.05 274.8 22.6 274.8 21.6 274.8 17.25 274.8 16.18 274.8 11.75 283.92 11.75 283.92 7.4"/>
  </g>
  <g>
    <rect x="425.19" y="17.25" width="4.72" height="4.35"/>
    <polygon points="430.55 7.4 416.13 7.4 416.13 32.44 430.55 32.44 430.55 28.05 421.44 28.05 421.44 22.6 421.44 21.6 421.44 17.25 421.44 16.18 421.44 11.75 430.55 11.75 430.55 7.4"/>
  </g>
  <g>
    <path d="m407.46,24.26l-1.85-2.74c.82-.38,1.59-.86,2.29-1.46.71-.59,1.28-1.32,1.71-2.17.43-.86.65-1.85.65-3,0-1.69-.36-3.09-1.08-4.2-.72-1.11-1.82-1.94-3.3-2.48-1.48-.55-3.35-.82-5.63-.82h-7.3v25.04h5.31v-9.61h2.83l2.45,3.93,3.9-2.5Zm-9.18-5.75v-6.77h1.61c1.71,0,2.98.25,3.79.75s1.22,1.35,1.22,2.53-.38,2.01-1.14,2.59c-.76.59-2.02.88-3.78.88h-1.71Z"/>
    <polygon points="409.36 27.08 405.35 29.65 407.09 32.44 412.98 32.44 409.36 27.08"/>
  </g>
</svg>