<?xml version="1.0" encoding="UTF-8"?>
<svg id="Capa_1" data-name="Capa 1" xmlns="http://www.w3.org/2000/svg" viewBox="0 0 1735.55 2276.19">
  <defs>
    <style>
      .cls-1 {
        fill: #dee1e1;
      }

      .cls-2 {
        fill: #fff;
      }

      .cls-3 {
        fill: #f08232;
      }

      .cls-4 {
        fill: #1b213f;
      }

      .cls-5 {
        fill: #f5a484;
      }

      .cls-6 {
        fill: #f4f2ef;
      }

      .cls-7 {
        fill: #e52528;
      }

      .cls-8 {
        fill: #191b35;
      }

      .cls-9 {
        fill: #bf692b;
      }

      .cls-10 {
        fill: #9f1c21;
      }

      .cls-11 {
        fill: #e7e8e9;
      }

      .cls-12 {
        fill: #dcf0fb;
      }

      .cls-13 {
        fill: #f08331;
      }

      .cls-14 {
        fill: #ea5554;
      }

      .cls-15 {
        fill: #2e73ba;
      }

      .cls-16 {
        fill: #e59377;
      }

      .cls-17 {
        fill: #3696ce;
      }

      .cls-18 {
        fill: #38a9e0;
      }

      .cls-19 {
        fill: #4a99a1;
      }

      .cls-20 {
        fill: #acb2b3;
      }

      .cls-21 {
        fill: #08060e;
      }

      .cls-22 {
        fill: #ce4a4a;
      }

      .cls-23 {
        fill: #e8eef9;
      }

      .cls-24 {
        fill: #40b3e6;
      }

      .cls-25 {
        fill: #ec6737;
      }

      .cls-26 {
        fill: #52bfd0;
      }

      .cls-27 {
        fill: #e59375;
      }

      .cls-28 {
        fill: #458e97;
      }
    </style>
  </defs>
  <path class="cls-23" d="m1650.98,2128.43c0,81.6-194.87,147.76-435.26,147.76s-435.25-66.16-435.25-147.76,194.86-147.75,435.25-147.75,435.26,66.14,435.26,147.75Z"/>
  <g>
    <g>
      <path class="cls-17" d="m773.59,1196.14l-609.73,343.2c-27.51,15.49-50.03-1.08-50.03-36.93V442.26c0-35.85,22.53-77.76,50.03-93.25L773.59,5.81c27.51-15.49,50.03,1.08,50.03,36.93v1060.26c0,35.85-22.53,77.76-50.03,93.25v-.11Z"/>
      <polygon class="cls-17" points="845.39 22.27 803.48 1.91 192.34 332.87 288.19 728.28 172.2 1561.76 133.53 1543.13 154.76 1244.87 646.77 424.93 845.39 22.27"/>
      <path class="cls-24" d="m814.64,1216.07l-609.73,343.2c-27.51,15.49-50.03-1.08-50.03-36.93V462.18c0-35.85,22.53-77.76,50.03-93.25L814.64,25.62c27.51-15.49,50.03,1.08,50.03,36.93v1060.26c0,35.85-22.53,77.76-50.03,93.25Z"/>
      <path class="cls-1" d="m802.83,1199.39l-578.22,325.44c-26.1,14.73-47.44-1.08-47.44-34.98V484.49c0-33.9,21.34-73.75,47.44-88.48L802.83,70.57c26.1-14.73,47.44,1.08,47.44,34.98v1005.35c0,33.9-21.34,73.75-47.44,88.48Z"/>
      <g>
        <ellipse class="cls-25" cx="742.59" cy="385.73" rx="67.15" ry="37.58" transform="translate(-11.04 749.42) rotate(-53.21)"/>
        <path class="cls-18" d="m241.94,641.31c-2.06,0-4.12-1.08-5.2-2.92-1.73-2.82-.76-6.5,2.17-8.23l387.61-228.41c2.82-1.73,6.5-.76,8.23,2.17,1.73,2.82.76,6.5-2.17,8.23l-387.61,228.41c-.97.54-2.06.87-3.03.87v-.11Z"/>
        <path class="cls-20" d="m241.94,679.22c-2.06,0-4.12-1.08-5.2-2.92-1.73-2.82-.76-6.5,2.17-8.23l387.61-228.41c2.82-1.73,6.5-.76,8.23,2.17,1.73,2.82.76,6.5-2.17,8.23l-387.61,228.41c-.97.54-2.06.87-3.03.87v-.11Z"/>
        <path class="cls-20" d="m241.94,717.12c-2.06,0-4.12-1.08-5.2-2.92-1.73-2.82-.76-6.5,2.17-8.23l387.61-228.41c2.82-1.73,6.5-.76,8.23,2.17,1.73,2.82.76,6.5-2.17,8.23l-387.61,228.41c-.97.54-2.06.87-3.03.87v-.11Z"/>
        <path class="cls-20" d="m241.94,755.14c-2.06,0-4.12-1.08-5.2-2.92-1.73-2.82-.76-6.5,2.17-8.23l387.61-228.41c2.82-1.73,6.5-.76,8.23,2.17,1.73,2.82.76,6.5-2.17,8.23l-387.61,228.41c-.97.54-2.06.87-3.03.87v-.11Z"/>
        <ellipse class="cls-25" cx="742.62" cy="575.33" rx="67.15" ry="37.58" transform="translate(-162.87 825.49) rotate(-53.21)"/>
        <path class="cls-18" d="m241.94,830.95c-2.06,0-4.12-1.08-5.2-2.92-1.73-2.82-.76-6.5,2.17-8.23l387.61-228.41c2.82-1.73,6.5-.76,8.23,2.17,1.73,2.82.76,6.5-2.17,8.23l-387.61,228.41c-.97.54-2.06.87-3.03.87v-.11Z"/>
        <path class="cls-20" d="m241.94,868.85c-2.06,0-4.12-1.08-5.2-2.92-1.73-2.82-.76-6.5,2.17-8.23l387.61-228.41c2.82-1.73,6.5-.76,8.23,2.17,1.73,2.82.76,6.5-2.17,8.23l-387.61,228.41c-.97.54-2.06.87-3.03.87v-.11Z"/>
        <path class="cls-20" d="m241.94,906.76c-2.06,0-4.12-1.08-5.2-2.92-1.73-2.82-.76-6.5,2.17-8.23l387.61-228.41c2.82-1.73,6.5-.76,8.23,2.17,1.73,2.82.76,6.5-2.17,8.23l-387.61,228.41c-.97.54-2.06.87-3.03.87v-.11Z"/>
        <path class="cls-20" d="m241.94,944.77c-2.06,0-4.12-1.08-5.2-2.92-1.73-2.82-.76-6.5,2.17-8.23l387.61-228.41c2.82-1.73,6.5-.76,8.23,2.17,1.73,2.82.76,6.5-2.17,8.23l-387.61,228.41c-.97.54-2.06.87-3.03.87v-.11Z"/>
        <ellipse class="cls-25" cx="742.65" cy="764.92" rx="67.15" ry="37.58" transform="translate(-314.69 901.56) rotate(-53.21)"/>
        <path class="cls-18" d="m241.94,1020.58c-2.06,0-4.12-1.08-5.2-2.92-1.73-2.82-.76-6.5,2.17-8.23l387.61-228.41c2.82-1.73,6.5-.76,8.23,2.17,1.73,2.82.76,6.5-2.17,8.23l-387.61,228.41c-.97.54-2.06.87-3.03.87v-.11Z"/>
        <path class="cls-20" d="m241.94,1058.49c-2.06,0-4.12-1.08-5.2-2.92-1.73-2.82-.76-6.5,2.17-8.23l387.61-228.41c2.82-1.73,6.5-.76,8.23,2.17,1.73,2.82.76,6.5-2.17,8.23l-387.61,228.41c-.97.54-2.06.87-3.03.87v-.11Z"/>
        <path class="cls-20" d="m241.94,1096.39c-2.06,0-4.12-1.08-5.2-2.92-1.73-2.82-.76-6.5,2.17-8.23l387.61-228.41c2.82-1.73,6.5-.76,8.23,2.17,1.73,2.82.76,6.5-2.17,8.23l-387.61,228.41c-.97.54-2.06.87-3.03.87v-.11Z"/>
        <path class="cls-20" d="m241.94,1134.41c-2.06,0-4.12-1.08-5.2-2.92-1.73-2.82-.76-6.5,2.17-8.23l387.61-228.41c2.82-1.73,6.5-.76,8.23,2.17,1.73,2.82.76,6.5-2.17,8.23l-387.61,228.41c-.97.54-2.06.87-3.03.87v-.11Z"/>
        <ellipse class="cls-25" cx="742.68" cy="954.63" rx="67.15" ry="37.58" transform="translate(-466.6 977.68) rotate(-53.21)"/>
        <path class="cls-18" d="m241.94,1210.22c-2.06,0-4.12-1.08-5.2-2.92-1.73-2.82-.76-6.5,2.17-8.23l387.61-228.41c2.82-1.73,6.5-.76,8.23,2.17,1.73,2.82.76,6.5-2.17,8.23l-387.61,228.41c-.97.54-2.06.87-3.03.87v-.11Z"/>
        <path class="cls-20" d="m241.94,1248.12c-2.06,0-4.12-1.08-5.2-2.92-1.73-2.82-.76-6.5,2.17-8.23l387.61-228.41c2.82-1.73,6.5-.76,8.23,2.17,1.73,2.82.76,6.5-2.17,8.23l-387.61,228.41c-.97.54-2.06.87-3.03.87v-.11Z"/>
        <path class="cls-20" d="m240.75,1287.33c-2.06,0-4.12-1.08-5.2-2.92-1.73-2.82-.76-6.5,2.17-8.23l387.61-228.41c2.82-1.73,6.5-.76,8.23,2.17,1.73,2.82.76,6.5-2.17,8.23l-387.61,228.41c-.97.54-2.06.87-3.03.87v-.11Z"/>
        <path class="cls-20" d="m240.75,1325.23c-2.06,0-4.12-1.08-5.2-2.92-1.73-2.82-.76-6.5,2.17-8.23l387.61-228.41c2.82-1.73,6.5-.76,8.23,2.17,1.73,2.82.76,6.5-2.17,8.23l-387.61,228.41c-.97.54-2.06.87-3.03.87v-.11Z"/>
      </g>
    </g>
    <g>
      <path class="cls-19" d="m684.78,1356.21c1.84,0,3.68-.54,5.31-1.52l339.74-204.15c12.78-7.69,20.79-21.77,20.79-36.71V510.7c0-6.71-5.63-10.83-10.83-10.83-1.95,0-3.79.54-5.52,1.62l-339.2,203.82c-12.78,7.69-20.69,21.77-20.69,36.61v603.78c0,3.68,1.73,6.17,3.14,7.47,1.95,1.95,4.66,3.03,7.36,3.03h-.11Z"/>
      <path class="cls-26" d="m695.07,1360.21c1.84,0,3.68-.54,5.31-1.52l339.74-204.15c12.78-7.69,20.79-21.77,20.79-36.71v-603.13c0-6.71-5.63-10.83-10.83-10.83-1.95,0-3.79.54-5.52,1.62l-339.2,203.82c-12.78,7.69-20.69,21.77-20.69,36.61v603.78c0,3.68,1.73,6.17,3.14,7.47,1.95,1.95,4.66,3.03,7.36,3.03h-.11Z"/>
      <g>
        <path class="cls-13" d="m807.06,934.59c17.98,9.75,43.54,6.82,71.91-11.05,53.93-33.79,97.58-108.41,97.58-166.57s-43.65-77.87-97.58-44.08c-26.1,16.35-49.71,42.24-67.25,71.15l67.25,27.4s-71.91,123.14-71.91,123.14Z"/>
        <path class="cls-2" d="m768.93,887.26c0,27.51,9.75,46.46,25.67,55.23l71.91-123.14-67.25-27.4c-18.63,30.97-30.32,65.31-30.32,95.41v-.11Z"/>
      </g>
      <g>
        <polygon class="cls-2" points="976.55 1094.77 1009.04 1075.17 1009.04 994.16 976.55 1013.65 976.55 1094.77"/>
        <polygon class="cls-2" points="921.85 1127.69 954.34 1108.2 954.34 999.79 921.85 1019.28 921.85 1127.69"/>
        <polygon class="cls-2" points="867.16 1160.62 899.54 1141.12 899.54 997.19 867.16 1016.79 867.16 1160.62"/>
        <polygon class="cls-2" points="812.47 1193.65 844.85 1174.04 844.85 974.66 812.47 994.27 812.47 1193.65"/>
        <polygon class="cls-2" points="757.78 1226.57 790.16 1207.08 790.16 1063.14 757.78 1082.64 757.78 1226.57"/>
      </g>
    </g>
    <g>
      <path class="cls-27" d="m1380.72,1017.98c9.1,63.36-42.45,238.69-42.45,238.69l-18.19-7.26c-4.66-100.29-3.03-233.06-3.03-233.06,0,0,51.98-51.98,63.68,1.73v-.11Z"/>
      <path class="cls-27" d="m1273.94,875.35s32.17,175.23,76.89,180.1c0,0,14.62,4.77,20.47-5.74,0,0,37.36-19.28-40.07-246.6,0,0-8.23-19.71-34.66-21.88,0,0-44.94,15.7-22.63,94.11Z"/>
      <path class="cls-27" d="m1332.1,1322.63l4.55-15.16s-1.95,29.67-13.75,35.63c0,0-2.17,1.84-4.22-2.71,0,0,7.15-24.48,7.47-36.17,0,0-2.06,25.88-9.31,42.35,0,0-6.61,5.2-8.23-3.25-3.9,4.77-5.96-1.08-5.96-1.08,0,0-1.08-5.74-.97-18.41,0,0,.11-19.39-2.38-42.13,0,0-15.49,12.45-21.88,3.79l20.79-20.14,21.44-17.44,21.99,3.68,2.27,26.53s1.62,25.23-2.06,38.01c0,0-13.1,35.85-9.96,6.61l.22-.11Z"/>
      <path class="cls-12" d="m1269.82,753.84c-11.05,6.5-13.65,44.94-18.41,56.53-11.26,26.97-7.26,51.12-3.79,78.41,3.57,27.94,13.54,57.62,25.56,83.39,13.75,29.35,28.16,52.74,28.05,85.88,0,27.94-2.49,55.88-.32,83.82,2.06,27.29,5.42,52.85,5.42,80.47,0,16.79-2.06,24.15,15.05,28.48,14.95,3.79,20.58-1.41,28.48-13.43,12.56-19.17,18.52-49.71,25.23-72.02,7.69-25.45,9.53-55.67,13.21-82.31,3.36-24.69,7.15-52.85,6.82-78.73-.54-52.85-19.39-103.32-34.87-152.49-12.89-41.05-41.48-126.93-90.43-98.01Z"/>
      <path class="cls-15" d="m1182.97,1279.31c0,45.38,36.82,82.2,82.2,82.2s82.2-36.82,82.2-82.2-36.82-82.2-82.2-82.2-82.2,36.82-82.2,82.2Z"/>
      <path class="cls-8" d="m1316.83,1674.93s-1.19,20.69-38.23,21.12c0,0-35.09,12.02-50.25-33.79-59.78-180.1-43.97-368.11-43.97-368.11,0,0,84.37-47,162.99-14.84,0,0,2.38,194.18-30.43,395.62h-.11Z"/>
      <path class="cls-4" d="m1167.16,1713.49s-29.46.76-66.06-5.42c0,0-36.71,5.52-43.43-42.24-26.43-188.01,25.02-395.19,25.02-395.19,0,0,134.62-56.53,206.1-10.72,0,0-50.58,259.16-121.62,453.67v-.11Z"/>
      <path class="cls-4" d="m1219.79,1381.22s124.44,6.28,127.47-113.93c-9.96-91.41-55.77-133.75-55.77-133.75l-158.88-20.04s-43.75,76.24-48.41,153.9c0,0,7.26,117.61,135.48,113.93l.11-.11Z"/>
      <rect class="cls-5" x="1157.52" y="718.53" width="80.25" height="85.23"/>
      <path class="cls-5" d="m1107.92,720.48l-3.03-13.65-5.96-43.65c-.76-6.28.65-14.3,2.92-20.25,2.6-6.5,4.66-13.43,4.12-20.79-3.03-35.74,20.04-58.48,20.04-58.48,27.4-29.02,80.14-22.09,80.14-22.09,27.29,5.2,50.58,16.68,62.92,40.18,11.15,21.23,16.35,46.68,7.47,69.42-9.64,24.8-26.43,43.75-48.19,60.54-13.97,10.72-27.51,11.48-45.16,16.35-12.24,3.36-35.41,4.55-48.3,3.9-6.71-.32-25.23-3.68-26.97-11.48Z"/>
      <path class="cls-14" d="m1144.41,674.35c4.01-5.63,18.41-9.1,18.41-9.1,17.44,0,15.16,23.28,16.79,33.36.54,3.25,1.19,6.61,1.95,9.96,8.34,29.57,33.14,29.35,54.37,32.92.76-.43,1.62-.97,2.49-1.41,3.9-13.1,16.03-26.75,16.03-26.75,31.84-27.51,42.24-77.11,30.11-116.1-3.68-11.8-11.48-24.26-19.93-33.25-17.87-19.06-41.05-29.35-65.85-34.01-24.69-4.66-112.96,7.36-88.91,60.97,0,0,36.28,41.91,34.55,83.39"/>
      <path class="cls-5" d="m1144.41,674.35c3.14-8.01,10.94-14.08,19.71-11.48,6.39,1.95,10.18,7.58,9.64,14.19-.11,1.41-.43,2.82-.54,4.22-2.49,15.27-18.63,21.12-18.63,21.12"/>
      <path class="cls-16" d="m1162.5,670.01c-.87-.65-2.71-.97-3.9-1.08-5.85-.32-10.61,8.66-4.77,10.29,2.17,2.17,0,4.66,0,4.66-2.06,2.17-4.77,5.31-4.12,8.45.32,1.84,2.38,2.82,4.22,3.25,1.52.32,1.73-.76.54-1.3-.87-.43-1.62-1.08-2.27-1.84l-.22-.32v-.22l-.22-1.3c1.3.97,3.47,1.19,4.55,0,1.08-1.3.22-3.47.65-4.98.32-1.08.76-2.06,1.3-3.03,2.71-4.44-2.17-5.2-2.17-5.2-.76,0-1.3,0-1.73.11-2.49-1.3.32-4.98,1.73-5.52,1.73-.65,3.9-.43,5.09.87,1.19,1.3,1.73,3.47,1.62,5.2-.11,2.17-.65,4.22-1.62,6.17-.54,1.08-1.19,2.38-1.73,3.47-.65,1.3.87,1.84,1.41.54,1.3-2.6,3.68-6.5,4.22-10.18.43-3.03-.11-5.96-2.82-7.91l.22-.11Z"/>
      <path class="cls-16" d="m1144.41,674.35s.65-.97,1.84-2.82c.54-.97,1.52-1.73,2.38-2.82.87-.97,2.38-2.06,3.68-2.92,1.52-.76,3.14-1.62,4.98-1.84,1.84-.22,3.79-.22,5.74.43.65.11,2.17.76,2.92,1.19.76.54,1.52,1.08,2.27,1.73,1.41,1.41,2.6,3.14,3.03,5.2.54,2.06.54,4.01,0,6.5l-.22,1.73v.22h0s0,.22,0-.22h0v.54l-.22.87c-.22,1.19-.54,2.17-.87,3.14-.76,1.95-1.62,3.79-2.71,5.41-1.08,1.62-2.27,3.03-3.47,4.33-2.49,2.49-4.87,4.33-6.61,5.52s-2.82,1.73-2.82,1.73c0,0,1.19-.22,3.25-1.08,1.95-.87,4.87-2.06,7.8-4.44,1.41-1.19,3.03-2.6,4.33-4.33,1.41-1.73,2.71-3.68,3.57-5.96.43-1.19.97-2.38,1.19-3.47l.22-.87v-.43l.11-.11v-.54l.22-1.73c.43-2.17.54-5.2,0-7.91-.76-2.71-2.27-5.09-4.33-7.04-.54-.43-.97-.87-1.62-1.3l-1.84-1.08c-1.3-.54-1.95-.87-3.57-1.3-2.49-.65-4.98-.43-7.26.11s-4.12,1.73-5.63,2.82c-1.62,1.3-2.6,2.38-3.57,3.79-.76,1.3-1.62,2.38-1.95,3.36-.76,1.95-1.19,3.14-1.19,3.14l.32.43Z"/>
      <path class="cls-2" d="m1154.48,698.6c0,2.71-2.17,4.87-4.87,4.87s-4.87-2.17-4.87-4.87,2.17-4.87,4.87-4.87,4.87,2.17,4.87,4.87Z"/>
      <path class="cls-11" d="m1150.8,701.2c-2.17,0-3.9-1.73-3.9-3.9,0-1.73,1.08-3.14,2.71-3.57-2.71,0-4.87,2.17-4.87,4.87s2.17,4.87,4.87,4.87,4.87-2.17,4.87-4.87v-.32c-.43,1.62-1.84,2.92-3.68,2.92Z"/>
      <path class="cls-5" d="m1097.3,1119.46l46.03-176.64s24.48-111.98-37.69-112.96c0,0-31.52,5.74-45.05,65.85l-30,222.12s24.04,19.17,66.6,1.62h.11Z"/>
      <path class="cls-5" d="m1033.62,1113.94l-59.67,210.64c10.61,22.09,20.47,16.79,20.47,16.79l73.75-136.03c32.38-57.18,30.97-93.79,30.97-93.79,0,0,5.74-33.25-39.53-28.05,0,0-20.36,2.6-26.1,30.43h.11Z"/>
      <path class="cls-5" d="m972.97,1392.49l7.58-13.86s-8.01,28.59-20.79,31.95c0,0-2.49,1.3-3.57-3.57,0,0,12.02-22.42,14.84-33.79,0,0-7.36,24.91-17.87,39.53,0,0-7.58,3.79-7.36-4.87-4.77,3.79-5.63-2.27-5.63-2.27,0,0,0-5.85,2.92-18.19,0,0,4.12-18.95,6.5-41.7,0,0-17.76,8.88-22.2-.87l24.58-15.38,24.58-12.56,20.79,8.12-3.25,26.43s-3.57,25.02-9.86,36.71c0,0-20.25,32.27-11.15,4.44l-.11-.11Z"/>
      <path class="cls-27" d="m1221.31,2088.43s-21.12,2.17-14.08,15.49c0,0,53.07,16.14,87.83,7.26,0,0,24.8-3.57,17.87-30.11l-2.06-21.99-35.63,6.17,1.62,18.52-55.56,4.66Z"/>
      <path class="cls-21" d="m1312.93,2081.17c.43,3.47.65,8.01-2.27,9.75-14.19,8.56-30.87,10.18-47.11,11.15-16.14.97-32.27,2.49-48.41.97-4.22-.43-5.52-1.62-5.74-2.82,1.62-5.09,5.09-9.64,11.8-11.7l-22.31,2.06c-17.11,1.3-20.79,3.68-24.58,6.71-3.25,13.97,20.69,20.47,20.69,20.47,0,0,25.45,6.5,55.45,9.1,0,0,66.5,8.12,72.13-12.67l-9.75-32.92.11-.11Z"/>
      <path class="cls-8" d="m1228.24,1662.37s28.92,389.34,31.62,403.2c28.27,17.98,53.18-.43,53.18-.43-.11-19.06,20.69-178.26,22.85-208.15,3.68-51.44,9.86-116.31-22.63-190.18l-85.12-4.44h.11Z"/>
      <path class="cls-27" d="m1093.08,2108.79s-21.77-.22-16.03,14.08c0,0,52.09,22.31,88.48,17.33,0,0,25.56-.87,21.55-28.59l.43-22.53-36.93,2.27-.43,18.95-57.07-1.52h0Z"/>
      <path class="cls-21" d="m1187.08,2111.6c0,3.57-.22,8.12-3.47,9.64-15.38,7.15-32.6,6.82-49.17,6.06-16.46-.76-33.14-1.08-49.28-4.55-4.22-.87-5.42-2.27-5.52-3.57,2.27-4.98,6.28-9.21,13.32-10.51l-22.85-.43c-17.54-.65-21.55,1.41-25.67,4.01-4.87,13.86,18.74,23.07,18.74,23.07,0,0,25.13,9.53,55.34,15.49,0,0,66.71,15.7,74.73-4.77l-6.28-34.55.11.11Z"/>
      <path class="cls-4" d="m1061.02,1682.95s78.84,409.05,83.5,422.37c-2.06-.97,37.26,18.09,54.69-6.5-2.92-18.84-4.66-226.56-6.93-256.46-3.9-51.33-3.36-99.31-46.46-167.54,0,0-107.54-77-84.8,8.23v-.11Z"/>
      <path class="cls-6" d="m1368.27,1532.3c-3.79,118.91-335.19,56.97-335.19,56.97l49.39-448.36,9.53-75.81-42.24-145.45c-3.25-22.42,37.26-82.09,47.65-90.76,10.07-8.23,48.63-27.51,60.11-33.79,0,0,9.96,12.24,52.85-6.28,0,0,31.19-11.59,27.4-29.67,13.1-4.22,17.33-7.15,38.66-10.72,30.22-5.09,31.73,23.28,35.09,45.59l19.82,80.36s-12.67,142.42-8.45,161.04c0,0,54.58,206.75,45.38,496.77v.11Z"/>
      <path class="cls-1" d="m1310.55,1584.07c-24.58-10.83-49.28-22.63-71.8-37.58-17.87-11.91-27.4-22.31-30.97-44.19-5.09-30.97,1.3-62.49.76-93.68-.54-29.46-6.82-57.83.22-87.18,3.68-15.38,9.31-30.11,15.81-44.51,6.5-14.51,16.03-30.87,15.81-47.33-.32-20.79-20.69-31.84-32.17-46.89-19.93-26.21-20.14-52.31-10.61-82.96,6.06-19.82,12.13-39.75,12.56-60.76.43-20.04-2.82-39.64-5.74-59.46-4.55-30.87-5.96-62.06-1.3-93.03,8.34-55.34,33.79-106.35,79.6-138.62-2.06,0-4.12.11-6.5.54-21.34,3.57-25.45,6.61-38.66,10.72,3.9,18.09-27.4,29.67-27.4,29.67-42.89,18.52-52.85,6.28-52.85,6.28-11.48,6.17-50.03,25.45-60.11,33.79-10.4,8.56-50.9,68.23-47.65,90.76l42.24,145.45-9.53,75.81-49.39,448.36s195.81,36.61,288.19-.54c-3.57-1.62-7.15-3.14-10.61-4.77l.11.11Z"/>
      <path class="cls-12" d="m1073.58,845.14c-21.01,23.39-32.17,47.22-39.31,77.11-12.89,54.58-9.64,110.79-13,167.65-3.57,59.35-25.56,116.31-44.08,172.63-8.12,24.69-15.49,47.87,14.19,59.89,25.45,10.29,44.94-32.6,57.07-51.44,15.6-24.37,29.46-50.79,43.54-75.49,14.51-25.34,18.19-50.79,22.63-78.73,9.21-57.62,29.13-113.72,37.36-171.01,3.03-21.23,5.63-42.02,6.61-63.68.97-20.69,7.36-52.42-17.54-61.73-22.2-8.23-53.07,8.88-67.47,24.91v-.11Z"/>
      <path class="cls-22" d="m1328.2,582.72c15.38,53.83,13.97,110.68,11.37,167.65-1.84,40.61-6.06,79.38-10.07,119.02-3.9,38.01-11.7,82.96,4.77,118.59-14.51,12.35-48.52-23.39-56.75-34.76-17.11-23.83-26.75-49.71-30.54-78.41-7.47-56.42.65-103.64,14.19-157.58,9.1-36.17,15.7-73.1,9.64-111.01-2.27-13.75-1.41-41.15-17.98-47.33-8.88-3.25-23.28,7.26-31.3,1.41-16.46-11.91,12.67-30.32,22.96-34.44,41.05-16.68,73.32,20.69,83.72,56.97v-.11Z"/>
      <path class="cls-4" d="m1152.64,799c8.77,1.73,17.44,2.82,26.1,2.82,10.83,0,21.55-1.62,32.17-5.63,5.2-1.95,13.1-5.52,19.82-10.29,3.36-2.38,6.39-5.09,8.66-8.12,2.27-3.03,3.68-6.39,3.68-9.96,0-2.92-.97-5.96-3.14-9.1-.43-.54-1.19-.76-1.73-.32s-.76,1.19-.32,1.73c1.84,2.71,2.71,5.2,2.71,7.58,0,2.92-1.19,5.74-3.25,8.45-6.06,8.23-19.82,14.73-27.4,17.54-10.29,3.9-20.69,5.42-31.19,5.42-8.45,0-17-.97-25.67-2.71-.65-.11-1.3.32-1.52.97-.11.65.32,1.3.97,1.52h0l.11.11Z"/>
    </g>
    <g>
      <path class="cls-28" d="m1735.41,366.88c-.22-36.82-21.77-77.11-53.39-100.94-2.71-2.06-5.42-3.47-8.12-5.09-47.65-27.51-95.2-55.02-142.85-82.53-46.68-26.97-93.36-53.07-139.92-81.12-33.25-19.93-64.11-7.47-63.79,36.5.43,78.84.11,157.25.11,235.77v86.1c0,13.75,5.42,25.67,15.49,34.55,6.82,5.96,12.78,7.15,18.41,5.96,26.97-5.2,53.93-10.29,81.01-15.16,2.27-.43,5.52.32,8.34,1.95,73.86,42.45,147.72,84.69,221.69,128.12,31.19,18.3,63.03,8.88,63.03-34.33,0-69.96.32-139.82,0-209.99v.22Zm-194.18,95.63c-4.44,1.41-9.64.32-15.81-3.25-6.17-3.57-11.59-8.66-16.03-15.16-4.44-6.5-6.61-14.19-6.61-23.07s2.17-14.51,6.61-15.7c4.44-1.19,9.75,0,16.03,3.68s11.37,8.45,15.81,14.73c4.44,6.28,6.61,14.08,6.61,23.39s-2.17,13.97-6.61,15.38Zm46.24-115.45c-2.27,4.77-5.74,8.34-10.29,10.94-4.55,2.49-10.29,4.66-17.22,6.39-5.2,1.41-9.1,2.71-11.8,4.12-2.71,1.41-4.66,3.25-5.63,5.52-.97,2.38-1.52,5.52-1.52,9.75v8.88l-34.11-19.71v-10.94c0-6.71.87-12.13,2.49-16.35,1.62-4.22,4.22-7.69,7.91-10.29,3.57-2.6,8.34-4.66,14.3-6.17,5.31-1.3,9.64-2.71,12.78-4.22,3.25-1.62,5.63-3.68,7.04-6.17,1.52-2.49,2.27-5.96,2.27-10.29,0-6.39-2.06-12.45-6.17-18.19-4.12-5.74-9.86-10.72-17.22-14.95-7.36-4.22-14.73-7.15-21.99-8.66s-14.62-2.27-22.09-2.27l-14.08-40.5c8.56-.54,17.87.32,27.94,2.71,10.07,2.38,21.01,7.04,32.92,13.97,18.41,10.61,32.6,23.83,42.67,39.85,10.07,15.92,15.16,31.62,15.16,47.22,0,8.23-1.19,14.84-3.47,19.49l.11-.11Z"/>
      <path class="cls-26" d="m1719.06,371.54c-.22-36.82-21.77-77.11-53.39-100.94-2.71-2.06-5.42-3.47-8.12-5.09-47.65-27.51-95.2-55.02-142.85-82.53-46.68-26.97-93.36-53.07-139.92-81.12-33.25-19.93-64.11-7.47-63.79,36.5.43,78.84.11,157.25.11,235.77v86.1c0,13.75,5.42,25.67,15.49,34.55,6.82,5.96,12.78,7.15,18.41,5.96,26.97-5.2,53.93-10.29,81.01-15.16,2.27-.43,5.52.32,8.34,1.95,73.86,42.45,147.72,84.69,221.69,128.12,31.19,18.3,63.03,8.88,63.03-34.33,0-69.96.32-139.82,0-209.99v.22Zm-194.18,95.63c-4.44,1.41-9.64.32-15.81-3.25s-11.59-8.66-16.03-15.16c-4.44-6.5-6.61-14.19-6.61-23.07s2.17-14.51,6.61-15.7c4.44-1.19,9.75,0,16.03,3.68,6.28,3.68,11.37,8.45,15.81,14.73,4.44,6.28,6.61,14.08,6.61,23.39s-2.17,13.97-6.61,15.38Zm46.24-115.45c-2.27,4.77-5.74,8.34-10.29,10.94-4.55,2.49-10.29,4.66-17.22,6.39-5.2,1.41-9.1,2.71-11.8,4.12s-4.66,3.25-5.63,5.52c-.97,2.38-1.52,5.52-1.52,9.75v8.88l-34.11-19.71v-10.94c0-6.71.87-12.13,2.49-16.35s4.22-7.69,7.91-10.29c3.57-2.6,8.34-4.66,14.3-6.17,5.31-1.3,9.64-2.71,12.78-4.22,3.25-1.62,5.63-3.68,7.04-6.17,1.52-2.49,2.27-5.96,2.27-10.29s-2.06-12.45-6.17-18.19c-4.12-5.74-9.86-10.72-17.22-14.95-7.36-4.22-14.73-7.15-21.99-8.66-7.26-1.52-14.62-2.27-22.09-2.27l-14.08-40.5c8.56-.54,17.87.32,27.94,2.71,10.07,2.38,21.01,7.04,32.92,13.97,18.41,10.61,32.6,23.83,42.67,39.85,10.07,15.92,15.16,31.62,15.16,47.22,0,8.23-1.19,14.84-3.47,19.49l.11-.11Z"/>
    </g>
    <g>
      <path class="cls-9" d="m9.86,1722.48c1.73,0,3.47-.43,4.98-1.41l318.73-191.48c12.02-7.26,19.49-20.47,19.49-34.44v-565.76c0-6.28-5.31-10.18-10.18-10.18-1.84,0-3.57.54-5.2,1.52L19.49,1111.88c-12.02,7.15-19.49,20.36-19.49,34.33v566.41c0,3.47,1.62,5.74,2.92,7.04,1.84,1.84,4.44,2.82,6.93,2.82h0Z"/>
      <path class="cls-3" d="m15.6,1726.59c1.73,0,3.47-.43,4.98-1.41l318.73-191.48c12.02-7.26,19.49-20.47,19.49-34.44v-565.76c0-6.28-5.31-10.18-10.18-10.18-1.84,0-3.57.54-5.2,1.52L25.23,1116c-12.02,7.26-19.49,20.36-19.49,34.33v566.41c0,3.47,1.62,5.74,2.92,7.04,1.84,1.84,4.44,2.82,6.93,2.82h0Z"/>
      <path class="cls-2" d="m60.22,1209.68c-1.95,0-3.9-.97-5.09-2.82-1.73-2.82-.97-6.5,1.84-8.34l251.26-158.66c2.82-1.73,6.5-.97,8.34,1.84,1.73,2.82.97,6.5-1.84,8.34l-251.26,158.66c-.97.65-2.06.97-3.25.97Z"/>
      <path class="cls-2" d="m60.22,1260.14c-1.95,0-3.9-.97-5.09-2.82-1.73-2.82-.97-6.5,1.84-8.34l251.26-158.66c2.82-1.73,6.5-.97,8.34,1.84,1.73,2.82.97,6.5-1.84,8.34l-251.26,158.66c-.97.65-2.06.97-3.25.97Z"/>
      <path class="cls-2" d="m60.22,1310.5c-1.95,0-3.9-.97-5.09-2.82-1.73-2.82-.97-6.5,1.84-8.34l251.26-158.66c2.82-1.73,6.5-.97,8.34,1.84,1.73,2.82.97,6.5-1.84,8.34l-251.26,158.66c-.97.65-2.06.97-3.25.97Z"/>
      <path class="cls-2" d="m59.02,1360.65c-1.95,0-3.9-.97-5.09-2.82-1.73-2.82-.97-6.5,1.84-8.34l171.44-108.3c2.82-1.73,6.5-.97,8.34,1.84,1.73,2.82.97,6.5-1.84,8.34l-171.44,108.3c-.97.65-2.06.97-3.25.97Z"/>
      <path class="cls-2" d="m60.22,1453.68c-1.95,0-3.9-.97-5.09-2.82-1.73-2.82-.97-6.5,1.84-8.34l251.26-158.66c2.82-1.73,6.5-.97,8.34,1.84,1.73,2.82.97,6.5-1.84,8.34l-251.26,158.66c-.97.65-2.06.97-3.25.97h0Z"/>
      <path class="cls-2" d="m60.22,1504.04c-1.95,0-3.9-.97-5.09-2.82-1.73-2.82-.97-6.5,1.84-8.34l251.26-158.66c2.82-1.73,6.5-.97,8.34,1.84,1.73,2.82.97,6.5-1.84,8.34l-251.26,158.66c-.97.65-2.06.97-3.25.97h0Z"/>
      <path class="cls-2" d="m60.22,1554.4c-1.95,0-3.9-.97-5.09-2.82-1.73-2.82-.97-6.5,1.84-8.34l251.26-158.66c2.82-1.73,6.5-.97,8.34,1.84,1.73,2.82.97,6.5-1.84,8.34l-251.26,158.66c-.97.65-2.06.97-3.25.97Z"/>
      <path class="cls-2" d="m59.02,1608.55c-1.95,0-3.9-.97-5.09-2.82-1.73-2.82-.97-6.5,1.84-8.34l171.44-108.3c2.82-1.73,6.5-.97,8.34,1.84,1.73,2.82.97,6.5-1.84,8.34l-171.44,108.3c-.97.65-2.06.97-3.25.97Z"/>
    </g>
    <g>
      <polygon class="cls-10" points="599.44 72.52 548.54 43.49 491.68 141.51 434.83 109.12 383.93 196.96 440.78 229.34 383.93 327.35 434.83 356.37 491.68 258.36 548.54 290.74 599.44 202.91 542.59 170.53 599.44 72.52"/>
      <polygon class="cls-7" points="615.36 82.16 564.46 53.13 507.6 151.15 450.75 118.76 399.85 206.6 456.7 238.98 399.85 336.99 450.75 366.01 507.6 268 564.46 300.38 615.36 212.55 558.51 180.17 615.36 82.16"/>
    </g>
  </g>
</svg>