<?xml version="1.0" encoding="UTF-8"?>
<svg id="Layer_1" data-name="Layer 1" xmlns="http://www.w3.org/2000/svg" viewBox="0 0 160.26 199.42">
  <defs>
    <style>
      .cls-1 {
        fill: #abb2b3;
      }

      .cls-2 {
        fill: #dee1e1;
      }

      .cls-3 {
        fill: #fff;
      }

      .cls-4 {
        fill: #be682b;
      }

      .cls-5 {
        fill: #ea1d25;
      }

      .cls-6 {
        fill: #35a9e0;
      }

      .cls-7 {
        fill: #f4f2ef;
      }

      .cls-8 {
        fill: #f7a483;
      }

      .cls-9 {
        fill: #4bc4d4;
      }

      .cls-10 {
        fill: #f16634;
      }

      .cls-11 {
        fill: #dcf2fd;
      }

      .cls-12 {
        fill: #060010;
      }

      .cls-13 {
        fill: #f5822f;
      }

      .cls-14 {
        fill: #101636;
      }

      .cls-15 {
        fill: #9e1c20;
      }

      .cls-16 {
        fill: #448e96;
      }

      .cls-17 {
        fill: #4a9aa1;
      }

      .cls-18 {
        fill: #e95353;
      }

      .cls-19 {
        fill: #f5832f;
      }

      .cls-20 {
        fill: #e6e7e8;
      }

      .cls-21 {
        fill: #3396ce;
      }

      .cls-22 {
        fill: #e59378;
      }

      .cls-23 {
        fill: #2c73ba;
      }

      .cls-24 {
        fill: #ce4949;
      }

      .cls-25 {
        fill: #40b3e6;
      }

      .cls-26 {
        fill: #182040;
      }

      .cls-27 {
        fill: #e59375;
      }
    </style>
  </defs>
  <g>
    <path class="cls-21" d="m71.43,110.72l-56.3,31.69c-2.54,1.43-4.62-.1-4.62-3.41V41.11c0-3.31,2.08-7.18,4.62-8.61L71.43.81c2.54-1.43,4.62.1,4.62,3.41v97.9c0,3.31-2.08,7.18-4.62,8.61Z"/>
    <polygon class="cls-21" points="78.06 2.33 74.19 .45 17.76 31.01 26.61 67.52 15.9 144.48 12.33 142.76 14.29 115.22 59.72 39.51 78.06 2.33"/>
    <path class="cls-25" d="m75.22,112.56l-56.3,31.69c-2.54,1.43-4.62-.1-4.62-3.41V42.95c0-3.31,2.08-7.18,4.62-8.61L75.22,2.64c2.54-1.43,4.62.1,4.62,3.41v97.9c0,3.31-2.08,7.18-4.62,8.61Z"/>
    <path class="cls-2" d="m74.13,111.02l-53.39,30.05c-2.41,1.36-4.38-.1-4.38-3.23V45.01c0-3.13,1.97-6.81,4.38-8.17L74.13,6.79c2.41-1.36,4.38.1,4.38,3.23v92.83c0,3.13-1.97,6.81-4.38,8.17Z"/>
    <g>
      <ellipse class="cls-10" cx="68.57" cy="35.89" rx="6.2" ry="3.47" transform="translate(-1.24 69.31) rotate(-53.21)"/>
      <path class="cls-6" d="m22.34,59.49c-.19,0-.38-.1-.48-.27-.16-.26-.07-.6.2-.76l35.79-21.09c.26-.16.6-.07.76.2.16.26.07.6-.2.76l-35.79,21.09c-.09.05-.19.08-.28.08Z"/>
      <path class="cls-1" d="m22.34,62.99c-.19,0-.38-.1-.48-.27-.16-.26-.07-.6.2-.76l35.79-21.09c.26-.16.6-.07.76.2.16.26.07.6-.2.76l-35.79,21.09c-.09.05-.19.08-.28.08Z"/>
      <path class="cls-1" d="m22.34,66.49c-.19,0-.38-.1-.48-.27-.16-.26-.07-.6.2-.76l35.79-21.09c.26-.16.6-.07.76.2.16.26.07.6-.2.76l-35.79,21.09c-.09.05-.19.08-.28.08Z"/>
      <path class="cls-1" d="m22.34,70c-.19,0-.38-.1-.48-.27-.16-.26-.07-.6.2-.76l35.79-21.09c.26-.16.6-.07.76.2.16.26.07.6-.2.76l-35.79,21.09c-.09.05-.19.08-.28.08Z"/>
      <ellipse class="cls-10" cx="68.57" cy="53.4" rx="6.2" ry="3.47" transform="translate(-15.26 76.33) rotate(-53.21)"/>
      <path class="cls-6" d="m22.34,77c-.19,0-.38-.1-.48-.27-.16-.26-.07-.6.2-.76l35.79-21.09c.26-.16.6-.07.76.2.16.26.07.6-.2.76l-35.79,21.09c-.09.05-.19.08-.28.08Z"/>
      <path class="cls-1" d="m22.34,80.5c-.19,0-.38-.1-.48-.27-.16-.26-.07-.6.2-.76l35.79-21.09c.26-.16.6-.07.76.2.16.26.07.6-.2.76l-35.79,21.09c-.09.05-.19.08-.28.08Z"/>
      <path class="cls-1" d="m22.34,84c-.19,0-.38-.1-.48-.27-.16-.26-.07-.6.2-.76l35.79-21.09c.26-.16.6-.07.76.2.16.26.07.6-.2.76l-35.79,21.09c-.09.05-.19.08-.28.08Z"/>
      <path class="cls-1" d="m22.34,87.51c-.19,0-.38-.1-.48-.27-.16-.26-.07-.6.2-.76l35.79-21.09c.26-.16.6-.07.76.2.16.26.07.6-.2.76l-35.79,21.09c-.09.05-.19.08-.28.08Z"/>
      <ellipse class="cls-10" cx="68.57" cy="70.91" rx="6.2" ry="3.47" transform="translate(-29.28 83.35) rotate(-53.21)"/>
      <path class="cls-6" d="m22.34,94.51c-.19,0-.38-.1-.48-.27-.16-.26-.07-.6.2-.76l35.79-21.09c.26-.16.6-.07.76.2.16.26.07.6-.2.76l-35.79,21.09c-.09.05-.19.08-.28.08Z"/>
      <path class="cls-1" d="m22.34,98.01c-.19,0-.38-.1-.48-.27-.16-.26-.07-.6.2-.76l35.79-21.09c.26-.16.6-.07.76.2.16.26.07.6-.2.76l-35.79,21.09c-.09.05-.19.08-.28.08Z"/>
      <path class="cls-1" d="m22.34,101.51c-.19,0-.38-.1-.48-.27-.16-.26-.07-.6.2-.76l35.79-21.09c.26-.16.6-.07.76.2.16.26.07.6-.2.76l-35.79,21.09c-.09.05-.19.08-.28.08Z"/>
      <path class="cls-1" d="m22.34,105.02c-.19,0-.38-.1-.48-.27-.16-.26-.07-.6.2-.76l35.79-21.09c.26-.16.6-.07.76.2.16.26.07.6-.2.76l-35.79,21.09c-.09.05-.19.08-.28.08Z"/>
      <ellipse class="cls-10" cx="68.57" cy="88.42" rx="6.2" ry="3.47" transform="translate(-43.3 90.38) rotate(-53.21)"/>
      <path class="cls-6" d="m22.34,112.02c-.19,0-.38-.1-.48-.27-.16-.26-.07-.6.2-.76l35.79-21.09c.26-.16.6-.07.76.2.16.26.07.6-.2.76l-35.79,21.09c-.09.05-.19.08-.28.08Z"/>
      <path class="cls-1" d="m22.34,115.52c-.19,0-.38-.1-.48-.27-.16-.26-.07-.6.2-.76l35.79-21.09c.26-.16.6-.07.76.2.16.26.07.6-.2.76l-35.79,21.09c-.09.05-.19.08-.28.08Z"/>
      <path class="cls-1" d="m22.23,119.14c-.19,0-.38-.1-.48-.27-.16-.26-.07-.6.2-.76l35.79-21.09c.26-.16.6-.07.76.2.16.26.07.6-.2.76l-35.79,21.09c-.09.05-.19.08-.28.08Z"/>
      <path class="cls-1" d="m22.23,122.64c-.19,0-.38-.1-.48-.27-.16-.26-.07-.6.2-.76l35.79-21.09c.26-.16.6-.07.76.2.16.26.07.6-.2.76l-35.79,21.09c-.09.05-.19.08-.28.08Z"/>
    </g>
  </g>
  <g>
    <path class="cls-17" d="m63.23,125.5c.17,0,.34-.05.49-.14l31.37-18.85c1.18-.71,1.92-2.01,1.92-3.39v-55.69c0-.62-.52-1-1-1-.18,0-.35.05-.51.15l-31.32,18.82c-1.18.71-1.91,2.01-1.91,3.38v55.75c0,.34.16.57.29.69.18.18.43.28.68.28h0Z"/>
    <path class="cls-9" d="m64.18,125.87c.17,0,.34-.05.49-.14l31.37-18.85c1.18-.71,1.92-2.01,1.92-3.39v-55.69c0-.62-.52-1-1-1-.18,0-.35.05-.51.15l-31.32,18.82c-1.18.71-1.91,2.01-1.91,3.38v55.75c0,.34.16.57.29.69.18.18.43.28.68.28h0Z"/>
    <g>
      <path class="cls-19" d="m74.52,86.57c1.66.9,4.02.63,6.64-1.02,4.98-3.12,9.01-10.01,9.01-15.38s-4.03-7.19-9.01-4.07c-2.41,1.51-4.59,3.9-6.21,6.57l6.21,2.53-6.64,11.37Z"/>
      <path class="cls-3" d="m71,82.2c0,2.54.9,4.29,2.37,5.1l6.64-11.37-6.21-2.53c-1.72,2.86-2.8,6.03-2.8,8.81Z"/>
    </g>
    <g>
      <polygon class="cls-3" points="90.17 101.36 93.17 99.55 93.17 92.07 90.17 93.87 90.17 101.36"/>
      <polygon class="cls-3" points="85.12 104.4 88.12 102.6 88.12 92.59 85.12 94.39 85.12 104.4"/>
      <polygon class="cls-3" points="80.07 107.44 83.06 105.64 83.06 92.35 80.07 94.16 80.07 107.44"/>
      <polygon class="cls-3" points="75.02 110.49 78.01 108.68 78.01 90.27 75.02 92.08 75.02 110.49"/>
      <polygon class="cls-3" points="69.97 113.53 72.96 111.73 72.96 98.44 69.97 100.24 69.97 113.53"/>
    </g>
  </g>
  <g>
    <path class="cls-27" d="m127.49,94.27c.84,5.85-3.92,22.04-3.92,22.04l-1.68-.67c-.43-9.26-.28-21.52-.28-21.52,0,0,4.8-4.8,5.88.16Z"/>
    <path class="cls-27" d="m117.63,81.1s2.97,16.18,7.1,16.63c0,0,1.35.44,1.89-.53,0,0,3.45-1.78-3.7-22.77,0,0-.76-1.82-3.2-2.02,0,0-4.15,1.45-2.09,8.69Z"/>
    <path class="cls-27" d="m123,122.4l.42-1.4s-.18,2.74-1.27,3.29c0,0-.2.17-.39-.25,0,0,.66-2.26.69-3.34,0,0-.19,2.39-.86,3.91,0,0-.61.48-.76-.3-.36.44-.55-.1-.55-.1,0,0-.1-.53-.09-1.7,0,0,.01-1.79-.22-3.89,0,0-1.43,1.15-2.02.35l1.92-1.86,1.98-1.61,2.03.34.21,2.45s.15,2.33-.19,3.51c0,0-1.21,3.31-.92.61Z"/>
    <path class="cls-11" d="m117.25,69.88c-1.02.6-1.26,4.15-1.7,5.22-1.04,2.49-.67,4.72-.35,7.24.33,2.58,1.25,5.32,2.36,7.7,1.27,2.71,2.6,4.87,2.59,7.93,0,2.58-.23,5.16-.03,7.74.19,2.52.5,4.88.5,7.43,0,1.55-.19,2.23,1.39,2.63,1.38.35,1.9-.13,2.63-1.24,1.16-1.77,1.71-4.59,2.33-6.65.71-2.35.88-5.14,1.22-7.6.31-2.28.66-4.88.63-7.27-.05-4.88-1.79-9.54-3.22-14.08-1.19-3.79-3.83-11.72-8.35-9.05Z"/>
    <path class="cls-23" d="m109.23,118.4c0,4.19,3.4,7.59,7.59,7.59s7.59-3.4,7.59-7.59-3.4-7.59-7.59-7.59-7.59,3.4-7.59,7.59Z"/>
    <path class="cls-14" d="m121.59,154.93s-.11,1.91-3.53,1.95c0,0-3.24,1.11-4.64-3.12-5.52-16.63-4.06-33.99-4.06-33.99,0,0,7.79-4.34,15.05-1.37,0,0,.22,17.93-2.81,36.53Z"/>
    <path class="cls-26" d="m107.77,158.49s-2.72.07-6.1-.5c0,0-3.39.51-4.01-3.9-2.44-17.36,2.31-36.49,2.31-36.49,0,0,12.43-5.22,19.03-.99,0,0-4.67,23.93-11.23,41.89Z"/>
    <path class="cls-26" d="m112.63,127.81s11.49.58,11.77-10.52c-.92-8.44-5.15-12.35-5.15-12.35l-14.67-1.85s-4.04,7.04-4.47,14.21c0,0,.67,10.86,12.51,10.52Z"/>
    <rect class="cls-8" x="106.88" y="66.62" width="7.41" height="7.87"/>
    <path class="cls-8" d="m102.3,66.8l-.28-1.26-.55-4.03c-.07-.58.06-1.32.27-1.87.24-.6.43-1.24.38-1.92-.28-3.3,1.85-5.4,1.85-5.4,2.53-2.68,7.4-2.04,7.4-2.04,2.52.48,4.67,1.54,5.81,3.71,1.03,1.96,1.51,4.31.69,6.41-.89,2.29-2.44,4.04-4.45,5.59-1.29.99-2.54,1.06-4.17,1.51-1.13.31-3.27.42-4.46.36-.62-.03-2.33-.34-2.49-1.06Z"/>
    <path class="cls-18" d="m105.67,62.54c.37-.52,1.7-.84,1.7-.84,1.61,0,1.4,2.15,1.55,3.08.05.3.11.61.18.92.77,2.73,3.06,2.71,5.02,3.04.07-.04.15-.09.23-.13.36-1.21,1.48-2.47,1.48-2.47,2.94-2.54,3.9-7.12,2.78-10.72-.34-1.09-1.06-2.24-1.84-3.07-1.65-1.76-3.79-2.71-6.08-3.14-2.28-.43-10.43.68-8.21,5.63,0,0,3.35,3.87,3.19,7.7"/>
    <path class="cls-8" d="m105.67,62.54c.29-.74,1.01-1.3,1.82-1.06.59.18.94.7.89,1.31-.01.13-.04.26-.05.39-.23,1.41-1.72,1.95-1.72,1.95"/>
    <path class="cls-22" d="m107.34,62.14c-.08-.06-.25-.09-.36-.1-.54-.03-.98.8-.44.95.2.2,0,.43,0,.43-.19.2-.44.49-.38.78.03.17.22.26.39.3.14.03.16-.07.05-.12-.08-.04-.15-.1-.21-.17l-.02-.03v-.02s-.02-.12-.02-.12c.12.09.32.11.42,0,.1-.12.02-.32.06-.46.03-.1.07-.19.12-.28.25-.41-.2-.48-.2-.48-.07,0-.12,0-.16.01-.23-.12.03-.46.16-.51.16-.06.36-.04.47.08.11.12.16.32.15.48-.01.2-.06.39-.15.57-.05.1-.11.22-.16.32-.06.12.08.17.13.05.12-.24.34-.6.39-.94.04-.28-.01-.55-.26-.73Z"/>
    <path class="cls-22" d="m105.67,62.54s.06-.09.17-.26c.05-.09.14-.16.22-.26.08-.09.22-.19.34-.27.14-.07.29-.15.46-.17.17-.02.35-.02.53.04.06.01.2.07.27.11.07.05.14.1.21.16.13.13.24.29.28.48.05.19.05.37,0,.6l-.02.16v.02s0,0,0,0c0,0,0,.02,0-.02h0s0,.01,0,.01v.04s-.02.08-.02.08c-.02.11-.05.2-.08.29-.07.18-.15.35-.25.5-.1.15-.21.28-.32.4-.23.23-.45.4-.61.51-.16.11-.26.16-.26.16,0,0,.11-.02.3-.1.18-.08.45-.19.72-.41.13-.11.28-.24.4-.4.13-.16.25-.34.33-.55.04-.11.09-.22.11-.32l.02-.08v-.04s.01-.01.01-.01v-.03s0-.02,0-.02l.02-.16c.04-.2.05-.48,0-.73-.07-.25-.21-.47-.4-.65-.05-.04-.09-.08-.15-.12l-.17-.1c-.12-.05-.18-.08-.33-.12-.23-.06-.46-.04-.67.01-.21.05-.38.16-.52.26-.15.12-.24.22-.33.35-.07.12-.15.22-.18.31-.07.18-.11.29-.11.29Z"/>
    <path class="cls-3" d="m106.6,64.78c0,.25-.2.45-.45.45s-.45-.2-.45-.45.2-.45.45-.45.45.2.45.45Z"/>
    <path class="cls-20" d="m106.26,65.02c-.2,0-.36-.16-.36-.36,0-.16.1-.29.25-.33-.25,0-.45.2-.45.45s.2.45.45.45.45-.2.45-.45v-.03c-.04.15-.17.27-.34.27Z"/>
    <path class="cls-8" d="m101.32,103.64l4.25-16.31s2.26-10.34-3.48-10.43c0,0-2.91.53-4.16,6.08l-2.77,20.51s2.22,1.77,6.15.15Z"/>
    <path class="cls-8" d="m95.44,103.13l-5.51,19.45c.98,2.04,1.89,1.55,1.89,1.55l6.81-12.56c2.99-5.28,2.86-8.66,2.86-8.66,0,0,.53-3.07-3.65-2.59,0,0-1.88.24-2.41,2.81Z"/>
    <path class="cls-8" d="m89.84,128.85l.7-1.28s-.74,2.64-1.92,2.95c0,0-.23.12-.33-.33,0,0,1.11-2.07,1.37-3.12,0,0-.68,2.3-1.65,3.65,0,0-.7.35-.68-.45-.44.35-.52-.21-.52-.21,0,0,0-.54.27-1.68,0,0,.38-1.75.6-3.85,0,0-1.64.82-2.05-.08l2.27-1.42,2.27-1.16,1.92.75-.3,2.44s-.33,2.31-.91,3.39c0,0-1.87,2.98-1.03.41Z"/>
    <path class="cls-27" d="m112.77,193.11s-1.95.2-1.3,1.43c0,0,4.9,1.49,8.11.67,0,0,2.29-.33,1.65-2.78l-.19-2.03-3.29.57.15,1.71-5.13.43Z"/>
    <path class="cls-12" d="m121.23,192.44c.04.32.06.74-.21.9-1.31.79-2.85.94-4.35,1.03-1.49.09-2.98.23-4.47.09-.39-.04-.51-.15-.53-.26.15-.47.47-.89,1.09-1.08l-2.06.19c-1.58.12-1.92.34-2.27.62-.3,1.29,1.91,1.89,1.91,1.89,0,0,2.35.6,5.12.84,0,0,6.14.75,6.66-1.17l-.9-3.04Z"/>
    <path class="cls-14" d="m113.41,153.77s2.67,35.95,2.92,37.23c2.61,1.66,4.91-.04,4.91-.04-.01-1.76,1.91-16.46,2.11-19.22.34-4.75.91-10.74-2.09-17.56l-7.86-.41Z"/>
    <path class="cls-27" d="m100.93,194.99s-2.01-.02-1.48,1.3c0,0,4.81,2.06,8.17,1.6,0,0,2.36-.08,1.99-2.64l.04-2.08-3.41.21-.04,1.75-5.27-.14Z"/>
    <path class="cls-12" d="m109.61,195.25c0,.33-.02.75-.32.89-1.42.66-3.01.63-4.54.56-1.52-.07-3.06-.1-4.55-.42-.39-.08-.5-.21-.51-.33.21-.46.58-.85,1.23-.97l-2.11-.04c-1.62-.06-1.99.13-2.37.37-.45,1.28,1.73,2.13,1.73,2.13,0,0,2.32.88,5.11,1.43,0,0,6.16,1.45,6.9-.44l-.58-3.19Z"/>
    <path class="cls-26" d="m97.97,155.67s7.28,37.77,7.71,39c-.19-.09,3.44,1.67,5.05-.6-.27-1.74-.43-20.92-.64-23.68-.36-4.74-.31-9.17-4.29-15.47,0,0-9.93-7.11-7.83.76Z"/>
    <path class="cls-7" d="m126.34,141.76c-.35,10.98-30.95,5.26-30.95,5.26l4.56-41.4.88-7-3.9-13.43c-.3-2.07,3.44-7.58,4.4-8.38.93-.76,4.49-2.54,5.55-3.12,0,0,.92,1.13,4.88-.58,0,0,2.88-1.07,2.53-2.74,1.21-.39,1.6-.66,3.57-.99,2.79-.47,2.93,2.15,3.24,4.21l1.83,7.42s-1.17,13.15-.78,14.87c0,0,5.04,19.09,4.19,45.87Z"/>
    <path class="cls-2" d="m121.01,146.54c-2.27-1-4.55-2.09-6.63-3.47-1.65-1.1-2.53-2.06-2.86-4.08-.47-2.86.12-5.77.07-8.65-.05-2.72-.63-5.34.02-8.05.34-1.42.86-2.78,1.46-4.11.6-1.34,1.48-2.85,1.46-4.37-.03-1.92-1.91-2.94-2.97-4.33-1.84-2.42-1.86-4.83-.98-7.66.56-1.83,1.12-3.67,1.16-5.61.04-1.85-.26-3.66-.53-5.49-.42-2.85-.55-5.73-.12-8.59.77-5.11,3.12-9.82,7.35-12.8-.19,0-.38.01-.6.05-1.97.33-2.35.61-3.57.99.36,1.67-2.53,2.74-2.53,2.74-3.96,1.71-4.88.58-4.88.58-1.06.57-4.62,2.35-5.55,3.12-.96.79-4.7,6.3-4.4,8.38l3.9,13.43-.88,7-4.56,41.4s18.08,3.38,26.61-.05c-.33-.15-.66-.29-.98-.44Z"/>
    <path class="cls-11" d="m99.13,78.31c-1.94,2.16-2.97,4.36-3.63,7.12-1.19,5.04-.89,10.23-1.2,15.48-.33,5.48-2.36,10.74-4.07,15.94-.75,2.28-1.43,4.42,1.31,5.53,2.35.95,4.15-3.01,5.27-4.75,1.44-2.25,2.72-4.69,4.02-6.97,1.34-2.34,1.68-4.69,2.09-7.27.85-5.32,2.69-10.5,3.45-15.79.28-1.96.52-3.88.61-5.88.09-1.91.68-4.84-1.62-5.7-2.05-.76-4.9.82-6.23,2.3Z"/>
    <path class="cls-24" d="m122.64,54.08c1.42,4.97,1.29,10.22,1.05,15.48-.17,3.75-.56,7.33-.93,10.99-.36,3.51-1.08,7.66.44,10.95-1.34,1.14-4.48-2.16-5.24-3.21-1.58-2.2-2.47-4.59-2.82-7.24-.69-5.21.06-9.57,1.31-14.55.84-3.34,1.45-6.75.89-10.25-.21-1.27-.13-3.8-1.66-4.37-.82-.3-2.15.67-2.89.13-1.52-1.1,1.17-2.8,2.12-3.18,3.79-1.54,6.77,1.91,7.73,5.26Z"/>
    <path class="cls-26" d="m106.43,74.05c.81.16,1.61.26,2.41.26,1,0,1.99-.15,2.97-.52.48-.18,1.21-.51,1.83-.95.31-.22.59-.47.8-.75.21-.28.34-.59.34-.92,0-.27-.09-.55-.29-.84-.04-.05-.11-.07-.16-.03-.05.04-.07.11-.03.16.17.25.25.48.25.7,0,.27-.11.53-.3.78-.56.76-1.83,1.36-2.53,1.62-.95.36-1.91.5-2.88.5-.78,0-1.57-.09-2.37-.25-.06-.01-.12.03-.14.09-.01.06.03.12.09.14h0Z"/>
  </g>
  <g>
    <path class="cls-16" d="m160.24,34.15c-.02-3.4-2.01-7.12-4.93-9.32-.25-.19-.5-.32-.75-.47-4.4-2.54-8.79-5.08-13.19-7.62-4.31-2.49-8.62-4.9-12.92-7.49-3.07-1.84-5.92-.69-5.89,3.37.04,7.28.01,14.52.01,21.77,0,2.65,0,5.3,0,7.95,0,1.27.5,2.37,1.43,3.19.63.55,1.18.66,1.7.55,2.49-.48,4.98-.95,7.48-1.4.21-.04.51.03.77.18,6.82,3.92,13.64,7.82,20.47,11.83,2.88,1.69,5.82.82,5.82-3.17,0-6.46.03-12.91,0-19.39Zm-17.93,8.83c-.41.13-.89.03-1.46-.3s-1.07-.8-1.48-1.4c-.41-.6-.61-1.31-.61-2.13,0-.86.2-1.34.61-1.45.41-.11.9,0,1.48.34s1.05.78,1.46,1.36c.41.58.61,1.3.61,2.16s-.2,1.29-.61,1.42Zm4.27-10.66c-.21.44-.53.77-.95,1.01-.42.23-.95.43-1.59.59-.48.13-.84.25-1.09.38-.25.13-.43.3-.52.51-.09.22-.14.51-.14.9v.82s-3.15-1.82-3.15-1.82v-1.01c0-.62.08-1.12.23-1.51.15-.39.39-.71.73-.95.33-.24.77-.43,1.32-.57.49-.12.89-.25,1.18-.39.3-.15.52-.34.65-.57.14-.23.21-.55.21-.95,0-.59-.19-1.15-.57-1.68-.38-.53-.91-.99-1.59-1.38s-1.36-.66-2.03-.8c-.67-.14-1.35-.21-2.04-.21l-1.3-3.74c.79-.05,1.65.03,2.58.25.93.22,1.94.65,3.04,1.29,1.7.98,3.01,2.2,3.94,3.68.93,1.47,1.4,2.92,1.4,4.36,0,.76-.11,1.37-.32,1.8Z"/>
    <path class="cls-9" d="m158.73,34.58c-.02-3.4-2.01-7.12-4.93-9.32-.25-.19-.5-.32-.75-.47-4.4-2.54-8.79-5.08-13.19-7.62-4.31-2.49-8.62-4.9-12.92-7.49-3.07-1.84-5.92-.69-5.89,3.37.04,7.28.01,14.52.01,21.77,0,2.65,0,5.3,0,7.95,0,1.27.5,2.37,1.43,3.19.63.55,1.18.66,1.7.55,2.49-.48,4.98-.95,7.48-1.4.21-.04.51.03.77.18,6.82,3.92,13.64,7.82,20.47,11.83,2.88,1.69,5.82.82,5.82-3.17,0-6.46.03-12.91,0-19.39Zm-17.93,8.83c-.41.13-.89.03-1.46-.3s-1.07-.8-1.48-1.4c-.41-.6-.61-1.31-.61-2.13,0-.86.2-1.34.61-1.45.41-.11.9,0,1.48.34s1.05.78,1.46,1.36c.41.58.61,1.3.61,2.16,0,.82-.2,1.29-.61,1.42Zm4.27-10.66c-.21.44-.53.77-.95,1.01-.42.23-.95.43-1.59.59-.48.13-.84.25-1.09.38-.25.13-.43.3-.52.51-.09.22-.14.51-.14.9v.82s-3.15-1.82-3.15-1.82v-1.01c0-.62.08-1.12.23-1.51.15-.39.39-.71.73-.95.33-.24.77-.43,1.32-.57.49-.12.89-.25,1.18-.39.3-.15.52-.34.65-.57.14-.23.21-.55.21-.95s-.19-1.15-.57-1.68c-.38-.53-.91-.99-1.59-1.38s-1.36-.66-2.03-.8c-.67-.14-1.35-.21-2.04-.21l-1.3-3.74c.79-.05,1.65.03,2.58.25.93.22,1.94.65,3.04,1.29,1.7.98,3.01,2.2,3.94,3.68.93,1.47,1.4,2.92,1.4,4.36,0,.76-.11,1.37-.32,1.8Z"/>
  </g>
  <g>
    <path class="cls-4" d="m.91,159.32c.16,0,.32-.04.46-.13l29.43-17.68c1.11-.67,1.8-1.89,1.8-3.18v-52.24c0-.58-.49-.94-.94-.94-.17,0-.33.05-.48.14L1.8,102.94C.69,103.6,0,104.82,0,106.11v52.3c0,.32.15.53.27.65.17.17.41.26.64.26h0Z"/>
    <path class="cls-13" d="m1.44,159.7c.16,0,.32-.04.46-.13l29.43-17.68c1.11-.67,1.8-1.89,1.8-3.18v-52.24c0-.58-.49-.94-.94-.94-.17,0-.33.05-.48.14L2.33,103.32c-1.11.67-1.8,1.88-1.8,3.17v52.3c0,.32.15.53.27.65.17.17.41.26.64.26h0Z"/>
    <path class="cls-3" d="m5.56,111.97c-.18,0-.36-.09-.47-.26-.16-.26-.09-.6.17-.77l23.2-14.65c.26-.16.6-.09.77.17.16.26.09.6-.17.77l-23.2,14.65c-.09.06-.19.09-.3.09Z"/>
    <path class="cls-3" d="m5.56,116.63c-.18,0-.36-.09-.47-.26-.16-.26-.09-.6.17-.77l23.2-14.65c.26-.16.6-.09.77.17.16.26.09.6-.17.77l-23.2,14.65c-.09.06-.19.09-.3.09Z"/>
    <path class="cls-3" d="m5.56,121.28c-.18,0-.36-.09-.47-.26-.16-.26-.09-.6.17-.77l23.2-14.65c.26-.16.6-.09.77.17.16.26.09.6-.17.77l-23.2,14.65c-.09.06-.19.09-.3.09Z"/>
    <path class="cls-3" d="m5.45,125.91c-.18,0-.36-.09-.47-.26-.16-.26-.09-.6.17-.77l15.83-10c.26-.16.6-.09.77.17.16.26.09.6-.17.77l-15.83,10c-.09.06-.19.09-.3.09Z"/>
    <path class="cls-3" d="m5.56,134.5c-.18,0-.36-.09-.47-.26-.16-.26-.09-.6.17-.77l23.2-14.65c.26-.16.6-.09.77.17.16.26.09.6-.17.77l-23.2,14.65c-.09.06-.19.09-.3.09Z"/>
    <path class="cls-3" d="m5.56,139.15c-.18,0-.36-.09-.47-.26-.16-.26-.09-.6.17-.77l23.2-14.65c.26-.16.6-.09.77.17.16.26.09.6-.17.77l-23.2,14.65c-.09.06-.19.09-.3.09Z"/>
    <path class="cls-3" d="m5.56,143.8c-.18,0-.36-.09-.47-.26-.16-.26-.09-.6.17-.77l23.2-14.65c.26-.16.6-.09.77.17.16.26.09.6-.17.77l-23.2,14.65c-.09.06-.19.09-.3.09Z"/>
    <path class="cls-3" d="m5.45,148.8c-.18,0-.36-.09-.47-.26-.16-.26-.09-.6.17-.77l15.83-10c.26-.16.6-.09.77.17.16.26.09.6-.17.77l-15.83,10c-.09.06-.19.09-.3.09Z"/>
  </g>
  <g>
    <polygon class="cls-15" points="55.35 6.97 50.65 4.29 45.4 13.34 40.15 10.35 35.45 18.46 40.7 21.45 35.45 30.5 40.15 33.18 45.4 24.13 50.65 27.12 55.35 19.01 50.1 16.02 55.35 6.97"/>
    <polygon class="cls-5" points="56.82 7.86 52.12 5.18 46.87 14.23 41.62 11.24 36.92 19.35 42.17 22.34 36.92 31.39 41.62 34.07 46.87 25.02 52.12 28.01 56.82 19.9 51.57 16.91 56.82 7.86"/>
  </g>
</svg>