<?xml version="1.0" encoding="UTF-8"?>
<svg id="Capa_1" data-name="Capa 1" xmlns="http://www.w3.org/2000/svg" viewBox="0 0 1830.85 1722.21">
  <defs>
    <style>
      .cls-1 {
        fill: #ce4242;
      }

      .cls-2 {
        fill: #1a1e33;
      }

      .cls-3 {
        fill: #fff;
      }

      .cls-4 {
        fill: #303753;
      }

      .cls-5 {
        fill: #291630;
      }

      .cls-6 {
        fill: #622483;
      }

      .cls-7 {
        fill: #f07f21;
      }

      .cls-8 {
        fill: #e54849;
      }

      .cls-9 {
        fill: #46ac4a;
      }

      .cls-10 {
        fill: #58c1d5;
      }

      .cls-11 {
        isolation: isolate;
        opacity: .87;
      }

      .cls-12 {
        fill: #e6f5fe;
      }

      .cls-13 {
        fill: #121428;
      }

      .cls-14 {
        fill: #f7b6a0;
      }

      .cls-15 {
        fill: #3b9ba7;
      }

      .cls-16 {
        fill: #59c1d5;
      }

      .cls-17 {
        fill: none;
      }

      .cls-18 {
        fill: #f2937c;
      }

      .cls-19 {
        fill: #f9f7f5;
      }

      .cls-20 {
        fill: #f8e4d4;
      }

      .cls-21 {
        fill: #432918;
      }

      .cls-22 {
        fill: #cde0eb;
      }

      .cls-23 {
        fill: #21263d;
      }

      .cls-24 {
        fill: #e8eaeb;
      }

      .cls-25 {
        fill: #006092;
      }

      .cls-26 {
        fill: #e8eef9;
      }
    </style>
  </defs>
  <path class="cls-26" d="m1274.82,1574.44c0,81.6-194.87,147.76-435.26,147.76s-435.25-66.16-435.25-147.76,194.86-147.75,435.25-147.75,435.26,66.14,435.26,147.75Z"/>
  <g class="cls-11">
    <path class="cls-15" d="m1.45,862.72c1.06-36.88,37.09-74.19,111.79-108.78,62.23-28.82,145.26-52.95,241.87-71.87l.65-569.89c-96.61,18.92-179.63,43.06-241.87,71.87C39.19,218.64,3.16,255.95,2.1,292.83l-.65,569.89"/>
    <path class="cls-15" d="m431.23,668.66c237.48-37.43,537.34-46.45,811.22-20.55l.26-230.15c-273.87-25.89-573.74-16.87-811.22,20.55l-.26,230.15"/>
    <path class="cls-15" d="m1341.89,659.23c6.94.9,13.86,1.83,20.76,2.78,257.3,35.47,421.42,97.25,468.17,164.73l.53-464.87c-46.76-67.48-210.88-129.26-468.17-164.73-6.89-.95-13.81-1.88-20.76-2.78l-.53,464.87"/>
    <path class="cls-15" d="m1156.78,339.19c.72,7.14,4.54,11.2,11.7,12.43,17.42,1.23,34.77,2.6,52.03,4.11,9.13-.13,11-6.37,11.35-8.27,2.98-15.99.28-37.95.3-54.21-.71-7.17-4.49-11.3-11.56-12.64-17.26-1.51-34.61-2.87-52.03-4.11-9.23.28-11.12,6.57-11.48,8.49-3,15.99-.28,37.95-.3,54.22"/>
    <path class="cls-15" d="m987.38,329.13c.73,7.1,4.6,10.97,11.84,11.85,38.53.84,77.06,2.29,115.35,4.39,7.25-.33,11.11-3.91,11.78-10.95,3.24-33.82.09-79.28.13-113.26-.72-7.14-4.57-11.16-11.76-12.27-38.29-2.09-76.82-3.55-115.35-4.39-7.2.56-11.19,4.39-11.86,11.37-3.25,33.82-.09,79.28-.13,113.26"/>
    <path class="cls-15" d="m987.56,164.19c1.03,10.07,6.53,15.58,16.81,16.84,17.26.4,34.53.92,51.77,1.57,3.34-.21,13.5-.83,16.47-12.52,3.98-15.72.39-37.83.4-54.05-1.03-10.13-6.52-15.75-16.77-17.16-17.24-.65-34.5-1.17-51.77-1.57-3.34.26-13.52,1.04-16.5,12.83-3.97,15.72-.39,37.84-.41,54.06"/>
    <path class="cls-15" d="m898.05,256.33c.72,7.08,4.58,10.86,11.79,11.56,13.9-.04,27.83,0,41.77.12,8.47-.77,10.91-6.07,11.61-9.16,2.87-12.68.28-30.33.29-43.33-.73-7.11-4.6-10.95-11.83-11.73-13.94-.12-27.86-.16-41.77-.12-8.44.87-10.87,6.22-11.57,9.33-2.86,12.68-.28,30.34-.29,43.34"/>
    <path class="cls-16" d="m155.64,847.09c.42,6.92,2.68,9.87,6.92,9.02,10.52-3.87,21.45-7.64,32.76-11.3q7.57-3.63,7.64-66.5c-.47-6.95-2.94-9.96-7.56-9.19-11.31,3.66-22.24,7.43-32.76,11.3q-6.93,3.73-7,66.67"/>
    <path class="cls-16" d="m71.81,946.74c.29,7,1.83,9.78,4.84,8.75,10.91-6.34,23.03-12.61,36.39-18.8,7.37-3.41,15.02-6.76,22.96-10.03q6.57-3.9,6.72-133.86c-.4-6.94-2.55-9.86-6.56-8.94-7.94,3.28-15.59,6.62-22.96,10.03-13.36,6.19-25.48,12.46-36.39,18.8q-4.85,4-5,134.05"/>
    <path class="cls-16" d="m213.04,939.43c.47,6.94,3.03,9.97,7.81,9.27,37.16-10.99,77.91-20.94,121.58-29.8q9.3-3.07,9.5-177.78c-.57-6.99-3.61-10.17-9.29-9.75-43.66,8.86-84.42,18.81-121.58,29.8q-7.83,3.49-8.02,178.25"/>
    <path class="cls-15" d="m1784.41,954.9c.25,7.23,1.58,11.94,4.07,14.39,12.94,8.97,23.69,18.12,32.2,27.41.3.06.71.14,1.01.2q1.56-3.01,1.69-121.18c-.15-7.42-.96-12.03-2.55-14.5-8.51-9.29-19.26-18.45-32.2-27.41-.24-.1-.57-.22-.81-.32q-3.28,1.72-3.42,121.41"/>
    <path class="cls-15" d="m1634.22,1011.16c.46,7.22,2.91,11.79,7.5,13.96,50,15.78,91.27,33.03,123.22,51.24.55.04,1.29.1,1.84.14q2.86-3.13,3.13-243.01c-.37-9.71-2.66-12.16-4.67-14.33-31.94-18.21-73.21-35.46-123.22-51.24q-7.52.01-7.79,243.24"/>
    <path class="cls-15" d="m1784.28,1066.3c.25,7.23,1.58,11.94,4.07,14.39,6.84,4.74,13.07,9.53,18.68,14.37q3.22,1.63,3.3-68.12c-.19-7.41-1.21-12-3.21-14.45-5.61-4.84-11.84-9.63-18.68-14.37q-4.09-1.62-4.17,68.19"/>
  </g>
  <path class="cls-8" d="m767.17,16.15c-28.39,27.67-43.02,74.51-43.02,111.63-.01,37.69,10.04,78.59,12.47,117.24,3,47.57-11.33,70.18-38.09,106.71-4.31,5.88-8.51,11.35-11.54,17.65,34.87,7.75,80.53-33.69,96.47-62,20.27-35.99,17.68-84.23,9.99-122.23-5.35-26.41-25.67-91.67-9.43-117.23,13.61-21.41,26.4.84,41.78,5.59,36.95,11.4,47.95-37.09,25.66-58.48-21.46-20.59-62.77-19.84-84.29,1.12Z"/>
  <path class="cls-14" d="m1088.09,378.71s-26.57,39.16-109.13,171.41c0,0-32.04-1.24-19,90.54,0,0,22.7,20.64,20.79-27.84l12.5-44.43s112.22-99.81,142.17-150.99c0,0,1.74-19.71-47.34-38.7Z"/>
  <path class="cls-14" d="m921.83,321.42c10.23,26.46,39.98,39.65,66.46,29.41,26.48-10.24,71.05-25.56,52.91-47.39-38.2-45.96-68.27-54.54-94.74-44.32-26.48,10.23-34.87,35.82-24.62,62.3Z"/>
  <path class="cls-14" d="m963.35,343.91l-3.93-51.69,67.55-5.07s66.7,73.87,97.24,99.31c32.52,27.09-5.91,49.62-19.88,52.81,0,0-113.7-76.65-140.98-95.37Z"/>
  <path class="cls-12" d="m941.87,248.65s44.82,6.66,67.59,14.09l115.06,103.27s-14.97,24.95-64.86,49.89l-100.09-53.38s-91.98-40.17-17.7-113.87Z"/>
  <path class="cls-12" d="m1060.91,410.91s-68.6,94.79-81.07,124.72c0,0,4.99,28.69,26.2,33.68,0,0,135.95-122.23,139.69-164.64,0,0,8.73-16.21-21.2-38.66,0,0-18.71-8.73-63.61,44.9Z"/>
  <path class="cls-14" d="m837.69,273.12h87.63c-3.99-12.77-12.24-45.79.54-68.26l-88.53-58.13s15.74,97.55.36,126.39Z"/>
  <path class="cls-18" d="m847.51,218.07c5.25,13.41,13.74,19.95,27.59,24.33,15.35,4.85,30.09,5.8,44.5,3.29-1.39-13.45-.65-28.68,6.26-40.83l-88.53-58.13s4.8,29.75,6.5,61.25c1.2,3.35,2.37,6.72,3.68,10.09Z"/>
  <path class="cls-14" d="m942.71,227.23l4.64-13.18,11.36-38.76c1.57-6.16,2.3-14.58.19-20.59-2.54-7.23-4.5-19-1.79-32.18,7.21-35.29-8.45-53.7-8.45-53.7-20.6-32.44-69.2-32.29-69.2-32.29-60.09,3.13-64.99,61.3-64.99,61.3-9.66,38.71,21.22,70.85,21.27,70.91,3.91,4.06,4.32,10.66,6.21,15.69,2.02,5.38,5.05,10.39,8.82,14.7,8.46,9.69,19.48,18.96,30.8,24.73,10.74,5.46,31.55,11.08,46.34,10.92,6.12-.06,12.14.01,14.81-7.55Z"/>
  <path class="cls-14" d="m759.83,1135.67c-44.43,82.06-43.13,123.13-51.03,185.51-4.61,36.29-4.22,183.82-8.98,206.63-1.98,9.45,26.12,4.28,26.12,4.28,6.57-15.99,110.96-369.57,110.96-369.57,0,0,11.7-36.36,2-42.69-48.78-31.78-59.7-19.92-79.06,15.84Z"/>
  <path class="cls-14" d="m830.62,741.56s11.76,233.16,54.9,358.56c6.42,18.7,80.14-6.16,80.14-6.16,0,0,37.2-200.61,34.97-283.71-1.26-46.98-18.08-148.28-18.08-148.28,0,0-138.23-18.07-151.93,79.59Z"/>
  <path class="cls-14" d="m887.63,1099.28l78.02-5.32s-53.37,399.84-57.71,416.56c0,0-25.63,8.37-26.27-1.29-1.67-24.75-16.83-194.31-17.68-230.88-1.37-58.75-9.75-101.42,23.64-179.08Z"/>
  <path class="cls-2" d="m965.66,1111.97c34.76-174.26,35.06-274.98,34.97-301.73-.21-72.36-18.08-148.28-18.08-148.28,0,0-138.23-18.07-151.93,79.59,0,0,2.55,224.85,43.1,376.95,46.18,10.96,47.64,12.75,91.94-6.53Z"/>
  <path class="cls-14" d="m735.22,761.06s.9,233.25,31.66,362.24c4.58,19.23,74.86,13.34,74.86,13.34,0,0,45.86-220.59,51.7-303.53,3.3-46.88,12.68-128.91,12.68-128.91,0,0-164.51-16.31-170.89,56.86Z"/>
  <path class="cls-14" d="m769.24,308.47c-35.86,26.22-17.52,65.64-17.52,65.64l67.71,164.45s109.81,37.35,136.4-.74c12.13-17.38,23.37-63.48,38.11-129.98,10.02-45.19,10.23-126.07-16.6-147.85-13.87-11.26-45.53-10.91-57.75-14.3l-79.81,24.61-70.54,38.17Z"/>
  <path class="cls-14" d="m914.22,525.14c6.51-1.17,41.62,12.68,41.62,12.68,0,0,25.29,107.77,26.72,124.15,1.44,16.37-111.25,101.21-237.14,52.91,0,0,63.57-149.94,72.87-181.29,10.66-36,95.94-8.46,95.94-8.46Z"/>
  <path class="cls-6" d="m975.35,315.31s37.16,43.76,40.28,76.27c1.73,18.1-21.12,48.4-32.55,59.57-8.1,7.91-56.1-105.62-7.73-135.83Z"/>
  <path class="cls-25" d="m776.26,679.15s-44.39,9.87-40.39,91.23c3.91,79.46,148.57,95.98,167.15,15.92,19.98-86.17-47.77-136.68-126.76-107.15Z"/>
  <path class="cls-8" d="m858.89,162.15c1.59,10.34-15.4-6.84-16.05,1.18,0,0-.69-1.69.87,26.69l1,24.3s-51.86-38.89-54.75-103.1c0,0,.41-62.18,57.39-77.12,0,0,131.41-37.66,110.81,80.18,0,0,.93-32.19-23.26-36.48,0,0-73.55-7.39-71.37,52.73,0,0-7.48,13.09-4.64,31.62Z"/>
  <path class="cls-14" d="m846.67,179.75c-2.16,1.66-4.91,2.6-8.34,2.54-9.3-.13-17.04-8.85-17.26-19.44-.2-10.57,7.13-19.05,16.43-18.91,4.41.06,8.47,2.05,11.53,5.26,4.47,4.68,4.62,13.3,3.56,19.23-.84,4.75-2.71,8.83-5.91,11.31Z"/>
  <path class="cls-18" d="m839.65,149.43c-5.74-.55-10.77,2.37-13.12,7.62-3.11,6.97,1.57,12.6,8.39,14.1.98.21,4.71-1.36,3.59-1.61-4.1-.9-8.01-3.55-8.59-7.92-.41-3.04,1.91-10.98,6.15-10.58.99.1,4.62-1.52,3.59-1.61Z"/>
  <path class="cls-18" d="m835.73,163.71c1.03-.55,2.32-1.4,3.53-1.44,1.55-.05,2.15,2.07,2.48,3.2.87,3.08-.02,6.71-3.37,7.67-2.61.75-1.98,3.16.64,2.41,5.69-1.62,8.49-6.21,6.85-11.98-1.64-5.76-8.04-3.94-11.91-1.87-2.63,1.41-.21,3.08,1.77,2.01Z"/>
  <path class="cls-21" d="m899.97,138.83c.32,3.33-1.25,6.21-3.51,6.42-2.26.23-4.36-2.3-4.68-5.63-.32-3.32,1.25-6.2,3.51-6.41,2.26-.22,4.36,2.3,4.68,5.62Z"/>
  <path class="cls-21" d="m946.2,132.59c.12,3.35-1.62,6.12-3.89,6.21-2.27.09-4.21-2.55-4.33-5.91-.12-3.34,1.62-6.11,3.88-6.2,2.27-.08,4.21,2.56,4.34,5.89Z"/>
  <path class="cls-18" d="m910.26,187.82c9.11,2.05,18.12,4.07,26.45-1.08,2.74-1.7.23-6.03-2.52-4.32-7.1,4.39-14.86,2.33-22.6.58-3.14-.71-4.47,4.12-1.32,4.82Z"/>
  <path class="cls-18" d="m921.84,172.51c.45.06.91.08,1.35.08,1.75,0,3.42-.34,4.72-.68.65-.17,1.2-.34,1.61-.48l.55-.2.28-.13.3-.18.38-.31.38-.48c.14-.24.35-.64.36-1.29.02-.52-.22-1.22-.61-1.64-.59-.64-1.09-.73-1.36-.8l-.54-.06c-.49.02-.49.05-.61.07l-.25.07.71,2.4,1.86,1.67c3.04-3.4,5.71-7.22,7.5-11.38.52-1.21,0-2.62-1.17-3.21-2.81-1.43-4.66-2.96-6.34-4.84-1.68-1.88-3.18-4.18-5.05-7l-.03-.04-.02-.04c-.37-.51-3.95-6.2-3.9-12.22.02-3.09.82-6.2,3.37-9.23.89-1.05.76-2.63-.29-3.52-1.05-.89-2.63-.77-3.53.29-3.38,3.97-4.57,8.46-4.55,12.46.05,8.39,4.72,14.91,4.83,15.11l2.05-1.43-2.08,1.39c1.85,2.78,3.45,5.27,5.48,7.55,2.02,2.28,4.48,4.3,7.82,5.98l1.13-2.23-2.3-.98c-1.5,3.5-3.85,6.92-6.61,10-.75.84-.86,2.06-.25,3.01.59.95,1.75,1.38,2.82,1.06l-.2-.68.16.69h.04s-.2-.69-.2-.69l.16.69-.51-2.2v2.26c.48-.02.43-.05.51-.06l-.51-2.2v2.26-2.48l-.86,2.33c.52.18.71.14.86.16v-2.48l-.86,2.33.87-2.34-1.89,1.64,1.02.71.87-2.34-1.89,1.64,1.89-1.64h-2.5c-.01.52.23,1.22.61,1.64l1.89-1.64h-2.5,2.5l-2.14-1.29c-.14.25-.35.64-.36,1.29h2.5l-2.14-1.29,2.12,1.28-1.53-1.95c-.12.11-.29.2-.59.67l2.12,1.28-1.53-1.95,1.45,1.86-1.1-2.08-.35.23,1.45,1.86-1.1-2.08.64,1.22-.53-1.27-.11.05.64,1.22-.53-1.27c-.08.04-.93.34-1.89.56-.98.23-2.16.43-3.11.43l-.73-.04c-1.37-.17-2.62.8-2.8,2.17-.17,1.38.8,2.62,2.17,2.8Z"/>
  <path class="cls-1" d="m882.48,133.08c3.57-3.93,10.16-6.32,15.43-6.28,1.46,0,2.8.17,3.92.48,1.99.54,4.05-.63,4.59-2.62.54-2-.63-4.05-2.62-4.6-1.87-.51-3.86-.74-5.89-.74-7.27.05-15.39,2.83-20.91,8.66-1.41,1.51-1.32,3.88.18,5.29,1.51,1.41,3.88,1.33,5.29-.18Z"/>
  <path class="cls-1" d="m932.75,120.19c3.55-2.74,6.94-3.82,9.79-3.82,2.12,0,3.97.59,5.57,1.67,1.71,1.16,4.04.72,5.2-.99,1.16-1.71.71-4.04-.99-5.2-2.85-1.94-6.24-2.97-9.79-2.96-4.77,0-9.74,1.82-14.36,5.38-1.64,1.26-1.95,3.61-.68,5.25,1.26,1.64,3.61,1.94,5.25.68Z"/>
  <path class="cls-23" d="m853.13,1128.23c8.32-48.1,45.24-268.16,47.32-297.59,3.3-46.88,5.66-126.45,5.66-126.45,0,0-164.51-16.31-170.89,56.86,0,0,1.41,75.16,8.87,357.45,42.34,9.44,67.62,22.37,109.05,9.73Z"/>
  <path class="cls-23" d="m973.84,617.18c7.41,36.01,13.47,77.88,15.01,85.47,20.61,101.39-173.96,216.14-247.43,16.22,0,0,19.9-65.8,47.84-109.5,0,0,77.12,41.76,184.58,7.8Z"/>
  <path class="cls-3" d="m847.11,181.69c0,3.15-2.54,5.7-5.7,5.7s-5.69-2.55-5.69-5.7,2.55-5.7,5.69-5.7,5.7,2.55,5.7,5.7Z"/>
  <path class="cls-10" d="m1006.51,382.45c-19.95-47.39-64.64-133.8-64.64-133.8-7.72-.98-16.07-1.92-16.07-1.92,16.09,60.42-5.78,74.66-5.78,74.66-66.56,1.89-82.92-51.09-82.92-51.09l-16.03,10.12s49.59,103-46.12,150.11c0,0,1.68,54.22,5.42,117.83,0,0-41.26,130.7-53.73,219.68,0,0,234.48,68.18,276.89-59.04l2.18-285.36.8-37.77"/>
  <path class="cls-23" d="m744.08,1118.5s-61.51,121-51.53,385.41c0,0,14.05,16.62,51.55,9.98l109.03-385.66s.08-94.68-109.05-9.73Z"/>
  <path class="cls-14" d="m811.43,1608.16l-49.6-29.96s-30.17-20.12-32.46-31.62c-.84-4.17-3.05-11.2-2.67-17.45l-26.49-2.93-11.41,47.57s23.05,21.48,66.51,42.61c0,0,30.1,11.49,54.2,3.49,0,0,10.95-2.55,1.92-11.71Z"/>
  <path class="cls-5" d="m811.43,1608.16l-30.39-18.36c-7.51,11.92-25.51,6.95-36.87.75-19.43-10.59-36.88-28.16-48.02-47.43l-7.35,30.66s23.05,21.48,66.51,42.61c0,0,30.1,11.49,54.2,3.49,0,0,10.95-2.55,1.92-11.71Z"/>
  <path class="cls-14" d="m1006.7,1566.18l-53.73-21.7s-32.98-15.07-37.08-26.05c-1.49-3.98-4.79-10.57-5.41-16.8l-26.62,1.31-3.7,48.78s26.17,17.55,72.43,31.5c0,0,31.54,6.56,54.07-5.16,0,0,10.4-4.26.04-11.87Z"/>
  <path class="cls-5" d="m1006.7,1566.18l-32.92-13.29c-5.52,12.96-24.08,10.91-36.29,6.6-20.86-7.37-40.89-21.93-54.95-39.2l-2.38,31.43s26.17,17.55,72.43,31.5c0,0,31.54,6.56,54.07-5.16,0,0,10.4-4.26.04-11.87Z"/>
  <path class="cls-2" d="m876.31,1115.6s-19.9,66.36-19.02,179.86l10.29,209.28s19.95,28.69,57.37,2.49l40.7-395.27s.57-88.32-89.34,3.63Z"/>
  <path class="cls-19" d="m687.11,1041.48s82.64,35.34,171.75,32.96l33.26-463.56,2.31-212.22c-32.19-99.17-58.94-130.34-58.94-130.34-138.4,35.73-118.03,110.38-118.03,110.38l30.98,240.09s-40.91,160.05-61.32,422.69Z"/>
  <path class="cls-24" d="m809.6,1072.25c-12.23-11.82-23.9-24.18-34.24-37.79-13.24-17.44-24.16-36.33-27.21-58.31-3.17-22.81,1.78-47.05,6.75-69.25,5.81-25.92,12.24-51.59,17.32-77.66,4.75-24.39,9.08-49,15.91-72.92,12.5-43.81,34.45-80.59,69.28-109.93-13.78-6.66-28.12-10.7-42.32-16.36-8.4-3.35-15.74-8.12-20.36-16.16-8.66-15.06-11.74-33-14.38-49.93-3.25-20.94-5.95-42.74-2.45-63.83,3.53-21.3,13.07-40.62,26.98-57.13,11.31-13.43,26.22-24.96,34.74-40.52,22.51-41.12-1.33-84.18,1.07-126.9-3.34-5.04-5.23-7.24-5.23-7.24-138.4,35.73-118.03,110.38-118.03,110.38l30.98,240.09s-40.91,160.05-61.32,422.69c0,0,54.39,23.26,122.5,30.77Z"/>
  <path class="cls-14" d="m829.23,354.41c3.92,28.11-28.62,64.69-56.75,68.6-28.11,3.91-97.02-9.22-81.11-32.73,31.27-46.21,55.54-75.16,84.23-84.52,26.99-8.8,49.72,20.53,53.63,48.64Z"/>
  <path class="cls-14" d="m793.22,405.25l-11.51-50.54-51.38-13.95s-130.82,99.6-153.7,132.08c-19.52,27.7,17.07,38.52,30.37,33.53,0,0,165.68-75.18,186.21-101.12Z"/>
  <path class="cls-14" d="m577.08,499.72s80.12,64.93,153.21,92.85c0,0,23.18-11.06,10.84-21.44-20.97-17.6-97.99-107.83-119.14-125.46-11.9-9.9-44.9,54.05-44.9,54.05Z"/>
  <path class="cls-14" d="m771.9,568.17l-30.42,2.12-10.83,21.42,21.54,18.84s14.55,16.81,39.85,25.03l8.34,2.55s9.56-4.76-5.27-11.94l-10.27-6.17s27,17.16,39.61,10.7c0,0,2.91-.71.25-5.38,0,0-25.76-9.38-36.16-16.42,0,0,28.1,17.75,44.88,12.18,0,0,6.44-4.21.2-8.27,0,0-26.6-8.61-41.58-15.96,0,0,27.95,9.14,40.74,8.41,0,0,5.73-5.63-2.48-9.09,0,0-14.19-9.69-35.94-20.75,0,0-9.42-10.47-13.99-27.1,0,0-5.74-.29-8.48,19.81Z"/>
  <path class="cls-12" d="m804.81,278.28s-57.14,10.27-85.97,38.86l-103.61,95.01s-.67,47.34,51.55,74l133.87-67.35s76.5-69.84,4.16-140.52Z"/>
  <path class="cls-22" d="m822.5,291.73c.18,1.8.46,9.09.8,18.8.52,14.62,1.21,34.98,2.1,52.27.44,8.65.93,16.52,1.48,22.55.27,3.02.56,5.57.87,7.57.16,1,.32,1.86.5,2.6.2.75.35,1.34.75,2.04,1.88,3.23,5,5.16,8.37,6.21,3.39,1.07,7.17,1.38,10.97,1.38,4.34,0,8.75-.42,12.55-.75l-.21-2.48-2.24-1.09c-2.93,6.03-8.02,10.83-12.66,15.88-2.31,2.54-4.5,5.14-6.16,8.11-1.65,2.95-2.75,6.3-2.74,10.07,0,1.25.12,2.55.37,3.89h0c2.76,14.85,22.2,105.84,32.46,169.16.21,1.36,1.5,2.28,2.86,2.06,1.36-.22,2.29-1.5,2.06-2.86-10.28-63.49-29.75-154.61-32.48-169.29h0c-.2-1.05-.29-2.03-.29-2.98,0-2.81.78-5.23,2.11-7.64,2-3.6,5.37-7.07,8.96-10.89,3.58-3.82,7.37-8.02,9.98-13.34.39-.81.32-1.77-.19-2.5-.51-.75-1.38-1.15-2.27-1.07-3.84.33-8.09.73-12.12.73-3.52,0-6.85-.31-9.47-1.14-2.64-.84-4.46-2.09-5.56-3.97h0c-.09-.21-.29-.97-.47-1.99-.7-3.91-1.37-11.9-1.96-21.62-.87-14.6-1.59-33.22-2.15-48.88-.28-7.83-.52-14.93-.73-20.42-.21-5.52-.37-9.34-.53-10.92-.14-1.37-1.36-2.37-2.73-2.23-1.37.14-2.37,1.36-2.23,2.73Z"/>
  <path class="cls-12" d="m619.38,410.49s-83.15,54.05-44.07,102.27c0,0,86.47,74.84,152.99,87.31,0,0,18.29-9.98,14.96-36.59,0,0-96.45-139.69-123.89-153Z"/>
  <path class="cls-19" d="m1076.7,1001.69c-38.25,33.27-112.42,42.54-112.42,42.54l-24.6-446.52,14.69-220.01-28.41-131.11s30.18,3.43,51.38,8.42c0,0,65.47,104.33,63.09,170.82l-13.46,152.16s42.65,209.3,49.74,423.7Z"/>
  <path class="cls-22" d="m947.98,269.13c.09.86.32,1.7.68,2.85,1.3,4.21,4.36,12,8.28,21.63,5.87,14.43,13.63,32.87,19.9,48.62,3.14,7.87,5.91,15.07,7.88,20.71.98,2.82,1.77,5.26,2.3,7.17.53,1.89.78,3.34.76,3.77v.07l.91.11-.87-.28-.04.17.91.11-.87-.28,2.38.78-2.36-.82c-.57,1.63-1.63,2.93-3.25,4.09-2.42,1.74-6.09,2.98-10.14,3.81-4.05.84-8.45,1.3-12.38,1.74-.9.1-1.67.67-2.02,1.5-.35.83-.23,1.78.31,2.49,5.22,6.8,12.35,10.83,17.85,15.05,2.76,2.1,5.1,4.21,6.72,6.58,1.62,2.38,2.58,4.98,2.64,8.45h0c.01.62.01,1.27.01,1.91.01,28.89-8.9,74.66-18.07,113.02-4.58,19.19-9.22,36.55-12.82,49.1-1.8,6.27-3.33,11.34-4.46,14.82-.57,1.73-1.04,3.07-1.37,3.92l-.35.84-.02.03,1.36.78-1.17-1.03-.18.25,1.36.78-1.17-1.03,1.71,1.5-1.27-1.88-.44.38,1.71,1.5-1.27-1.88,1.36,2.02v-2.43c-.7,0-1.13.26-1.36.41l1.36,2.02v-2.43,2.45l1.88-1.58c-.3-.4-1.1-.9-1.88-.88v2.45l1.88-1.58-1.79,1.5,2.3-.41c-.05-.18-.04-.48-.52-1.09l-1.79,1.5,2.3-.41-1.62.29h1.66l-.03-.29-1.62.29h1.66-.19.19s0,0,0,0h-.19.19c0-.23.27-1.88.85-4.4.3-1.34-.54-2.68-1.88-2.98-1.34-.3-2.68.54-2.98,1.88-.32,1.41-.55,2.53-.71,3.41-.16.89-.25,1.44-.27,2.1l.11.87.51.96c.31.42,1.12.93,1.94.9.96-.03,1.41-.43,1.66-.61.47-.43.54-.62.68-.83.4-.71.68-1.49,1.14-2.76,3.29-9.21,12.38-40.89,20.72-77.18,8.32-36.29,15.87-76.98,15.89-104.28,0-.67,0-1.33-.02-1.98h0c-.05-4.42-1.41-8.14-3.52-11.2-3.16-4.59-7.78-7.77-12.32-11.02-4.57-3.23-9.1-6.5-12.39-10.83l-1.98,1.51.28,2.48c5.21-.59,11.54-1.21,17.15-2.89,2.81-.84,5.46-1.95,7.72-3.56,2.25-1.59,4.12-3.76,5.07-6.52v-.04c.19-.55.22-1,.22-1.46,0-1.03-.2-2.08-.5-3.4-1.15-4.85-4.11-13.03-7.96-22.94-5.77-14.83-13.52-33.34-19.88-48.83-3.18-7.75-6.02-14.73-8.09-20.11-1.03-2.69-1.87-4.97-2.46-6.71-.59-1.71-.92-3.04-.93-3.25-.13-1.37-1.35-2.37-2.72-2.24-1.37.14-2.37,1.36-2.23,2.73h0Z"/>
  <polygon class="cls-20" points="826.57 937.32 727.86 922.77 731.5 898.08 830.2 912.65 826.57 937.32"/>
  <polygon class="cls-20" points="1070.88 897.96 993.09 914.39 987.9 889.99 1068.39 872.7 1070.88 897.96"/>
  <path class="cls-23" d="m920.04,246.61c.82-.04,1.62-.06,2.4-.06,8.16,0,14.03,2.17,18.69,5.41,4.66,3.24,8.11,7.61,11.22,12.08,24.8,35.67,29.48,81.49,33.97,123.95.07.68.69,1.18,1.37,1.11.68-.07,1.18-.69,1.11-1.38-4.53-42.43-9.13-88.7-34.41-125.11-3.17-4.55-6.79-9.19-11.84-12.7-5.05-3.52-11.51-5.86-20.12-5.85-.82,0-1.67.02-2.53.06-.68.04-1.21.62-1.18,1.31.04.69.62,1.22,1.31,1.18Z"/>
  <path class="cls-23" d="m839.53,262.83c-17.52,12.49-25.51,20.63-31.37,40.32-3.18,10.59-4.24,24.93-4.25,39.48,0,15.02,1.15,30.27,2.38,41.72.07.68.69,1.18,1.37,1.11.69-.07,1.18-.69,1.11-1.38-1.23-11.38-2.37-26.55-2.37-41.45,0-14.42,1.09-28.6,4.14-38.76,5.82-19.24,12.98-26.46,30.44-39,.56-.4.69-1.18.29-1.74-.4-.56-1.18-.69-1.74-.29Z"/>
  <path class="cls-23" d="m807.4,382.98c-2.27.32-4.18,2.14-6.36,4.63-6.38,7.52-13.95,22.38-17.2,28.86-5.48,10.96-10.54,21.95-13.08,33.95-.95,4.49-1.4,8.62-1.4,12.45-.02,12.91,5.23,22.28,13.43,29.51,8.19,7.25,19.27,12.49,31.23,17.67.64.27,1.37-.02,1.64-.65.27-.63-.02-1.36-.65-1.64-11.91-5.15-22.78-10.34-30.57-17.25-7.79-6.92-12.56-15.41-12.58-27.64,0-3.63.43-7.59,1.34-11.93,2.46-11.64,7.41-22.44,12.87-33.35,2.15-4.29,6.23-12.3,10.52-19.29,2.15-3.49,4.35-6.73,6.35-9.08,1.97-2.38,3.89-3.75,4.72-3.76.68-.07,1.18-.69,1.11-1.37-.08-.68-.69-1.18-1.37-1.11Z"/>
  <path class="cls-23" d="m808.11,498.38s-5.32,3.31-6.13,12.94l18.96,11.89s13.75-2.66,9.55-18.4l-22.37-6.43Z"/>
  <path class="cls-23" d="m806.31,385.43c.25-.13.71-.23,1.33-.23,1.6-.01,4.18.67,7.12,1.83,8.88,3.46,21.23,10.93,26.8,14.38,10.39,6.41,20.26,12.99,28.48,21.61,9.43,9.91,13.02,19.11,13.03,28.16.03,13.71-8.45,27.44-18.72,42.15-.39.56-.26,1.34.31,1.74.57.39,1.34.25,1.73-.31,10.28-14.77,19.15-28.81,19.18-43.58,0-9.75-3.97-19.67-13.73-29.88-8.48-8.88-18.54-15.57-28.97-22.01-3.74-2.31-10.5-6.42-17.31-9.97-3.4-1.77-6.82-3.41-9.9-4.61-3.09-1.2-5.81-1.99-8.03-2-.87,0-1.67.12-2.41.47-.62.3-.88,1.04-.58,1.66.3.62,1.04.88,1.66.59Z"/>
  <path class="cls-23" d="m865.28,481.73s6.27.02,12.01,7.79l-9.87,20.08s-13.09,4.97-17.8-10.63l15.66-17.23Z"/>
  <path class="cls-4" d="m1010.67,404.62c1.24,11.64-7.2,22.09-18.84,23.33-11.65,1.24-22.09-7.2-23.33-18.84-1.23-11.64,7.2-22.09,18.85-23.32,11.65-1.24,22.09,7.2,23.32,18.84Z"/>
  <path class="cls-13" d="m1000.75,405.68c.65,6.16-3.81,11.7-9.98,12.35-6.17.65-11.7-3.81-12.35-9.98-.65-6.16,3.81-11.7,9.97-12.35,6.17-.66,11.7,3.81,12.35,9.97Z"/>
  <g class="cls-11">
    <g>
      <path class="cls-16" d="m1025.21,779.91l-68.35,1.14.27-29.33,68.35-1.14-.27,29.32m23.37-50.16c-27.37.62-63.87,1.54-91.25,1.82l.27-29.33c27.38-.47,63.88-1.01,91.25-1.82l-.27,29.32m30.01-50.58c-36.24,1.13-84.56,2.4-120.81,2.92l.27-29.32c36.25-.63,84.58-1.7,120.81-2.94l-.27,29.34m46.31-51.68c-87.04,3.86-98.22,4.35-166.67,5.12l.27-29.32c88.21-1.54,99.55-1.73,166.66-5.14l-.27,29.34m191.34,23.79c-2.24,28.48-21.7,78.94-80.46,87.43-78.65,2.71-114.12-86.17-59.29-148.6,19,18,44.36,41.98,63.34,60.01,16.1-19.83,37.56-46.28,53.65-66.11,6.37,7.17,25.76,29,22.75,67.28m-76.55-12.43c-19-18-44.32-42.02-63.34-60.01,42.89-40.58,89.67-32.31,117-6.11l-53.66,66.12m-160.19-58.67c-36.23,1.14-84.55,2.41-120.8,2.95l.27-29.32c36.24-.63,84.57-1.71,120.79-2.95l-.27,29.33m316.18,201.3c2.68-102.37,1.9-204.76,2.85-307.14q-1.22-18.29-80.46-8.08c-30.35,3.91-193.52,23.32-425.61,21.32l-1.2.06q-14.57,3.66-17.96,321.24,1.63,21.04,162.45,17.71c17.24-.36,173.41-4.18,345.81-28.23,12.91-4.85,14.12-16.76,14.13-16.88"/>
      <path class="cls-7" d="m1316.23,651.27c-6.36,80.86-96.55,118.15-146.22,60.46-17.18-19.96-37.94-71.06,6.48-121.63,19,18,44.36,41.98,63.34,60.01l53.65-66.11c6.37,7.17,25.76,29,22.75,67.28"/>
      <path class="cls-3" d="m1239.68,638.84c-19-18-44.32-42.02-63.34-60.01,18.34-17.35,32.66-24.33,56.75-27.64,24.56-1.51,43.14,5.14,60.25,21.53-16.1,19.84-37.56,46.28-53.66,66.12"/>
      <polyline class="cls-3" points="1025.21 779.91 956.86 781.05 957.13 751.72 1025.48 750.58 1025.21 779.91"/>
      <path class="cls-3" d="m1048.57,729.74c-27.37.62-63.87,1.54-91.25,1.82l.27-29.33c27.38-.47,63.88-1.01,91.25-1.82l-.27,29.32"/>
      <path class="cls-3" d="m1078.59,679.16c-36.24,1.13-84.56,2.4-120.81,2.92l.27-29.32c36.25-.63,84.58-1.7,120.81-2.94l-.27,29.34"/>
      <path class="cls-3" d="m1124.9,627.48c-87.04,3.86-98.22,4.35-166.67,5.12l.27-29.32c88.21-1.54,99.55-1.73,166.66-5.14l-.27,29.34"/>
      <path class="cls-3" d="m1079.49,580.17c-36.23,1.14-84.55,2.41-120.8,2.95l.27-29.32c36.24-.63,84.57-1.71,120.79-2.95l-.27,29.33"/>
      <path class="cls-16" d="m124.86,926.33c-.65,3.23-2.03,3.05-3.04,2.93-38.05-16.95-67.46-35.01-87.68-53.69-1.68-8.67-.53-11.35.3-12.17.16.05.37.12.53.17,20.47,18.67,50.11,36.7,88.4,53.62,1.01,2.7,2.16,5.76,1.48,9.14m183.26-10.89c-.97,3.29-3.2,3.24-4.67,3.2-131.99-30.3-223.8-69.09-269.22-111.07-1.67-8.67-.53-10.69.3-12.17.16.05.37.12.53.17,45.98,41.94,138.31,80.66,270.78,110.86,1.55,2.59,3.31,5.53,2.29,9m.08-67.99c-.97,3.29-3.2,3.24-4.67,3.2-131.99-30.3-223.8-69.09-269.22-111.07-1.68-8.66-.53-10.69.3-12.17.16.05.37.12.53.17,45.98,41.94,138.31,80.66,270.78,110.86,1.55,2.6,3.31,5.54,2.29,9.01m.08-67.99c-.97,3.29-3.2,3.23-4.67,3.2-131.99-30.3-223.8-69.09-269.22-111.07-1.68-8.66-.53-10.68.3-12.16.16.05.37.12.53.17,45.98,41.94,138.31,80.66,270.78,110.86,1.55,2.59,3.31,5.53,2.29,9m73.89,277.81l.37-325.59c-201.39-36.9-329.49-91.62-368.27-150.53l-.37,325.59c38.78,58.9,166.88,113.62,368.27,150.53"/>
      <path class="cls-3" d="m308.28,779.45c-.97,3.29-3.2,3.23-4.67,3.2-131.99-30.3-223.8-69.09-269.22-111.07-1.68-8.66-.53-10.68.3-12.16,46.51,42.11,138.84,80.83,271.31,111.03,1.55,2.59,3.31,5.53,2.29,9"/>
      <path class="cls-3" d="m308.2,847.45c-.97,3.29-3.2,3.24-4.67,3.2-131.99-30.3-223.8-69.09-269.22-111.07-1.68-8.66-.53-10.69.3-12.17,46.51,42.11,138.84,80.83,271.31,111.03,1.55,2.6,3.31,5.54,2.29,9.01"/>
      <path class="cls-3" d="m308.12,915.44c-.97,3.29-3.2,3.24-4.67,3.2-131.99-30.3-223.8-69.09-269.22-111.07-1.67-8.67-.53-10.69.3-12.17,46.51,42.11,138.84,80.83,271.31,111.03,1.55,2.59,3.31,5.53,2.29,9"/>
      <path class="cls-3" d="m124.86,926.33c-.65,3.23-2.03,3.05-3.04,2.93-38.05-16.95-67.46-35.01-87.68-53.69-1.68-8.67-.53-11.35.3-12.17.16.05.37.12.53.17,20.47,18.67,50.11,36.7,88.4,53.62,1.01,2.7,2.16,5.76,1.48,9.14"/>
      <path class="cls-16" d="m1.96,872.31c-.43-3.19-.61-6.39-.51-9.6l.65-569.89c-.09,3.2.08,6.4.51,9.6l-.65,569.89"/>
      <path class="cls-16" d="m1097.28,1031.23c-.88,2.08-3.87,3.76-5.98,4.54-169.74,7.79-349.25,3.64-517.56-13.97-5.03-6.24-3.61-12.05,3.04-12.44,168.44,17.45,347.96,21.44,517.58,13.52,4.09,4.42,3.06,7.96,2.92,8.35m.08-67.99c-.88,2.08-3.87,3.76-5.98,4.54-169.74,7.79-349.25,3.64-517.56-13.97-5.03-6.24-3.61-12.05,3.04-12.43,168.44,17.45,347.96,21.44,517.58,13.52,4.1,4.42,3.06,7.95,2.92,8.34m88.65,125.14l.23-197.26c-226.42,16.75-478.59,11.66-702.62-19.22-.2-.03-.4-.05-.6-.08l-.23,197.26c.2.03.4.05.6.08,224.03,30.89,476.2,35.97,702.62,19.22"/>
      <path class="cls-3" d="m1097.36,963.24c-.88,2.08-3.87,3.76-5.98,4.54-169.74,7.79-349.25,3.64-517.56-13.97-6.25-7.75-2.02-10.39,1.07-12.31,170.41,17.34,349.92,21.33,519.54,13.4,4.1,4.42,3.06,7.95,2.92,8.34"/>
      <path class="cls-3" d="m1097.28,1031.23c-.88,2.08-3.87,3.76-5.98,4.54-169.74,7.79-349.25,3.64-517.56-13.97-6.25-7.75-2.02-10.39,1.07-12.32,170.41,17.34,349.92,21.33,519.54,13.4,4.09,4.42,3.06,7.96,2.92,8.35"/>
      <path class="cls-9" d="m628.83,475.79c-.15.47-.53,1.03-.86,1.4-1.12,1.24-3.18,2.27-4.58,3.19-9.17,6.01-34.87,24.88-75.38,70.16-35.31,39.46-66.65,82.26-85.98,117.43-4.52,8.21-6.31,17.9-13.4,24.72-10.85,10.44-25.5,14.97-37.25,24.01-28.56-97.93-43.56-109.29-55.62-118.42-.01-5.31,26.71-28.44,42.57-13.44,10.15,9.6,17.46,28.49,29.56,59.77,1.28-1.28,2.76-3.21,3.72-4.75,10.72-17.21,33.03-53.03,85.27-101.3,54.27-50.15,103.25-73.16,105.11-73.32,2.66,1.66,6.86,10.51,6.85,10.57"/>
      <path class="cls-16" d="m39.69,564.71c-.21,6.93-1.28,9.8-3.26,8.77-6.82-6.12-12.66-12.31-17.49-18.55q-2.17-3.98-2.08-89.36c.11-5.41.42-7.5,1.33-8.91.26.06.6.15.86.21,4.83,6.24,10.67,12.43,17.49,18.55q3.24,4.1,3.15,89.29"/>
      <path class="cls-16" d="m164.29,618.82c-.47,7.61-2.72,8.44-5.33,9.39-40.45-15.06-72.57-30.87-97.26-47.36q-4.07-5.08-3.83-221.7c.23-6.19.85-6.95,2.49-8.99.48.05,1.12.11,1.6.16,24.69,16.48,56.81,32.3,95.94,47.09q6.64,3.69,6.39,221.4"/>
      <path class="cls-16" d="m93.7,322.91c-.32,6.94-1.97,9.87-5.04,8.93-9.67-5.25-18.57-10.58-26.66-15.98q-4.08-3.9-3.99-82.35c.26-7.01,1.56-9.82,4.09-8.84,8.09,5.4,16.99,10.73,26.66,15.98q5.03,3.91,4.94,82.25"/>
      <path class="cls-16" d="m282.08,654.06c-.55,6.97-3.37,10.07-8.62,9.47-26.92-6.77-51.98-13.91-75.11-21.37q-7.28-3.52-7.14-123.76c.46-6.94,2.84-9.96,7.29-9.24,23.13,7.46,48.19,14.6,75.11,21.37,5.29,2.06,8.1,6.56,8.59,13.75,2.25,32.86-.09,76.84-.13,109.78"/>
    </g>
  </g>
  <rect class="cls-17" width="1830.85" height="1722.21"/>
</svg>