<?xml version="1.0" encoding="UTF-8"?>
<svg id="Layer_1" data-name="Layer 1" xmlns="http://www.w3.org/2000/svg" xmlns:xlink="http://www.w3.org/1999/xlink" viewBox="0 0 402.01 449.99">
  <defs>
    <style>
      .cls-1 {
        fill: url(#linear-gradient-2);
      }

      .cls-2 {
        fill: url(#linear-gradient);
      }
    </style>
    <linearGradient id="linear-gradient" x1="201" y1="2.65" x2="201" y2="456.88" gradientUnits="userSpaceOnUse">
      <stop offset="0" stop-color="#00a3b2"/>
      <stop offset="1" stop-color="#d9eac7"/>
    </linearGradient>
    <linearGradient id="linear-gradient-2" x1="200.88" x2="200.88" y2="456.88" xlink:href="#linear-gradient"/>
  </defs>
  <path class="cls-2" d="m402.01,138.67c-.7,4.43-1.14,8.93-2.14,13.29-3.51,15.19-10.8,28.67-19.38,41.52-6.94,10.39-14.85,20.03-23.34,29.18-.67.72-1.33,1.46-2.16,2.38,1.05,1.17,2.06,2.28,3.06,3.4,12.82,14.28,24.39,29.44,33.02,46.68,4.95,9.9,8.74,20.17,10.11,31.24,2.95,23.77-7.93,42.57-30.05,51.85-10.36,4.34-21.24,6.21-32.37,6.8-17.54.94-34.8-1.21-51.94-4.76-2.9-.6-5.81-1.21-8.86-1.85-1.39,4.12-2.67,8.1-4.08,12.04-6.45,18.07-14.36,35.41-25.94,50.87-5.58,7.45-11.91,14.17-19.62,19.48-18.36,12.65-38.62,12.22-56.47-1.13-11.56-8.64-20.01-19.91-27.2-32.21-8.57-14.65-14.81-30.31-19.95-46.45-.25-.79-.51-1.58-.84-2.58-3.76.77-7.4,1.53-11.06,2.26-16.26,3.22-32.63,5.18-49.24,4.32-13.47-.7-26.57-3.05-38.62-9.56-18.24-9.85-27.29-28.2-24.43-48.77,2.4-17.22,9.75-32.36,18.92-46.79,7.53-11.85,16.35-22.71,25.81-33.06.46-.51.92-1.02,1.56-1.73-.54-.62-1.05-1.25-1.6-1.84-13.04-14.08-24.79-29.11-33.7-46.2-5.25-10.09-9.31-20.59-10.89-31.95-3.51-25.16,8.27-45.11,32.05-54.14,13-4.94,26.55-6.31,40.33-6.18,16.37.15,32.42,2.8,48.35,6.3.8.18,1.61.3,2.31.43,2.71-7.47,5.16-14.78,8.01-21.94,6.77-16.98,15.08-33.12,27.16-47.04,7.41-8.54,15.91-15.71,26.68-19.64,3.63-1.32,7.5-1.95,11.26-2.9,2.75,0,5.51,0,8.26,0,4.75,1.35,9.7,2.24,14.21,4.15,11.13,4.72,19.57,12.93,26.96,22.27,11.16,14.12,18.96,30.09,25.34,46.8,2.28,5.98,4.28,12.07,6.48,18.29.73-.13,1.47-.23,2.19-.39,16.01-3.55,32.13-6.21,48.58-6.35,14.56-.12,28.89,1.3,42.45,7.08,14.65,6.26,25.09,16.45,29.09,32.31.82,3.24,1.13,6.6,1.67,9.91v4.59Zm-59.09,73.88c.25-.21.49-.39.69-.6,9.55-10.17,18.32-20.98,25.71-32.84,6.67-10.69,12.2-21.87,14.57-34.42,3.29-17.44-3.64-30.45-20.01-37.17-7.87-3.23-16.16-4.55-24.58-5.12-13.98-.93-27.81.48-41.56,2.88-5.02.88-10,1.98-15.15,3.01,3.98,16.48,6.83,32.85,8.81,48.88-5.39-.48-10.61-.9-15.82-1.48-.6-.07-1.47-.97-1.58-1.59-1.33-7.45-2.41-14.94-3.8-22.38-1.19-6.36-2.7-12.66-4.12-19.23-2.95.97-5.53,1.93-8.18,2.61-.84.21-2.12-.05-2.77-.6-4.33-3.64-9.1-6.44-14.44-8.29-1.71-.59-3.47-1.03-5.21-1.53-.02-.16-.03-.31-.05-.47,8.59-2.81,17.18-5.62,25.77-8.43-.05-.34-.05-.57-.12-.78-5.31-16.98-11.86-33.41-21.43-48.5-5.44-8.58-11.68-16.5-20.03-22.48-9.56-6.85-19.78-9.04-30.86-3.85-8.03,3.76-14.19,9.78-19.63,16.59-10.14,12.68-17.06,27.13-22.8,42.19-2.09,5.48-3.9,11.06-5.85,16.64,8.92,2.91,17.53,5.73,26.73,8.73-.92.3-1.18.41-1.44.47-7.2,1.7-13.61,4.93-19.21,9.8-.53.46-1.69.55-2.44.36-2.71-.72-5.38-1.63-8.6-2.65-2.75,14.56-5.45,28.86-8.09,42.88-5.6.67-11.23,1.33-17.43,2.07,2.92-16.33,5.85-32.68,8.79-49.09.05.03-.07-.08-.21-.11-2.76-.59-5.52-1.21-8.3-1.75-17.79-3.46-35.66-5.67-53.8-3.45-9.1,1.12-17.92,3.22-25.74,8.3-7.54,4.91-12.03,11.77-13.13,20.8-1.08,8.84.94,17.19,4.01,25.34,5.48,14.55,14.01,27.31,23.62,39.37,4.32,5.43,8.98,10.58,13.52,15.89,7.18-6.44,14.1-12.63,21.02-18.83,0,7.56.03,14.81-.05,22.05,0,.69-.63,1.51-1.18,2.03-2.47,2.34-5.01,4.59-7.65,6.99,2.73,2.48,5.24,4.72,7.68,7.02.51.48,1.14,1.2,1.15,1.82.08,7.38.05,14.76.05,22.47-7.02-6.26-13.99-12.48-21.04-18.77-10.76,11.61-20.56,23.82-28.48,37.44-6.34,10.91-11.43,22.28-12.76,35.05-1.38,13.28,4.19,24.11,15.96,30.48,8.94,4.84,18.7,6.52,28.67,7.26,14.21,1.06,28.27-.45,42.24-2.88,4.94-.86,9.85-1.95,14.93-2.97-4.03-16.46-6.88-32.82-8.87-49.05,5.85.71,11.49,1.39,16.9,2.04,2.69,14.18,5.39,28.42,8.13,42.89,3.22-1.04,5.8-1.98,8.45-2.68.8-.21,2.04-.1,2.63.4,5.58,4.75,11.86,8.06,19.03,9.64.28.06.52.28,1.19.65-8.97,2.93-17.58,5.75-26.31,8.61,6.36,19.91,14,39.09,26.41,56.02,4.69,6.39,10.04,12.14,16.67,16.6,11.31,7.61,22.88,7.72,34.34.28,5.78-3.75,10.57-8.57,14.82-13.93,10.15-12.77,17.14-27.26,22.89-42.4,2.08-5.47,3.91-11.04,5.88-16.65-8.87-2.89-17.39-5.67-26.37-8.59.76-.4.99-.6,1.26-.66,7.17-1.58,13.45-4.9,19.02-9.67.54-.46,1.68-.61,2.41-.41,2.71.72,5.36,1.65,8.15,2.54.26-.97.51-1.69.65-2.43,2.46-12.98,4.94-25.97,7.33-38.96.24-1.32.65-1.81,2.01-1.8,2.29.02,4.6-.02,6.87-.31,2.84-.35,5.65-.97,9.19-1.6-2.99,16.66-5.93,33-8.88,49.42-.02-.01.17.12.39.17,18.73,4.15,37.58,7.1,56.85,5.68,9.51-.7,18.82-2.38,27.4-6.83,9.53-4.94,15.49-12.47,16.58-23.43.77-7.71-.78-15.07-3.27-22.28-5.22-15.17-13.85-28.4-23.65-40.9-4.52-5.76-9.37-11.26-14.04-16.84-7.29,6.51-14.28,12.74-21.24,18.96,0-7.33-.06-14.35.06-21.36.02-1.05.62-2.32,1.37-3.08,2.34-2.38,4.87-4.56,7.41-6.89-2.7-2.46-5.21-4.7-7.66-7.01-.51-.48-1.12-1.21-1.13-1.82-.08-7.3-.05-14.6-.05-22.17,6.94,6.22,13.85,12.43,20.82,18.67Z"/>
  <path class="cls-1" d="m200.79,311.67c-8.64,0-17.29,0-25.93,0-6.45,0-8.62-2.19-8.62-8.72,0-11.63,0-23.26,0-34.89,0-6.22-2.17-8.36-8.46-8.36-11.7,0-23.41,0-35.11,0-6.13,0-8.43-2.33-8.43-8.48,0-17.52,0-35.04,0-52.56,0-5.91,2.3-8.23,8.16-8.23,11.78,0,23.56,0,35.34,0,6.3,0,8.5-2.23,8.51-8.6,0-11.71,0-23.41,0-35.12,0-6.05,2.27-8.31,8.33-8.32,17.52,0,35.04,0,52.56,0,6.06,0,8.31,2.25,8.31,8.3,0,11.78,0,23.56,0,35.35,0,6.03,2.33,8.39,8.29,8.39,11.86,0,23.71,0,35.57,0,5.86,0,8.22,2.35,8.22,8.2,0,17.6,0,35.19,0,52.79,0,5.98-2.33,8.29-8.38,8.29-11.86.01-23.71,0-35.57,0-5.74,0-8.07,2.33-8.07,8.08-.01,11.94,0,23.87,0,35.81,0,5.74-2.35,8.07-8.07,8.08-8.87,0-17.75,0-26.62,0Z"/>
</svg>