<?xml version="1.0" encoding="UTF-8"?>
<svg id="Layer_1" data-name="Layer 1" xmlns="http://www.w3.org/2000/svg" xmlns:xlink="http://www.w3.org/1999/xlink" viewBox="0 0 587.19 614">
  <defs>
    <style>
      .cls-1 {
        fill: url(#linear-gradient-2);
      }

      .cls-2 {
        fill: url(#linear-gradient-17);
      }

      .cls-3 {
        fill: url(#linear-gradient-15);
      }

      .cls-4 {
        fill: url(#linear-gradient-18);
      }

      .cls-5 {
        fill: none;
        stroke: #67c5ca;
        stroke-miterlimit: 10;
        stroke-width: 2px;
      }

      .cls-6 {
        fill: url(#linear-gradient-14);
      }

      .cls-7 {
        fill: url(#linear-gradient-20);
      }

      .cls-8 {
        fill: url(#linear-gradient-6);
      }

      .cls-9 {
        fill: url(#linear-gradient-11);
      }

      .cls-10 {
        filter: url(#drop-shadow-3);
      }

      .cls-11 {
        fill: url(#linear-gradient-10);
      }

      .cls-12 {
        fill: #67c5ca;
      }

      .cls-13 {
        opacity: .4;
      }

      .cls-14 {
        fill: url(#linear-gradient-16);
      }

      .cls-15 {
        fill: url(#linear-gradient-21);
      }

      .cls-16 {
        fill: url(#linear-gradient-25);
      }

      .cls-17 {
        fill: url(#linear-gradient-5);
      }

      .cls-18 {
        fill: url(#linear-gradient-7);
      }

      .cls-19 {
        fill: #045e66;
      }

      .cls-20 {
        fill: url(#linear-gradient-24);
      }

      .cls-21 {
        fill: url(#linear-gradient-9);
      }

      .cls-22 {
        fill: url(#linear-gradient-22);
      }

      .cls-23 {
        fill: url(#linear-gradient-3);
      }

      .cls-24 {
        fill: url(#linear-gradient);
      }

      .cls-25 {
        fill: url(#linear-gradient-27);
      }

      .cls-26 {
        fill: url(#linear-gradient-23);
      }

      .cls-27 {
        fill: url(#linear-gradient-19);
      }

      .cls-28 {
        fill: url(#linear-gradient-4);
      }

      .cls-29 {
        fill: url(#linear-gradient-8);
      }

      .cls-30 {
        fill: url(#linear-gradient-12);
      }

      .cls-31 {
        fill: url(#linear-gradient-13);
      }

      .cls-32 {
        fill: url(#linear-gradient-26);
      }
    </style>
    <linearGradient id="linear-gradient" x1="386.86" y1="661.78" x2="386.86" y2="222.31" gradientUnits="userSpaceOnUse">
      <stop offset="0" stop-color="#00a3b2"/>
      <stop offset="1" stop-color="#d9eac7" stop-opacity="0"/>
    </linearGradient>
    <linearGradient id="linear-gradient-2" x1="400.43" y1="661.78" x2="400.43" y2="222.31" xlink:href="#linear-gradient"/>
    <linearGradient id="linear-gradient-3" x1="470.32" y1="661.78" x2="470.32" y2="222.31" xlink:href="#linear-gradient"/>
    <linearGradient id="linear-gradient-4" x1="522.77" y1="661.78" x2="522.77" y2="222.31" xlink:href="#linear-gradient"/>
    <linearGradient id="linear-gradient-5" x1="416.19" y1="661.78" x2="416.19" y2="222.31" xlink:href="#linear-gradient"/>
    <linearGradient id="linear-gradient-6" x1="511.15" y1="661.78" x2="511.15" y2="222.31" xlink:href="#linear-gradient"/>
    <linearGradient id="linear-gradient-7" x1="377.74" y1="661.78" x2="377.74" y2="222.31" xlink:href="#linear-gradient"/>
    <linearGradient id="linear-gradient-8" x1="271.47" y1="661.78" x2="271.47" y2="222.31" xlink:href="#linear-gradient"/>
    <linearGradient id="linear-gradient-9" x1="147.1" y1="661.78" x2="147.1" y2="222.31" xlink:href="#linear-gradient"/>
    <linearGradient id="linear-gradient-10" x1="73.44" y1="661.78" x2="73.44" y2="222.31" xlink:href="#linear-gradient"/>
    <linearGradient id="linear-gradient-11" x1="49.49" y1="661.78" x2="49.49" y2="222.31" xlink:href="#linear-gradient"/>
    <linearGradient id="linear-gradient-12" x1="30.85" y1="661.78" x2="30.85" y2="222.31" xlink:href="#linear-gradient"/>
    <linearGradient id="linear-gradient-13" x1="56.94" y1="661.78" x2="56.94" y2="222.31" xlink:href="#linear-gradient"/>
    <linearGradient id="linear-gradient-14" x1="102.68" y1="661.78" x2="102.68" y2="222.31" xlink:href="#linear-gradient"/>
    <linearGradient id="linear-gradient-15" x1="139.04" y1="661.78" x2="139.04" y2="222.31" xlink:href="#linear-gradient"/>
    <filter id="drop-shadow-3" filterUnits="userSpaceOnUse">
      <feOffset dx="7" dy="7"/>
      <feGaussianBlur result="blur" stdDeviation="7"/>
      <feFlood flood-color="#000" flood-opacity=".2"/>
      <feComposite in2="blur" operator="in"/>
      <feComposite in="SourceGraphic"/>
    </filter>
    <linearGradient id="linear-gradient-16" x1="281.59" y1="57.83" x2="281.59" y2="422.06" gradientUnits="userSpaceOnUse">
      <stop offset="0" stop-color="#00a3b2"/>
      <stop offset="1" stop-color="#d9eac7"/>
    </linearGradient>
    <linearGradient id="linear-gradient-17" x1="282.02" x2="282.02" y2="422.06" xlink:href="#linear-gradient-16"/>
    <linearGradient id="linear-gradient-18" x1="282.02" y1="57.83" x2="282.02" y2="422.06" xlink:href="#linear-gradient-16"/>
    <linearGradient id="linear-gradient-19" x1="257.87" y1="57.83" x2="257.87" y2="422.06" xlink:href="#linear-gradient-16"/>
    <linearGradient id="linear-gradient-20" x1="306.16" y1="57.83" x2="306.16" y2="422.06" xlink:href="#linear-gradient-16"/>
    <linearGradient id="linear-gradient-21" x1="282.02" y1="57.83" x2="282.02" y2="422.06" xlink:href="#linear-gradient-16"/>
    <linearGradient id="linear-gradient-22" x1="185.58" y1="57.83" x2="185.58" y2="422.06" xlink:href="#linear-gradient-16"/>
    <linearGradient id="linear-gradient-23" x1="378.46" y1="57.83" x2="378.46" y2="422.06" xlink:href="#linear-gradient-16"/>
    <linearGradient id="linear-gradient-24" x1="457.83" y1="-43.95" x2="457.83" y2="692.86" xlink:href="#linear-gradient-16"/>
    <linearGradient id="linear-gradient-25" x1="105.35" y1="-43.95" x2="105.35" y2="692.86" xlink:href="#linear-gradient-16"/>
    <linearGradient id="linear-gradient-26" x1="457.83" y1="-43.95" x2="457.83" y2="692.86" xlink:href="#linear-gradient-16"/>
    <linearGradient id="linear-gradient-27" x1="105.35" y1="-43.95" x2="105.35" y2="692.86" xlink:href="#linear-gradient-16"/>
  </defs>
  <g class="cls-13">
    <rect class="cls-24" x="354.71" y="457.73" width="64.31" height="64.31" rx="12" ry="12"/>
    <rect class="cls-1" x="349.71" y="351.22" width="101.44" height="101.44" rx="12" ry="12"/>
    <rect class="cls-23" x="425.26" y="456.73" width="90.12" height="90.12" rx="12" ry="12"/>
    <rect class="cls-28" x="458.34" y="327.31" width="128.85" height="128.85" rx="12" ry="12"/>
    <rect class="cls-17" x="379.74" y="274.09" width="72.91" height="72.91" rx="12" ry="12"/>
    <rect class="cls-8" x="457.94" y="215.08" width="106.42" height="106.42" rx="12" ry="12"/>
    <rect class="cls-18" x="356.25" y="527.91" width="42.97" height="42.97" rx="12" ry="12"/>
    <rect class="cls-29" x="194.84" y="460.73" width="153.27" height="153.27" rx="12" ry="12"/>
    <rect class="cls-21" x="106.43" y="463.73" width="81.34" height="81.34" rx="12" ry="12"/>
    <rect class="cls-11" x="47.35" y="492.89" width="52.18" height="52.18" rx="12" ry="12"/>
    <rect class="cls-9" y="389.8" width="98.99" height="98.99" rx="12" ry="12"/>
    <rect class="cls-30" x=".54" y="324.15" width="60.62" height="60.62" rx="12" ry="12"/>
    <rect class="cls-31" x=".54" y="194" width="112.8" height="112.8" rx="12" ry="12"/>
    <rect class="cls-6" x="66.23" y="311.87" width="72.9" height="72.9" rx="12" ry="12"/>
    <rect class="cls-3" x="106.43" y="391.67" width="65.22" height="65.22" rx="12" ry="12"/>
  </g>
  <path class="cls-19" d="m544.53,358.56c0-75.05-525.87-75.05-525.87-150.09v-56.29c0,75.05,525.87,75.05,525.87,150.09v56.29Z"/>
  <g class="cls-10">
    <g>
      <path class="cls-14" d="m297.3,141.12v-.02c.09-8.31-6.35-15.23-14.66-15.76-.35-.02-.7-.03-1.04-.03-3.92,0-7.62,1.42-10.53,4.06-3.2,2.9-5.04,6.89-5.19,11.21-.29,8.59,6.51,15.85,15.16,16.17,4.24.15,8.4-1.46,11.48-4.44,3.09-2.98,4.79-6.95,4.79-11.18Z"/>
      <path class="cls-2" d="m121.78,153.25c.32,1.31.75,2.61,1.32,3.88,3.07,6.87,9.19,11.5,16.45,12.71.48,1.82,1.18,3.59,2.14,5.27,2.58,4.55,6.55,7.88,11.25,9.65.68,3.35,2.14,6.52,4.32,9.24,4.16,5.18,10.47,8.15,17.3,8.16,7.68,0,15.36,0,23.05,0-5.84,7.67-8.65,16.79-8.14,26.64.55,10.62,4.95,20.11,12.74,27.46.09.09.19.16.28.25h122.53c-2.25-1.82-4.99-3.1-8.07-3.64-1.28-.23-2.62-.25-4.11-.25-24.67-.02-49.34,0-74-.02h-1.97c-3.2.01-6.51.02-9.78-.21-5.26-.37-10.04-2.55-14.21-6.49-4.76-4.49-7.34-10.04-7.67-16.49-.36-7.07,1.96-13.26,6.91-18.41,3.57-3.71,7.96-6.07,13.05-7.01,1.33-.25,2.63-.37,3.84-.38,8-.03,16-.02,24-.01,5.71,0,10.89,3.96,12.32,9.4,1.54,5.86-.74,11.63-5.81,14.7-2.08,1.26-4.44,1.85-7.43,1.87-7.01.04-14.13.03-21.01,0h-1.07c-3.41-.01-5.93-2.36-5.98-5.59-.03-1.6.53-3.07,1.57-4.12,1.1-1.12,2.7-1.74,4.51-1.74h17.49s.01.01.02.01c.55,0,1.09,0,1.64-.01,1.15-.01,2.34-.03,3.54.02.99.03,1.6-.9,1.63-1.43.09-1.21-.79-1.61-1.54-1.72-.21-.03-.43-.05-.65-.05h-7.53c-4.78,0-9.55,0-14.33,0h-.07c-4.34,0-7.75,1.46-10.4,4.45-2.66,3-3.81,6.97-3.14,10.88.67,3.95,3.08,7.33,6.61,9.3,2.03,1.13,4.35,1.64,7.34,1.65,11.25-.02,22.5-.03,33.75-.03h11.41v-73.64c-.12-.04-.25-.07-.37-.11-1.31-.38-2.66-.77-3.98-1.31-8.1-3.31-13.44-9.17-15.88-17.43-3.31-11.23.63-22.83,10.05-29.55,8.66-6.18,18.29-7,27.87-2.39,10.62,5.12,16.61,16.44,14.91,28.17-1.57,10.82-9.44,19.58-20.05,22.32l-1.03.27s-.05.01-.08.02v73.65c1.41-.01,2.8,0,4.18,0,.88,0,1.76,0,2.65,0,2.29,0,4.57,0,6.85-.01,4.33-.01,8.66-.02,12.99,0,11.11.05,20.68,6,25.5,15.32h22.11c.61-.53,1.21-1.08,1.77-1.68,10.26-10.95,13.74-24.91,9.79-39.3-1.35-4.93-3.61-9.44-6.56-13.37h21.78s.22,0,.22,0c.22,0,.5,0,.82,0,.55,0,1.23-.01,1.99-.07,9.82-.71,17.94-7.93,19.81-17.39.86-.32,1.69-.7,2.49-1.13,5.62-2.99,9.45-7.99,10.94-13.75,5.57-.94,10.65-4,14.03-8.6,1.77-2.41,3-5.14,3.66-8,11.61-.86,20.47-10.1,20.49-21.75,0-5.96-2.25-11.5-6.35-15.62-4.15-4.16-9.78-6.45-15.85-6.45-5.87,0-11.73,0-17.6,0h-30.11s-8.7,0-8.7,0l-16.88.04c-2.13,0-4.25,0-6.38,0-10.81.01-21.62.04-32.44.07-4.46.01-8.71,1.08-12.48,3.08-3.94-4.93-9-9.04-14.98-11.92-15.02-7.24-30.76-5.89-44.33,3.79-3.3,2.35-6.17,5.07-8.61,8.08-3.63-1.91-7.7-2.96-11.97-3.01-5.17-.06-10.17-.07-14.39-.08-7.84,0-15.68,0-23.51,0h0s-24.86-.01-24.86-.01h-22.74c-9.02-.01-18.04-.02-27.05,0-4.17.01-8.43,1.21-11.99,3.37-8.62,5.24-12.5,15.99-9.22,25.56,2.92,8.52,10.43,14.21,19.41,14.87Zm229.27,91.93c-1.35,1.44-3.07,2.18-4.74,2.18-1.27,0-2.5-.43-3.5-1.31-1.26-1.1-1.98-2.56-2.04-4.1-.06-1.62.63-3.25,1.93-4.56,1.58-1.6,2.68-3.4,3.37-5.52,2.07-6.35-1.69-13.88-8.05-16.12-2.24-.79-4.62-.8-7.13-.81-4.35-.02-8.7-.02-13.04-.01-2.23,0-4.45,0-6.69,0h0c-1.42,0-1.84.27-2.17.81-.29.48-.31,1.07-.04,1.57.12.23.48.75,1.23.79,1.08.05,2.16.04,3.3.03.46,0,.92,0,1.39,0h5.89c4.19,0,8.37,0,12.56,0,2.09,0,3.96,1,5,2.65,1.03,1.63,1.13,3.7.27,5.55-.94,2.01-2.76,3.17-5,3.2-3.19.04-6.37.03-9.56.02-1.38,0-2.76,0-4.14,0h-2.18c-1.89,0-3.84-.01-5.75.02-5.23.1-9.06-1.49-11.73-4.87-3.28-4.16-3.86-8.84-1.69-13.55,2.19-4.77,6.28-7.45,11.51-7.54,2.82-.05,5.67-.04,8.43-.03,1.25,0,2.48.01,3.76.01h3.56s7.85,0,7.85,0c10.89,0,20.49,7.27,23.35,17.67,2.47,9,.46,17.04-5.98,23.91Zm38.7-57.81c-.27.02-.54.03-.82.03-.18,0-.36,0-.55,0h-.49s-32.51,0-32.51,0h-8.39c-8.39,0-16.79,0-25.18,0-2.54,0-4.51-1.24-5.39-3.41-.99-2.43-.41-4.97,1.48-6.47,1.08-.85,2.44-1.38,3.65-1.41,3.96-.1,7.96-.1,11.86-.1h1.62c17.59,0,35.18,0,52.77.01,1.04,0,2.25.05,3.42.42,2.63.83,4.08,3.3,3.68,6.29-.32,2.42-2.58,4.47-5.14,4.66Zm15.86-16.66c-.82.43-1.83.67-2.84.68-5.07.01-10.13,0-15.2,0h-5.91c-2.92-.01-5.85-.01-8.77-.01l-3.9.04h-9.03c-8.05-.01-16.36-.02-24.54.03h-.04c-2.1,0-4.04-1.15-5.07-3.01-1.01-1.81-.93-3.96.19-5.75,1.08-1.71,2.77-2.61,4.88-2.61h.02c3.17,0,6.34,0,9.51,0,2.48,0,4.96,0,7.44,0l12.18.02c5.78.01,11.57.02,17.35.02,3.8,0,7.62,0,11.44-.02,3.19,0,6.38-.02,9.56-.02h0c2.7,0,4.99,1.72,5.58,4.19.65,2.7-.44,5.17-2.84,6.44Zm19.52-17.63c-1.07,1.45-2.73,2.29-4.56,2.29-5.64.01-11.28,0-16.92,0h-19.51s-1.97,0-1.97,0h-37.96c-2.25,0-4.17-.96-5.27-2.63-1.03-1.56-1.17-3.52-.38-5.37.77-1.82,2.28-2.99,4.24-3.29.51-.08,1.06-.12,1.68-.12,11.01,0,22.01,0,33.02,0h42.25c3.28,0,5.37,1.37,6.21,4.05.54,1.75.24,3.59-.83,5.04Zm-107.47-6.6c.29-2.63.39-5.53.29-8.84-.09-2.84.9-5.47,2.78-7.41,1.88-1.94,4.49-3.02,7.36-3.02,10.8-.03,21.61-.05,32.41-.07,5.37,0,10.73,0,16.09,0h5.2s1.95-.04,1.95-.04h8.7s29.78,0,29.78,0c5.97,0,11.95,0,17.92,0,1.72,0,3.2.56,4.3,1.6,1.1,1.05,1.7,2.55,1.7,4.22,0,3.31-2.49,5.62-6.03,5.62l-110.14.02c-.15-.02-.35,0-.51,0,0,.19.02.39.03.61.22,5.86-.64,11.73-2.55,17.45-2.16,6.47-5.64,12.33-10.34,17.41-5.49,5.95-12.26,10.32-20.1,12.99-.73.25-1.47.37-2.17.37-2.02,0-3.83-.98-4.84-2.75-1.38-2.41-.94-5.34,1.08-7.12.85-.74,1.89-1.16,2.6-1.41,7.89-2.77,14.27-7.75,18.95-14.81,3.11-4.69,4.98-9.68,5.55-14.82Zm-174.75,8.91h0c-2.53,0-4.46-1.22-5.45-3.43-.87-1.94-.59-4.06.78-5.82,1.13-1.46,2.75-2.16,4.95-2.16h.02c4.45,0,8.91,0,13.37,0h6.35s41.79,0,41.79,0h4.04c3.49,0,6.98,0,10.46.01,3.37.02,5.86,2.35,5.91,5.53.02,1.6-.55,3.08-1.61,4.16-1.06,1.08-2.54,1.68-4.15,1.68-5.32,0-10.64,0-15.96,0h-6.23s-16.21,0-16.21,0h-9.1c-9.65,0-19.31,0-28.96,0Zm17.48,16.03c-2.21,0-4-1.02-5.05-2.86-1.1-1.94-1.03-4.06.21-5.97,1.08-1.67,2.77-2.52,5.01-2.52h.03c4.81.02,9.62.01,14.42.01h16.6c12.05,0,24.09,0,36.13,0,1.97,0,3.73.85,4.81,2.33,1.06,1.44,1.34,3.31.76,5.11-.77,2.44-2.88,3.89-5.65,3.89-10.11,0-20.22,0-30.32,0h-11.52c-8.47,0-16.95,0-25.42,0h-.01Zm85.09,14.4c-1.06,1.05-2.43,1.57-4.21,1.57h0c-8.66,0-17.33,0-25.99,0h-16.47c-8.23,0-16.46,0-24.69,0-1.92,0-3.58-.74-4.66-2.09-1.08-1.34-1.44-3.1-1.04-4.96.55-2.51,2.96-4.33,5.73-4.33h67.03c3.35.01,4.87,1.87,5.56,3.43.99,2.23.52,4.62-1.26,6.39Zm-125.93-57.68c1.05-.64,2.37-1.01,3.62-1.01,9.07-.03,18.14-.02,27.21-.01h22.54s8.63,0,8.63,0v.02h9.82c9.97,0,19.94,0,29.91,0,4.19,0,9.16.01,14.2.08,2.75.03,5.26,1.1,7.07,3,1.8,1.89,2.73,4.42,2.63,7.12-.15,4.14-.13,8.54,1,12.74,1.9,7.03,5.14,12.71,9.9,17.34,4.06,3.95,8.86,6.89,14.67,8.99,3.01,1.08,4.45,4.12,3.42,7.21-.76,2.31-2.91,3.76-5.29,3.76-.57,0-1.16-.08-1.74-.26-4.96-1.51-9.69-3.95-14.07-7.27-4.92-3.73-9.05-8.29-12.28-13.56-4.87-7.95-7.26-16.87-7.11-26.51,0-.42.03-.83.05-1.23l-81.89-.02c-5.93,0-11.85,0-17.78,0h-11.01s0,0,0,0c-2.82,0-4.94-1.45-5.81-3.97-.83-2.41.13-5.12,2.29-6.43Z"/>
      <rect class="cls-4" x="269.95" y="426.84" width="24.14" height="10.72"/>
      <polygon class="cls-27" points="269.95 394.69 269.95 383.97 245.8 383.97 245.8 394.69 245.8 405.41 269.95 405.41 269.95 394.69"/>
      <polygon class="cls-7" points="294.09 394.69 294.09 405.41 318.23 405.41 318.23 394.69 318.23 383.97 294.09 383.97 294.09 394.69"/>
      <polygon class="cls-15" points="294.09 308.96 269.95 308.96 245.8 308.96 221.66 308.96 221.66 319.67 221.66 330.39 221.66 341.11 221.66 351.82 221.66 362.54 221.66 373.26 245.8 373.26 245.8 362.54 269.95 362.54 269.95 351.82 294.09 351.82 294.09 341.11 269.95 341.11 245.8 341.11 245.8 330.39 269.95 330.39 269.95 319.67 294.09 319.67 294.09 330.39 294.09 341.11 318.23 341.11 318.23 351.82 294.09 351.82 294.09 362.54 318.23 362.54 318.23 373.26 342.38 373.26 342.38 362.54 342.38 351.82 342.38 341.11 342.38 330.39 342.38 319.67 342.38 308.96 318.23 308.96 294.09 308.96"/>
      <path class="cls-22" d="m245.8,298.24h24.14v-21.43h-67.83v-20.3h-93.18c-4.26,0-7.72,4.56-7.72,10.2s3.46,10.2,7.72,10.2h88.58v32.06h24.14v-10.72h24.14Z"/>
      <path class="cls-26" d="m455.1,256.5h-93.18v20.3h-19.54v10.72h-24.14v-10.72h-24.14v21.43h48.29v10.72h24.14v-32.06h88.58c4.26,0,7.72-4.56,7.72-10.2s-3.46-10.2-7.72-10.2Z"/>
    </g>
    <g>
      <path class="cls-20" d="m443.16,45.89h-29.88v23.96h29.88c19.43,0,35.24,15.81,35.24,35.24v29.88h23.96v-29.88c0-32.64-26.56-59.2-59.2-59.2Z"/>
      <path class="cls-16" d="m60.81,105.09v29.88h23.96v-29.88c0-19.43,15.81-35.24,35.24-35.24h29.88v-23.96h-29.88c-32.64,0-59.2,26.56-59.2,59.2Z"/>
      <path class="cls-32" d="m478.4,428.24c0,19.43-15.81,35.24-35.24,35.24h-29.88v23.96h29.88c32.64,0,59.2-26.56,59.2-59.2v-29.88h-23.96v29.88Z"/>
      <path class="cls-25" d="m84.77,428.24v-29.88h-23.96v29.88c0,32.64,26.56,59.2,59.2,59.2h29.88v-23.96h-29.88c-19.43,0-35.24-15.81-35.24-35.24Z"/>
    </g>
  </g>
  <path class="cls-12" d="m18.66,206.38c0-75.05,525.87-75.05,525.87-150.09V0c0,75.05-525.87,75.05-525.87,150.09v56.29Z"/>
  <path class="cls-5" d="m18.66,512.38c0-75.05,525.87-75.05,525.87-150.09v-56.29c0,75.05-525.87,75.05-525.87,150.09v56.29Z"/>
</svg>