<?xml version="1.0" encoding="UTF-8"?>
<svg id="Layer_1" data-name="Layer 1" xmlns="http://www.w3.org/2000/svg" xmlns:xlink="http://www.w3.org/1999/xlink" viewBox="0 0 377.17 450.01">
  <defs>
    <style>
      .cls-1 {
        fill: url(#linear-gradient-2);
      }

      .cls-2 {
        fill: url(#linear-gradient-6);
      }

      .cls-3 {
        fill: url(#linear-gradient-5);
      }

      .cls-4 {
        fill: url(#linear-gradient-3);
      }

      .cls-5 {
        fill: url(#linear-gradient);
      }

      .cls-6 {
        fill: url(#linear-gradient-4);
      }
    </style>
    <linearGradient id="linear-gradient" x1="185.31" y1="-14.09" x2="185.31" y2="529.55" gradientUnits="userSpaceOnUse">
      <stop offset="0" stop-color="#00a3b2"/>
      <stop offset="1" stop-color="#d9eac7"/>
    </linearGradient>
    <linearGradient id="linear-gradient-2" x1="194.94" y1="-14.09" x2="194.94" y2="529.55" xlink:href="#linear-gradient"/>
    <linearGradient id="linear-gradient-3" x1="148.6" y1="-14.09" x2="148.6" y2="529.55" xlink:href="#linear-gradient"/>
    <linearGradient id="linear-gradient-4" x1="290.18" y1="-14.09" x2="290.18" y2="529.55" xlink:href="#linear-gradient"/>
    <linearGradient id="linear-gradient-5" x1="290.24" y1="-14.09" x2="290.24" y2="529.55" xlink:href="#linear-gradient"/>
    <linearGradient id="linear-gradient-6" x1="203.04" y1="-14.09" x2="203.04" y2="529.55" xlink:href="#linear-gradient"/>
  </defs>
  <polygon class="cls-5" points="191.73 399.49 185.31 399.49 185.31 402.34 178.89 402.34 178.89 405.19 185.31 405.19 191.73 405.19 191.73 402.34 191.73 399.49"/>
  <rect class="cls-1" x="191.73" y="405.19" width="6.42" height="2.85"/>
  <path class="cls-4" d="m297.14,311.42c-.25-4.4-1.96-8.06-6.75-8.22-4.78-.16-6.93,3.26-7.22,7.74-.34,5.12-.49,10.24-.75,15.77-9.46,1.06-17.35,2.02-25.07-3.39-3.29-2.31-8.27-3.03-12.49-3.06-37.42-.23-74.84-.26-112.25,0-4.63.03-10.03.95-13.71,3.46-7.88,5.37-15.64,4.08-23.8,2.59-.49-1.74-1.24-3.02-1.14-4.23,1.19-14.56-4.92-26.22-13.42-37.51-19.85-26.37-38.87-53.36-58.7-79.74-8.64-11.49-10.21-22.6-3.28-35.45,7.09-13.16,13.29-26.81,19.76-40.3,1.51-3.14,3.43-6.5,3.5-9.79.05-2.4-2.13-5.71-4.28-6.99-1.42-.84-5.18.55-6.77,2.1-2.1,2.05-3.22,5.18-4.56,7.93-7.13,14.64-14.12,29.34-21.32,43.94-7.79,15.8-6.13,30.36,4.37,44.52,20.72,27.92,40.88,56.25,61.65,84.13,6.08,8.15,9,16.48,8.87,26.76-.46,35.21-.24,70.43-.2,105.65.02,14.37.72,14.95,14.72,15.14,9.56.13,19.21-1.21,27.77,5.54,2.67,2.11,7.57,1.86,11.46,1.87,36.54.13,73.08.21,109.61-.07,5.07-.04,10.78-1.05,15.01-3.59,5.33-3.21,10.59-3.7,16.33-3.77,6.89-.09,13.77-.46,20.64-.7.96-3.39,2.06-5.45,2.06-7.51.09-40.5.05-81,.03-121.5,0-.44-.02-.88-.05-1.32Zm-188.5,116.8c-4.12.3-6.25.63-8.37.56-1.65-.05-3.28-.58-5.5-1.01v-85.78h13.27c1.25,28.54.36,56.75.59,86.23Zm51-84.63h6.61s0,0,0,0c2.08,0,4.17,0,6.25,0,1.12,0,2.45,0,3.82.02,1.14.01,2.22.29,3.18.8.65-.8,1.41-1.52,2.29-2.15,3.61-2.58,7.79-2.93,11.79-1.01,1.59.77,2.94,1.86,3.98,3.17,1-.53,2.13-.82,3.32-.82,2.87,0,5.75-.01,8.62-.02.57,0,1.13,0,1.7,0h4.49s2.31,0,2.31,0h8.01c1.56,0,3.12,0,4.68,0,1.62,0,3.11.61,4.22,1.71,1.09,1.09,1.69,2.57,1.69,4.15,0,3.1-2.36,5.55-5.45,5.78-.18.76-.5,1.49-.97,2.13-.9,1.22-2.25,2.04-3.73,2.29-.4,1.53-1.41,2.86-2.91,3.65-.21.11-.43.21-.66.3-.5,2.51-2.66,4.43-5.27,4.62-.2.01-.38.02-.53.02-.09,0-.16,0-.22,0h-.06s-5.79,0-5.79,0c.78,1.05,1.38,2.24,1.74,3.55,1.05,3.83.13,7.54-2.6,10.45-.15.16-.31.31-.47.45h-42.3s-.05-.04-.07-.07c-2.07-1.95-3.24-4.48-3.39-7.3-.14-2.62.61-5.04,2.16-7.08-2.04,0-4.08,0-6.13,0-1.82,0-3.49-.79-4.6-2.17-.58-.72-.97-1.56-1.15-2.46-1.25-.47-2.3-1.36-2.99-2.57-.25-.45-.44-.92-.57-1.4-1.93-.32-3.56-1.55-4.37-3.38-.15-.34-.27-.68-.35-1.03-2.39-.17-4.38-1.69-5.16-3.95-.87-2.54.16-5.4,2.45-6.79.95-.57,2.08-.89,3.19-.9,2.4,0,4.8,0,7.19,0h6.05Zm-29.93-1.16c0-8.68,7.06-15.74,15.74-15.74h7.94v6.37h-7.94c-5.17,0-9.37,4.2-9.37,9.37v7.94h-6.37v-7.94Zm23.68,101.66h-7.94c-8.68,0-15.74-7.06-15.74-15.74v-7.94h6.37v7.94c0,5.17,4.2,9.37,9.37,9.37h7.94v6.37Zm38.34-13.26h-6.42v-2.85h6.42v2.85Zm-12.84-8.55v-5.7h6.42v5.7h-6.42Zm19.26-2.85v2.85h-6.42v-5.7h6.42v2.85Zm12.84-28.49v5.7h-6.42v17.1h-6.42v-2.85h-6.42v-2.85h-6.42v2.85h-6.42v2.85h-6.42v-17.1h-6.42v-8.52h-23.55c-1.13,0-2.05-1.21-2.05-2.71s.92-2.71,2.05-2.71h24.77v5.4h18.03v5.7h-12.84v2.85h32.09v-2.85h-12.84v-5.7h6.42v2.85h6.42v-2.85h5.2v-5.4h24.77c1.13,0,2.05,1.21,2.05,2.71s-.92,2.71-2.05,2.71h-23.55v2.82Zm36.12,37.41c0,8.68-7.06,15.74-15.74,15.74h-7.94v-6.37h7.94c5.17,0,9.37-4.2,9.37-9.37v-7.94h6.37v7.94Zm0-77.97h-6.37v-7.94c0-5.17-4.2-9.37-9.37-9.37h-7.94v-6.37h7.94c8.68,0,15.74,7.06,15.74,15.74v7.94Zm35.03,77.42c-2.29.43-3.94.96-5.59.99-2.11.04-4.23-.33-7.62-.63-1.49-28.61-.45-56.8-.69-86.17h13.9v85.81Z"/>
  <path class="cls-6" d="m376.87,152.68c-.14-12.51-8.11-20.23-20.57-21.73-3.04-.37-6.15-.19-9.23-.19-37.84-.01-75.68-.02-113.52-.01-3.08,0-6.18-.18-9.24.12-12.25,1.17-20.68,9.16-20.83,21.45-.39,33.88-.39,67.76-.05,101.64.13,13.13,8.46,20.8,21.78,21.52,4.27.23,8.57.04,13.86.04.33,4.97.67,7.59.64,10.2-.1,8.31,3.09,14.9,10.98,17.81,7.75,2.86,14.62.27,20.31-5.7,4.86-5.09,10.19-9.75,14.82-15.03,4.71-5.38,10.06-7.57,17.31-7.38,17.15.44,34.32.4,51.47,0,13.43-.31,22.04-8.06,22.22-21.1.47-33.87.42-67.76.04-101.63Zm-13.49,93.64c-.07,13.97-1.93,15.59-16.39,15.66-15.41.08-30.86.69-46.21-.23-10.31-.62-17.67,2.89-24.09,10.37-4,4.66-8.51,8.91-12.98,13.15-2.09,1.98-4.61,3.51-7.38,5.58-6.19-8.48-.28-18.19-5.3-26.99-2.09-.49-4.93-1.56-7.82-1.76-4.82-.33-9.69.08-14.52-.15-9.22-.45-11.22-2.59-11.78-12.06-.05-.88-.02-1.76-.02-2.64,0-29.05-.07-58.11.06-87.16.06-13.67,1.43-14.96,15.29-14.99,38.74-.08,77.48-.09,116.22,0,13.26.03,14.82,1.43,14.9,14.07.17,29.05.18,58.11.03,87.16Z"/>
  <path class="cls-3" d="m296.8,169.26c-2.05.75-4.07,1.57-6.67,2.57-2.85-1.12-4.87-1.99-6.94-2.72-11.11-3.92-20.92-1.33-29.02,6.79-8.45,8.48-8.26,18.95-4.93,29.51,1.03,3.27,3.03,6.38,5.15,9.12,7.68,9.91,17.57,17.19,28.93,22.27,2.98,1.34,7.25,2.27,10.05,1.16,15.86-6.3,29.76-15.45,37.01-31.7,4.6-10.31,4.27-20.9-3.64-29.61-8.07-8.89-18.31-11.63-29.95-7.38Zm21.56,29.78c-2.49,4.96-5.79,9.87-9.84,13.6-5.08,4.66-11.29,8.08-18.81,13.28-7.74-5.89-14.94-10.75-21.32-16.51-3.08-2.78-5.25-7.01-6.73-11-1.97-5.33-.53-10.46,4.07-14.13,4.55-3.63,10.37-4.7,14.57-1.03,6.82,5.96,12.09,6.6,19.22.36,4.79-4.2,11.27-2.88,15.58,1.13,4.29,4,5.82,9.19,3.26,14.29Z"/>
  <path class="cls-2" d="m58.13,180.89c.33,3.97,2.28,6.86,6.42,7.05,4.24.2,6.4-2.58,6.68-6.6.28-3.94.28-7.91.28-11.87.01-39.18-.06-78.37.06-117.55.02-5.24.36-10.61,1.57-15.67,2.96-12.45,14.15-21.61,26.34-22.28,12.87-.71,25.43,7.62,29.32,20.24,1.52,4.95,1.8,10.37,1.99,15.61.26,7.03-.32,14.08-.14,21.11.1,4.28,1.94,8,6.88,8.14,5.01.14,6.81-3.41,6.99-7.81.22-5.28-.16-10.59.29-15.84,1.34-15.53,13.7-26.62,29.22-26.55,15.89.08,28.09,11.71,29.1,28.15.46,7.46.05,14.97.34,22.44.15,3.96,2.46,6.85,6.58,6.84,4.05-.01,6.4-2.69,6.7-6.76.35-4.82.05-9.73.81-14.48,1.97-12.37,12.45-21.6,24.45-22.04,11.91-.43,23.22,8.15,25.91,20.32,1.03,4.66.8,9.61.94,14.43.15,5.28-.12,10.57.13,15.84.18,3.88,2.11,6.96,6.33,7.11,4.97.17,6.91-3.18,7.12-7.66.19-3.96-.12-7.95.25-11.88,1.25-13.23,11.27-22.65,24.43-23.2,14.76-.62,25.56,9.03,26.95,24.82.69,7.87.17,15.84.36,23.76.1,4.22,1.13,8.19,6.44,8.19,4.95,0,6.98-3.31,6.99-7.8.03-9.68.82-19.49-.45-29.01-3.62-27.15-32.32-41.94-56.91-29.86-3.39,1.66-6.66,3.57-9.9,5.32-14.8-23.94-37.39-32.58-65.9-14.11-24.96-29.01-42.24-32.17-71.8-12.73-5.16-6.03-9.03-12.12-14.33-16.44-13.88-11.28-29.68-13.14-45.82-5.58-16.21,7.6-24.56,21.09-24.65,38.98-.23,44.02-.09,88.05-.09,132.08,0,1.76,0,3.53.14,5.28Z"/>
</svg>