<?xml version="1.0" encoding="UTF-8"?>
<svg id="Layer_1" data-name="Layer 1" xmlns="http://www.w3.org/2000/svg" viewBox="0 0 156.86 127.92">
  <defs>
    <style>
      .cls-1 {
        fill: #fff;
      }
    </style>
  </defs>
  <g>
    <path class="cls-1" d="m53.34,87.74c-.01-1.37-.03-2.74-.04-4.11,0-.91,0-.91-.88-.91-1.37.01-2.74.02-4.06-.44-2.84-1-5.07-3.68-5.07-7.17,0-3.5-.03-7,.05-10.5.08-3.7,3.37-6.92,7.08-6.97,3.68-.05,7.37-.12,11.05.02,2.9.11,4.94,1.74,6.22,4.32.48.96.7,2,.7,3.08-.01,3.52.05,7.04-.05,10.56-.09,3.26-2.46,6.08-5.64,6.8-1.1.25-2.27.21-3.41.29-.28.02-.56,0-.92,0v5.02l.02-.02c-1.68,0-3.37,0-5.05,0l.02.02Zm2.51-25.12c-1.62,0-3.24,0-4.85,0-1.73,0-2.67.93-2.67,2.65-.01,3.23-.01,6.47,0,9.7,0,1.75.96,2.69,2.71,2.7,3.19,0,6.39,0,9.58,0,1.76,0,2.77-1.02,2.77-2.79,0-3.17,0-6.35,0-9.52,0-1.75-.99-2.73-2.74-2.75-1.6-.01-3.19,0-4.79,0Z"/>
    <path class="cls-1" d="m103.62,87.68h-5.07v-4.91c-.36-.02-.68-.02-.99-.05-1.32-.13-2.71-.05-3.93-.46-3.01-1.01-4.9-3.21-5.05-6.41-.18-3.88-.16-7.78.02-11.66.16-3.53,3.47-6.5,7.02-6.54,3.68-.04,7.37-.03,11.05,0,2.59.02,5.46,2.14,6.34,4.69.31.89.51,1.87.53,2.81.05,3.46.05,6.92,0,10.38-.07,3.59-2.91,6.67-6.5,7.1-.89.11-1.8.07-2.7.1-.24,0-.48,0-.73,0,0,1.71,0,3.34,0,4.97,0,0,.01-.02.01-.02Zm-2.54-25.06c-1.66,0-3.32-.01-4.97,0-1.59.02-2.58.97-2.59,2.55-.03,3.3-.03,6.59,0,9.89.01,1.65,1.02,2.61,2.67,2.61,3.21,0,6.43,0,9.64,0,1.71,0,2.7-.93,2.72-2.63.03-3.28.03-6.55,0-9.83-.02-1.67-1-2.59-2.68-2.6-1.6,0-3.19,0-4.79,0Z"/>
    <path class="cls-1" d="m68.35,115.37c0,1.8.07,3.6-.01,5.4-.16,3.43-2.51,6.18-5.88,6.94-.57.13-1.17.19-1.76.19-3.48,0-6.96.02-10.43-.03-3.11-.05-6.25-2.79-6.77-5.86-.12-.72-.19-1.46-.2-2.19-.01-3.25-.02-6.51.02-9.76.05-3.9,3.27-7.15,7.16-7.23,3.74-.08,7.49-.11,11.23.06,3.46.16,6.45,3.31,6.62,6.76.09,1.9.02,3.8.02,5.71,0,0,0,0,.01,0Zm-20.03-.03c0,1.58,0,3.15,0,4.73,0,.04,0,.08,0,.12.03,1.73.98,2.7,2.72,2.71,3.19.02,6.39.02,9.58,0,1.79,0,2.77-1.01,2.77-2.8,0-3.15,0-6.31,0-9.46,0-1.82-1-2.82-2.81-2.82-3.17,0-6.35,0-9.52,0-1.77,0-2.73.96-2.74,2.73,0,1.6,0,3.19,0,4.79Z"/>
    <path class="cls-1" d="m83.46,92.75c0-1.39,0-2.69,0-3.99,0-1.17.12-1.02-1.01-1.02-4.44,0-8.88-.01-13.32.01-.59,0-.78-.16-.76-.75.04-1.23.03-2.45,0-3.68,0-.46.16-.6.6-.6,6.3.01,12.6.01,18.9,0,.44,0,.62.12.61.59-.02,2.97,0,5.93,0,8.9,0,.31,0,.56-.44.55-1.49-.02-2.98,0-4.59,0Z"/>
    <path class="cls-1" d="m68.43,102.76v-4.96h4.95v-5.01h5.01v4.98c.3,0,.53,0,.76,0,2.9,0,5.81,0,8.71,0,.47,0,.65.11.64.61-.03,1.19,0,2.37-.01,3.56q0,.84-.82.85c-4.73,0-9.45,0-14.18,0-1.45,0-2.9,0-4.36,0-.22,0-.44-.02-.7-.03Z"/>
    <path class="cls-1" d="m73.47,67.62h4.94c0-.27,0-.48,0-.7,0-1.27,0-2.54,0-3.8,0-.31.06-.5.43-.5,1.39.01,2.78,0,4.17.02.15,0,.31.26.43.42.05.07.01.2.01.3,0,4.52,0,9.04.01,13.56,0,.57-.13.79-.74.77-1.21-.05-2.41-.05-3.62,0-.59.02-.72-.19-.7-.74.04-1.41.01-2.82.01-4.29h-4.94v-5.06Z"/>
    <path class="cls-1" d="m78.41,107.82v.67c0,4.58,0,9.16.01,13.74,0,.55-.17.69-.69.68-1.25-.04-2.49-.03-3.74,0-.46,0-.6-.15-.6-.6.01-4.64,0-9.28.02-13.92,0-.19.18-.54.29-.54,1.55-.03,3.1-.02,4.71-.02Z"/>
    <path class="cls-1" d="m58.36,87.74h4.99v5.02h-4.98l.02.02c0-1.69,0-3.37,0-5.06l-.02.02Z"/>
    <path class="cls-1" d="m58.36,92.77v5.02c-1.64,0-3.19,0-4.74-.02-.11,0-.3-.26-.3-.4-.01-1.53.01-3.07.02-4.6h-.02c1.68.01,3.37.02,5.05.02,0,0-.02-.02-.02-.02Z"/>
    <path class="cls-1" d="m98.55,97.82v-5h5.08-.01c-.02,1.66-.03,3.32-.05,4.99l.02-.02c-1.68,0-3.37,0-5.05,0l.02.02Z"/>
    <path class="cls-1" d="m93.5,117.83c1.67,0,3.34-.01,5.01-.02l-.02-.02v5.11c-.69,0-1.36,0-2.02,0-.8,0-1.6-.01-2.39,0-.41.01-.59-.1-.58-.55.03-1.51.02-3.03.03-4.54l-.02.02Z"/>
    <path class="cls-1" d="m98.54,102.84h-4.99v-5.02h4.99s-.02-.02-.02-.02c0,1.69,0,3.37,0,5.06l.02-.02Z"/>
    <path class="cls-1" d="m103.57,97.82h4.94v5.02h-4.94l.02.02c0-1.69,0-3.37,0-5.06l-.02.02Z"/>
    <path class="cls-1" d="m53.34,92.77c-1.49,0-2.98-.03-4.47,0-.43,0-.57-.13-.56-.55.02-1.31.02-2.61,0-3.92,0-.42.13-.57.56-.56,1.49.02,2.98.01,4.47.01,0,0-.02-.02-.02-.02,0,1.68,0,3.37,0,5.05h.02Z"/>
    <path class="cls-1" d="m103.63,92.83c-.02-1.01-.06-2.02-.07-3.03,0-.71.04-1.41.06-2.12,0,0-.01.02-.01.02,1.61,0,3.22,0,4.89,0v5.05c-1.17,0-2.33,0-3.49,0-.47,0-.93.04-1.39.06,0,0,.01.01.01.01Z"/>
    <path class="cls-1" d="m103.6,117.81c1.43.02,2.86.06,4.29.03.55,0,.7.15.69.69-.04,1.27-.02,2.53,0,3.8,0,.42-.13.58-.56.57-1.31-.02-2.62,0-3.92-.02-.18,0-.5-.21-.5-.32-.01-1.59.02-3.18.04-4.77,0,0-.02.02-.02.02Z"/>
    <path class="cls-1" d="m103.57,102.84v4.92h-5.02c0-1.63,0-3.28,0-4.92,0,0-.02.02-.02.02,1.69,0,3.37,0,5.06,0l-.02-.02Z"/>
    <path class="cls-1" d="m98.52,117.81v-4.91h5.08c0,1.66,0,3.29,0,4.91,0,0,.02-.02.02-.02-1.71,0-3.41,0-5.12,0,0,0,.02.02.02.02Z"/>
    <path class="cls-1" d="m93.52,117.81c-1.53.01-3.06.04-4.6.03-.15,0-.41-.27-.42-.42-.03-1.39-.03-2.78,0-4.17,0-.13.18-.36.28-.37,1.55-.02,3.09-.02,4.72-.02,0,1.7,0,3.33,0,4.96,0,0,.02-.02.02-.02Z"/>
    <path class="cls-1" d="m58.31,67.61v5h-5.01c0-.42,0-.82,0-1.22,0-1.08,0-2.17,0-3.25,0-.28-.01-.53.4-.53,1.51.01,3.02,0,4.61,0Z"/>
    <path class="cls-1" d="m103.5,72.61h-4.92v-4.96h4.92v4.96Z"/>
    <path class="cls-1" d="m58.34,112.87c0,1.61,0,3.14-.01,4.67,0,.11-.21.31-.33.31-1.43.02-2.86.03-4.29,0-.13,0-.38-.25-.38-.39-.03-1.39-.03-2.78,0-4.17,0-.14.2-.39.32-.39,1.55-.03,3.1-.02,4.71-.02Z"/>
  </g>
  <g>
    <path class="cls-1" d="m35.43,71.69c0-2.5-1.55-4.72-3.88-5.64-2.07-.82-4.07-1.69-5.97-2.63-2.63-1.29-5.16-2.75-7.58-4.38h0c10.38-7.11,25.38-12.04,42.36-14.1v-4.62c-18.62,2.2-35.09,7.76-46.22,15.81-6.25-5.25-9.58-11.16-9.58-17.25,0-9.13,7.46-17.84,21.02-24.54,9.73-4.81,21.7-8.12,34.78-9.71V0c-13.79,1.63-26.47,5.11-36.78,10.21C8.37,17.72,0,27.9,0,38.87v40.31c0,10.97,8.37,21.15,23.58,28.66,1.08.54,2.2,1.05,3.33,1.55,4.01,1.76,8.52-1.14,8.52-5.52v-32.19Z"/>
    <path class="cls-1" d="m133.29,10.21C122.97,5.11,110.3,1.63,96.51,0v4.63c13.05,1.59,24.99,4.9,34.71,9.7,13.55,6.7,21.02,15.41,21.02,24.54,0,6.1-3.33,12.01-9.58,17.26-11.09-8.02-27.6-13.59-46.15-15.8v4.62c16.9,2.07,31.93,7.01,42.29,14.08-2.42,1.63-4.96,3.1-7.58,4.38-1.88.93-3.86,1.8-5.91,2.61-2.33.92-3.87,3.14-3.87,5.64v32.21c0,4.38,4.51,7.29,8.52,5.52,1.14-.5,2.25-1.02,3.33-1.55,15.21-7.51,23.58-17.69,23.58-28.66v-40.31c0-10.97-8.37-21.15-23.58-28.66Zm13.96,66.32l-.21-.21.22.22h-.01Z"/>
  </g>
</svg>